<svg version="1.1" id="Layer_1"
  xmlns="http://www.w3.org/2000/svg"
  xmlns:xlink="http://www.w3.org/1999/xlink" x="0px" y="0px" viewBox="0 0 70.8 70.8" style="enable-background: new 0 0 70.8 70.8" xml:space="preserve">
  <def>
    <style>
      .st0 { fill: url(#SVGID_1_flutter) }
      .st1 { fill: #ffffff }
      .st2 { fill: url(#SVGID_2_flutter) }
      .st3 { clip-path: url(#SVGID_4_flutter) }
      .st4 { fill: #39cefd }
      .st5 {
        clip-path: url(#SVGID_6_flutter);
        fill: #39cefd;
      }
      .st6 {
        clip-path: url(#SVGID_8_flutter);
        fill: #03569b;
      }
      .st7 {
        clip-path: url(#SVGID_10_flutter);
        fill: url(#SVGID_11_flutter);
      }
      .st8 { clip-path: url(#SVGID_13_flutter) }
      .st9 { fill: #16b9fd }
      .st10 { fill: url(#SVGID_14_flutter) }
    </style>
  </def>
  <g>
    <g>
      <radialGradient id="SVGID_1_flutter" cx="24.5395" cy="34.8427" r="50.376" gradientUnits="userSpaceOnUse">
        <stop offset="0" style="stop-color: #ffffff; stop-opacity: 0.1" />
        <stop offset="1" style="stop-color: #ffffff; stop-opacity: 0" />
      </radialGradient>
      <polygon class="st0" points="41.2,67.9 23.4,50.2 41.2,32.4 62.3,32.4 44.6,50.2 62.3,67.9 61.1,67.9 		" />
      <path class="st1" d="M61.1,32.9L43.9,50.2l0,0l0,0l17.2,17.2h0l0,0H41.4L24.2,50.2l17.2-17.2H61.1 M63.5,31.9h-2.4H41.4H41
        l-0.3,0.3L23.4,49.5l-0.7,0.7l0.7,0.7l17.2,17.2l0.3,0.3h0.4h19.7h2.4L63,67.9l-1.2-1.2L45.3,50.2l0,0l16.5-16.5L63.5,31.9
        L63.5,31.9z" />
    </g>
    <g>
      <radialGradient id="SVGID_2_flutter" cx="10.1916" cy="5.8272" r="66.0197" gradientUnits="userSpaceOnUse">
        <stop offset="0" style="stop-color: #ffffff; stop-opacity: 0.1" />
        <stop offset="1" style="stop-color: #ffffff; stop-opacity: 0" />
      </radialGradient>
      <polygon class="st2" points="8.7,35.4 41.2,2.9 62.3,2.9 19.2,45.9 		" />
      <path class="st1" d="M61.1,3.4L19.2,45.2l-9.8-9.8l32-32H61.1 M63.5,2.4h-2.4H41.4H41l-0.3,0.3l-32,32L8,35.4l0.7,0.7l9.8,9.8
        l0.7,0.7l0.7-0.7L61.8,4.1L63.5,2.4L63.5,2.4z" />
    </g>
  </g>
  <g transform="matrix(.061615 0 0 .061615 -1.430818 -1.2754)">
    <g>
      <defs>
        <path id="SVGID_3_flutter" d="M1014.5,555.1L734.9,834.8l279.6,279.7H695L415.3,834.8L695,555.1H1014.5z M695,75.8L175.7,595.1
          l159.8,159.8l679-679.1C1014.5,75.8,695,75.8,695,75.8z" />
      </defs>
      <clipPath id="SVGID_4_flutter">
        <use xlink:href="#SVGID_3_" style="overflow: visible" />
      </clipPath>
      <g class="st3">
        <path class="st4" d="M415.4,834.8l159.7,159.8l439.4-439.5H695L415.4,834.8z" />
      </g>
    </g>
    <g>
      <defs>
        <path id="SVGID_5_flutter" d="M1014.5,555.1L734.9,834.8l279.6,279.7H695L415.3,834.8L695,555.1H1014.5z M695,75.8L175.7,595.1
          l159.8,159.8l679-679.1C1014.5,75.8,695,75.8,695,75.8z" />
      </defs>
      <clipPath id="SVGID_6_flutter">
        <use xlink:href="#SVGID_5_flutter" style="overflow: visible" />
      </clipPath>
      <path class="st5" d="M695,75.8h319.5l-679,679.1L175.7,595.1L695,75.8z" />
    </g>
    <g>
      <defs>
        <path id="SVGID_7_flutter" d="M1014.5,555.1L734.9,834.8l279.6,279.7H695L415.3,834.8L695,555.1H1014.5z M695,75.8L175.7,595.1
          l159.8,159.8l679-679.1C1014.5,75.8,695,75.8,695,75.8z" />
      </defs>
      <clipPath id="SVGID_8_flutter">
        <use xlink:href="#SVGID_7_flutter" style="overflow: visible" />
      </clipPath>
      <path class="st6" d="M575.1,994.6L695,1114.4h319.5L734.9,834.8L575.1,994.6z" />
    </g>
    <g>
      <defs>
        <path id="SVGID_9_flutter" d="M1014.5,555.1L734.9,834.8l279.6,279.7H695L415.3,834.8L695,555.1H1014.5z M695,75.8L175.7,595.1
          l159.8,159.8l679-679.1C1014.5,75.8,695,75.8,695,75.8z" />
      </defs>
      <clipPath id="SVGID_10_flutter">
        <use xlink:href="#SVGID_9_flutter" style="overflow: visible" />
      </clipPath>

      <linearGradient id="SVGID_11_flutter" gradientUnits="userSpaceOnUse" x1="74776.3906" y1="-110787.4141" x2="74895.4062" y2="-110668.3984" gradientTransform="matrix(6.161500e-02 0 0 -6.161500e-02 -3985.6582 -5800.7734)">
        <stop offset="0" style="stop-color: #1a237e; stop-opacity: 0.4" />
        <stop offset="1" style="stop-color: #1a237e; stop-opacity: 0" />
      </linearGradient>
      <path class="st7" d="M812.1,912.5l-77.2-77.7L575.1,994.6L812.1,912.5z" />
    </g>
    <g>
      <defs>
        <path id="SVGID_12_flutter" d="M1014.5,555.1L734.9,834.8l279.6,279.7H695L415.3,834.8L695,555.1H1014.5z M695,75.8L175.7,595.1
          l159.8,159.8l679-679.1C1014.5,75.8,695,75.8,695,75.8z" />
      </defs>
      <clipPath id="SVGID_13_flutter">
        <use xlink:href="#SVGID_12_flutter" style="overflow: visible" />
      </clipPath>
      <g class="st8">
        <path class="st9" d="M415.3,834.7l159.8-159.8L735,834.7L575.2,994.5L415.3,834.7z" />
      </g>
    </g>

    <radialGradient id="SVGID_14_flutter" cx="401981.4375" cy="463639.1562" r="5082.8892" gradientTransform="matrix(1.540375e-02 0 0 1.540375e-02 -5992.7905 -6995.2212)" gradientUnits="userSpaceOnUse">
      <stop offset="0" style="stop-color: #ffffff; stop-opacity: 0.1" />
      <stop offset="1" style="stop-color: #ffffff; stop-opacity: 0" />
    </radialGradient>
    <path class="st10" d="M1014.5,555.1L734.9,834.8l279.6,279.7H695L415.3,834.8L695,555.1H1014.5z M695,75.8L175.7,595.1l159.8,159.8
      l679-679.1C1014.5,75.8,695,75.8,695,75.8z" />
  </g>
</svg>