<svg version="1.1" id="Layer_1"
  xmlns="http://www.w3.org/2000/svg"
  xmlns:xlink="http://www.w3.org/1999/xlink" x="0px" y="0px" viewBox="0 0 2984.7 2751.9" style="enable-background: new 0 0 2984.7 2751.9" xml:space="preserve">
  <def>
    <style>
      .st0 { fill: #231f20 }
      .st1 { fill: #ffffff }
      .st2 { fill: #e24329 }
      .st3 { fill: #fc6d26 }
      .st4 { fill: #fca326 }
    </style>
  </def>
  <g>
    <path class="st0" d="M1493.2,2568.5c-10.5,0-21-4.1-28.8-12.2c-13.9-14.3-15-36.7-2.8-52.4l1104.4-1415.4
		c6.1-7.9,15-13.5,25.5-15.2c2.1-0.3,4.2-0.5,6.3-0.5c17.1,0,32.6,11,38,27.6l139.8,430.2c18.2,55.9-1.6,116.7-49.1,151.2
		l-1209.9,879C1509.7,2566,1501.4,2568.5,1493.2,2568.5z" />
    <path class="st1" d="M2597.9,1112.8l139.8,430.2c12.7,39.2-1.2,82.2-34.6,106.5l-1209.9,879L2597.9,1112.8L2597.9,1112.8
		 M2598,1032.8c-4.2,0-8.4,0.3-12.6,1c-21,3.3-39.1,14.7-51.2,30.6l-1104,1414.9c-24.5,31.4-22.2,76.1,5.5,104.8
		c15.6,16.1,36.5,24.4,57.6,24.4c16.4,0,32.9-5,47-15.3l1209.9-879c30.1-21.9,52.1-52.2,63.7-87.6c11.5-35.4,11.5-72.9,0-108.3
		L2674,1088.1C2663.1,1054.7,2632.1,1032.8,2598,1032.8L2598,1032.8z" />
  </g>
  <g>
    <path class="st0" d="M1493.2,2568.5c-8.2,0-16.4-2.5-23.5-7.6l-1209.9-879c-47.5-34.5-67.3-95.3-49.1-151.2l139.8-430.2
		c4.6-14.1,16.5-24.5,31.1-27c2.3-0.4,4.6-0.6,6.9-0.6c12.2,0,23.9,5.6,31.5,15.4l1104.7,1415.7c12.3,15.7,11.1,38.1-2.8,52.4
		C1514.2,2564.4,1503.7,2568.5,1493.2,2568.5z" />
    <path class="st1" d="M388.5,1112.8l1104.7,1415.7l-1209.9-879c-33.4-24.3-47.3-67.2-34.6-106.5L388.5,1112.8 M388.5,1032.8
		c-4.6,0-9.2,0.4-13.9,1.2c-29.1,5.1-53.1,25.9-62.2,54.1l-139.8,430.2c-11.5,35.4-11.5,72.9,0,108.3c11.5,35.4,33.5,65.7,63.7,87.6
		l1209.9,879c14.1,10.3,30.6,15.3,47,15.3c21.1,0,42-8.3,57.6-24.4c27.7-28.7,30.1-73.4,5.5-104.8L451.6,1063.6
		C436.3,1044,412.9,1032.8,388.5,1032.8L388.5,1032.8z" />
  </g>
  <g>
    <path class="st0" d="M1493.2,2568.4c-12.7,0-24.4-6-31.9-15.9l-1104-1414.8c-0.2-0.3-0.4-0.5-0.6-0.8c-6.3-8.3-9.1-18.7-7.9-28.9
		c0,0,0,0,0,0c0.3-2.7,0.9-5.4,1.8-8.1l276.9-852.3c6.1-18.8,17.8-34.5,33.7-45.4c14.6-9.9,31.7-15.2,49.7-15.2
		c17.9,0,35.1,5.2,49.7,15.2c15.9,10.8,27.6,26.5,33.7,45.4l268.1,825h861.9l268.1-825c6.1-18.8,17.8-34.5,33.7-45.4
		c14.6-9.9,31.7-15.2,49.7-15.2c17.9,0,35.1,5.2,49.7,15.2c15.9,10.8,27.6,26.5,33.7,45.4l276.9,852.2c2.9,8.5,2.8,17.7-0.2,26.1
		c0,0,0,0.1,0,0.1c-1.4,3.9-3.3,7.5-5.9,10.9c-0.2,0.3-0.4,0.5-0.6,0.8L1525.1,2552.5C1517.7,2562.3,1506,2568.3,1493.2,2568.4
		C1493.2,2568.3,1493.2,2568.3,1493.2,2568.4L1493.2,2568.4z" />
    <path class="st1" d="M2275.6,227.1c19.1,0,38.2,11,45.3,32.9l277,852.7h0l0,0l0,0h0L1493.2,2528.3l0,0l0,0h0l0,0l0,0L388.6,1112.6
		h0l0,0l0,0h0l277-852.7c7.1-21.9,26.2-32.9,45.3-32.9c19.1,0,38.2,11,45.3,32.9l277,852.7h0l0,0h920l0,0h0l277-852.7
		C2237.4,238,2256.5,227.1,2275.6,227.1 M2275.6,147.1C2275.6,147.1,2275.6,147.1,2275.6,147.1c-26,0-51,7.6-72.2,22.1
		c-23.3,15.9-40.3,38.7-49.2,66.1l-259.1,797.4h-803.8L832.3,235.2c-8.9-27.3-25.9-50.2-49.2-66.1c-21.2-14.5-46.2-22.1-72.2-22.1
		c-26,0-51,7.6-72.2,22.1c-23.3,15.9-40.3,38.7-49.2,66.1l-276.8,851.9c-7.1,21.1-5,44.1,5.5,63.5c0,0,0,0,0,0c0,0,0,0.1,0.1,0.1
		c0,0,0,0,0,0.1c0,0,0,0,0,0.1c0,0,0,0.1,0.1,0.1c0,0,0,0,0,0c1.4,2.6,3,5.1,4.7,7.6c0.9,1.3,1.8,2.5,2.8,3.7l1103.5,1414.2
		c0.9,1.2,1.8,2.3,2.8,3.5c0,0,0,0,0,0c0,0,0,0,0,0c4.6,5.3,9.8,10,15.5,14c0,0,0,0,0,0c0,0,0,0,0.1,0c12.9,8.9,28.4,14,44.9,14.1
		c0.2,0,0.3,0,0.5,0c25.7,0,49.3-12.3,64.1-32.1l1103.2-1413.8c0.4-0.5,0.8-1,1.2-1.6c0.3-0.4,0.6-0.9,0.9-1.3
		c3.3-4.5,6.1-9.4,8.3-14.4c0,0,0-0.1,0-0.1c0,0,0,0,0,0c0,0,0-0.1,0.1-0.1c0,0,0,0,0,0c3.7-8.4,5.9-17.4,6.6-26.5c0,0,0,0,0,0
		c0,0,0-0.1,0-0.1c0.7-10.3-0.5-20.8-3.9-30.9l-276.8-852c-8.9-27.3-25.9-50.2-49.2-66.1C2326.5,154.7,2301.6,147.1,2275.6,147.1
		L2275.6,147.1L2275.6,147.1z" />
  </g>
  <path class="st2" d="M1493.1,2528.9l460-1415.7h-920L1493.1,2528.9L1493.1,2528.9z" />
  <path class="st3" d="M1493.1,2528.9l-460-1415.7H388.4L1493.1,2528.9z" />
  <path class="st4" d="M388.4,1113.1l-139.8,430.2c-12.8,39.2,1.2,82.2,34.6,106.5l1209.9,879L388.4,1113.1L388.4,1113.1z" />
  <path class="st2" d="M388.4,1113.1h644.7L756,260.5c-14.3-43.9-76.3-43.9-90.6,0L388.4,1113.1L388.4,1113.1z" />
  <path class="st3" d="M1493.1,2528.9l460-1415.7h644.7L1493.1,2528.9L1493.1,2528.9z" />
  <path class="st4" d="M2597.8,1113.1l139.8,430.2c12.7,39.2-1.2,82.2-34.6,106.5l-1209.9,879L2597.8,1113.1L2597.8,1113.1z" />
  <path class="st2" d="M2597.8,1113.1h-644.7l277.1-852.7c14.3-43.9,76.3-43.9,90.6,0L2597.8,1113.1L2597.8,1113.1z" />
  <polygon class="st4" points="-3020.2,1110.9 -3020.2,1110.9 -3020.2,1110.9 " />
</svg>