<svg version="1.1" id="Layer_1"
  xmlns="http://www.w3.org/2000/svg"
  xmlns:xlink="http://www.w3.org/1999/xlink" x="0px" y="0px" viewBox="0 0 2667.5 3054.8" style="enable-background: new 0 0 2667.5 3054.8" xml:space="preserve">
  <def>
    <style>
      .st0 { fill: #e34f26 }
      .st1 { fill: #ffffff }
      .st2 { fill: #ef652a }
    </style>
  </def>
  <g>
    <polygon class="st0" points="406.2,2531 220.5,261.5 2447,266.1 2250.7,2530.9 1342,2794 	" />
    <path class="st1" d="M242.2,281.6l2183,4.5l-193.3,2229.5l-890,257.7L425,2515.5L242.2,281.6 M198.8,241.5l3.5,43.4l182.8,2233.9
      l2.3,27.7l26.8,7.5l916.9,257.7l11,3.1l11-3.2l890-257.7l26.4-7.6l2.4-27.3l193.3-2229.5l3.8-43.4l-43.5-0.1l-2183-4.5L198.8,241.5
      L198.8,241.5z" />
  </g>
  <path class="st2" d="M1342,2557.5V494.3l899,3l-160.3,1845.9L1342,2557.5z" />
  <path class="st1" d="M1993.7,1009.7l25.5-272.7H636.3l76.4,836.1h954.4l-37.4,356.6l-305.7,82.4l-310.1-89.9l-16.5-212.8H723.2
    l37.5,434.5l563.4,157.3l567.8-157.3l76.4-848H965.9l-28.5-286.2H1993.7z" />
</svg>