<svg version="1.1" id="Layer_1"
  xmlns="http://www.w3.org/2000/svg"
  xmlns:xlink="http://www.w3.org/1999/xlink" x="0px" y="0px" viewBox="0 0 904 892.6" style="enable-background: new 0 0 904 892.6" xml:space="preserve"
>
  <def>
    <style>
      .st0 {
        fill-rule: evenodd;
        clip-rule: evenodd;
        fill: #dd3735;
      }
      .st1 {
        fill: #ffffff;
      }
      .st2 {
        fill-rule: evenodd;
        clip-rule: evenodd;
        fill: #dd3a0a;
      }
    </style>
  </def>
  <g>
    <g>
      <path class="st0" d="M697.2,786.6c-8.4,0-16.2-5.3-19-13.7l0,0c-0.3-0.9-0.5-1.8-0.7-2.8L633.6,527c-1.7-2-3-4.3-3.9-6.9l0-0.1
			c-3.4-7-2.4-15.5,2.6-21.5c3.9-4.7,9.5-7.3,15.4-7.3c1.8,0,3.7,0.3,5.5,0.8c2.1,0.6,3.7,1.2,4.6,1.6l0.1,0.1
			c2.6,0.9,5,2.3,6.9,4.1c0,0,0,0,0,0c3.2,2.9,5.4,6.8,6.2,11.2l45.8,254c1.9,10.3-4.6,20.3-14.7,22.9
			C700.5,786.4,698.8,786.6,697.2,786.6z M750.8,683.8c-11,0-20-9-20-20v-0.3c0-0.3,0-0.7,0-1c0-0.3,0-0.7,0-1.1c0-11,9-20,20-20
			h1.1c7,0,13.5,3.6,17.1,9.6c3.2,5.3,3.8,11.8,1.6,17.5c-0.4,1.1-0.8,2.4-1.6,4c-1,2-2.4,3.8-3.9,5.3
			C761.4,681.5,756.4,683.8,750.8,683.8z M649.5,482.7c-2.6,0-5.2-0.5-7.6-1.5c-0.9-0.4-1.7-0.8-2.6-1.3
			c-7.9-3.2-12.9-11.1-12.4-19.6c0.2-3.8,1.5-7.4,3.6-10.4c0.1-0.3,0.2-0.6,0.3-0.9c1.6-4.7,4.9-8.7,9.3-11.1c3-1.7,6.4-2.5,9.7-2.5
			c4.6,0,9.3,1.6,13,4.8c5,4.2,7.5,10.6,7,16.9c0.6,3.1,0.4,6.4-0.6,9.5c-0.8,3.9-2.7,7.5-5.5,10.4
			C659.9,480.7,654.7,482.7,649.5,482.7z M217.1,415.5c-3.6,0-9-0.9-14.3-5.3c-7.7-6.3-9.5-17.4-4.3-25.8c2.4-3.9,4.8-7.5,7.2-10.8
			c3.5-4.8,8.9-7.8,14.8-8.2c0.5,0,0.9,0,1.4,0c4.1,0,8.1,1.3,11.4,3.6c8.3,5.3,10.1,12.6,10.4,16.5c0.4,5.8-1.5,11.4-5.5,15.8
			c-0.4,0.5-0.7,0.9-1,1.3c-0.2,0.2-0.4,0.5-0.6,0.7c-0.1,0.1-0.1,0.3-0.2,0.4C230.3,414.3,220.9,415.5,217.1,415.5z" />
      <path class="st1" d="M221.9,385.2L221.9,385.2c1.1,0.8,2.9,1.3,1.1,2.9c-1.3,1.8-2.9,3.4-4,5.5c-0.7,1.2-1.2,1.8-1.9,1.8
			c-0.4,0-0.9-0.2-1.5-0.7C217.7,391.3,219.8,388.1,221.9,385.2 M649.8,455.3c-0.3,0.8-0.3,1.5-0.3,2.3
			C649.5,456.9,649.5,456.1,649.8,455.3L649.8,455.3 M649.5,457.6C649.5,457.7,649.5,457.7,649.5,457.6
			C649.5,457.7,649.5,457.7,649.5,457.6 M649.5,457.7C649.5,457.7,649.5,457.7,649.5,457.7C649.5,457.7,649.5,457.7,649.5,457.7
			 M649.5,460.3c0.3,0.3,0.3,0.3,0.5,0.3c-0.1,0.1-0.2,0.2-0.2,0.2c-0.1,0-0.1-0.1-0.3-0.2V460.3 M650.1,460.6L650.1,460.6
			L650.1,460.6C650.1,460.6,650.1,460.6,650.1,460.6 M649.5,460.9v1.7c-0.2-0.5-1.4-0.7-2.6-1.2C648,461.1,648.8,461.1,649.5,460.9
			 M649.5,462.6c0,0,0,0.1,0,0.1l0,0V462.6 M647.7,511.2c1.8,0.5,2.9,1.1,3.7,1.3l0,0c-0.3,0.3-0.3,0.5-0.3,0.8
			c-0.5,0.3-1.1,0.3-2.4,0.5C648.5,513.1,648.2,512.3,647.7,511.2 M651.4,512.5l45.8,254l0,0L651.4,512.5
			C651.4,512.5,651.4,512.5,651.4,512.5 M751.9,661.4c-0.3,0.5-0.3,1.1-0.8,2.1c0-0.8-0.3-1.3-0.3-2.1H751.9 M750.8,663.5v0.3V663.5
			 M221.9,345.2c-1.1,0-2.1,0-3.2,0.1c-11.7,0.9-22.4,6.9-29.2,16.4c-2.7,3.7-5.4,7.8-8,12.1c-10.4,17-6.7,39,8.6,51.7
			c9.9,8.2,20.2,9.9,27,9.9c14.8,0,28.2-7.8,36.1-21c0.1-0.1,0.2-0.3,0.3-0.4c7.3-8.4,10.9-19.1,10.1-30.2
			c-0.5-6.2-3.3-21.4-19.4-31.7C237.7,347.6,229.9,345.2,221.9,345.2L221.9,345.2z M649.8,415.3c-6.1,0-12.2,1.4-17.9,4.2l0,0
			c-9,4.5-16,12.2-19.5,21.6c-3.1,5.3-5,11.5-5.4,17.9c-0.6,10.3,2.8,20.1,9,27.7c-9,11.6-10.8,27.3-4.9,40.7c1,2.7,2.2,5.2,3.6,7.5
			l43,238.7c0.3,1.9,0.8,3.7,1.4,5.6c5.6,16.7,21.1,27.4,37.9,27.4c3.3,0,6.6-0.4,9.9-1.3c20.3-5.2,33.2-25.2,29.5-45.8l-11.8-65.4
			c7,6,16.1,9.7,26.1,9.7c10.9,0,20.9-4.4,28.1-11.5c3.1-3,5.8-6.6,7.9-10.7c1.3-2.5,2.1-4.7,2.7-6.4c4.1-11.3,2.9-24-3.4-34.4
			c-7.3-11.9-20.2-19.2-34.2-19.2h-1.1c-15.3,0-28.6,8.6-35.4,21.3l-24.7-137.3c-1.3-7.1-4.5-13.7-9-19c3.4-4.6,5.7-9.8,6.9-15.3
			c1.3-4.9,1.7-10,1.2-15.1c0.2-11.5-4.5-22.8-13.4-30.7C668.9,418.8,659.4,415.3,649.8,415.3L649.8,415.3z" />
    </g>
    <g>
      <path class="st2" d="M479,859c-5.6,0-11.7-0.6-18-1.8c-2.9-0.6-5.7-1.8-8-3.5c-3.9-0.1-7.5-0.5-10.8-0.8c-2.4-0.3-4.7-0.5-6.8-0.6
			c-0.4,0-0.8,0-1.1,0c0,0-0.1,0-0.1,0c-1.3,0.4-3.7,1-6.6,1c-2.7,0-5.4-0.5-7.8-1.5c-1-0.1-1.9-0.2-2.8-0.3
			c-1.9-0.2-3.6-0.5-5.6-0.8c-0.2,0-0.5-0.1-0.7-0.1l-2.7-0.5c-7.7-1.4-15.6-2.9-23.5-4.6c-0.1,0-0.2,0-0.3-0.1
			c-4.2-1-8.2-2.4-11.6-3.6c-2-0.7-3.9-1.3-5.6-1.8c-6.1-1.5-12.1-2.8-17.6-3.9c-0.1,0-0.3-0.1-0.4-0.1c-20.5-4.7-38.1-11.1-54-19.5
			c-8.2-4.4-16-9-23.6-13.4c-4.8-2.8-9.7-5.7-14.6-8.5c-9.4-5.3-21.6-12.6-32.7-21.8c-2.8-2.3-5.3-4.7-7.8-6.9
			c-2.2-2-4.2-3.9-6.3-5.6c-2.5-2-4.6-4.1-6.4-6.2c-1.2-0.4-2.4-1-3.5-1.7c-0.7-0.4-1.3-0.8-1.9-1.3c-0.3-0.1-0.5-0.2-0.7-0.3
			c-3.6-0.4-8.8-1.7-13.6-6.1c-2.4-1.4-4.6-3.2-6.4-5.6c-2.5-1.7-4.5-4-5.9-6.6c-3.8-3.7-6.8-7.5-9.5-10.8c-0.5-0.7-1.1-1.3-1.6-2
			c-2.7-3.4-4.7-7.4-6-11.8c-0.2-0.8-0.4-1.5-0.5-2.3c-2-2.1-3.7-4.2-5.1-6c-1.1-1.4-2.2-2.7-3.1-3.7c-2.8-3-4.6-6.7-5.2-10.5
			c-1.5-2.3-3-4.8-4.7-7.5c-4.2-6.6-4.2-15,0.1-21.6c0,0,0,0,0-0.1c-2-3.9-2.8-7.5-2.7-10.6c-2.3-0.4-4.6-0.9-6.9-1.5
			c-0.1,0-0.2,0-0.4,0c-1.2,0-2.9-0.1-4.9-0.3c-2,0.6-4,0.9-6,0.9c-3.8,0-7.5-1.1-10.8-3.1c-4.3-1.5-8-4.4-10.5-8.4
			c-2-3.3-3-7-3-10.7v-1.5c-1.1-13.3,6.4-23.3,19.8-26.3c0.2-0.1,0.5-0.2,0.7-0.3c1.7-0.7,4.4-1.8,7.7-2.5c0.2,0,0.4-0.1,0.6-0.1
			c1.5-0.3,3.1-0.4,4.7-0.4c1.9-0.6,4.1-1.2,6.9-1.6c0.1,0,0.1,0,0.2,0c5.3-0.6,10.5-0.9,15.4-1.1c0.1,0,0.2,0,0.3,0
			c3.8-0.1,7.6-0.2,11.3-0.3c3.5-0.1,6.8-0.1,10.1-0.2c0.1,0,0.1,0,0.2,0c3.7-0.1,7.4-0.3,11.3-0.5c5.9-0.3,11.9-0.6,18.2-0.6
			c3.8,0,7.4,0.2,10.8,0.4c3,0.2,5.8,0.4,8.4,0.4c1.8,0,3.9-0.1,6.1-0.2c2.7-0.1,5.4-0.3,8.3-0.3c4.7,0,9.6-0.1,14.2-0.1
			c4.7-0.1,9.5-0.1,14.4-0.1c4.8-0.1,9.6-0.2,14.3-0.2c0.1-3.7,0.1-7.5,0.1-11.5c0-4.7,0-9.6,0.1-14.7c0.1-3.5,1.1-6.7,2.8-9.5
			l-0.4-2.2c-1-4-0.6-7.5,0-10.5c0-1.4,0.1-2.5,0.1-3.4c0-0.1,0-0.2,0-0.4c-0.3-1.3-0.4-2.7-0.4-4v-10c0-0.5,0-1.1,0-1.7
			c-0.1-3.8-0.4-9.4,1.9-15.3c0.1-0.2,0.1-0.4,0.2-0.8c-1.4-2.6-2.2-5.4-2.3-8.5c-0.1-2.5-0.3-4.9-0.5-7.5c-0.1-0.8-0.1-1.7-0.2-2.5
			c-1.8-4-1.9-7.8-1.5-11c-0.7-4.4-0.2-8,0.8-11c0-1.1,0.1-2.3,0.3-3.7c-0.1-1.5-0.1-3.1,0.2-4.6c1-6.5,0.8-13.6,0.5-21.2
			c-0.2-5.7-0.4-11.5-0.1-17.6c-0.7-2.6-1.4-6.2-1-10.4c0.4-5,0.9-10,1.3-14.7c0.4-4.1,0.8-8.3,1.2-12.5c0-0.3-0.1-0.7-0.1-1
			c-0.3-1.8-0.6-4.2-0.6-6.9c0,0,0,0,0,0c-2.4,3.1-4.9,6.2-7.4,9.3c-6,7.4-12.6,14.1-19,20.6c-1.8,1.8-3.5,3.6-5.2,5.4
			c-0.1,0.1-0.4,0.4-0.4,0.4c-0.9,0.9-2.5,2.4-4.7,3.9c-1,1.9-2.1,3.2-2.9,4.1c-0.1,0.1-0.2,0.2-0.3,0.3c-2.6,3.4-6.1,5.8-10.1,7
			c-0.8,0.4-1.8,0.8-2.9,1.1c-2.1,0.7-4.3,1.1-6.4,1.1c-3.6,0-7.1-1-10.3-2.8c-1.6-0.8-4.1-2.1-6.5-4.6c-3.8-4-5.8-9.3-5.6-14.8
			c0.2-5,2.4-9.7,5.9-13.2c0.2-1.1,0.5-2.2,0.9-3.2c0-3,0.7-6.1,2.1-9l3.2-6.3c0.3-0.5,0.6-1.1,0.9-1.6c0.8-1.3,1.6-2.4,2.2-3.5
			c0.6-0.9,1.2-1.7,1.6-2.5c2-3.3,4.9-5.9,8.2-7.5c0.6-1.9,1.7-4.8,3.9-8.3c1.2-2,2.8-3.8,4.7-5.2c8.1-11.4,14.8-21,21.1-30.1
			c4.9-7.2,9.7-14.4,14.6-21.6c4.8-7.2,9.7-14.3,14.5-21.5c2.5-3.6,4.8-7.2,7.3-11c4-6.1,8.1-12.5,12.6-18.7
			c4.5-6.4,9.3-12.6,13.8-18.5c3.4-4.4,6.9-9,10.2-13.5c0.1-0.1,0.2-0.2,0.3-0.4c4.2-5.5,8.5-11.3,12.6-16.9
			c4.2-5.7,8.5-11.6,12.9-17.4c0.1-0.1,0.2-0.3,0.3-0.4c2.2-2.7,4.4-5.4,6.7-8.1c4.4-5.4,8.6-10.4,12.5-15.7
			c3.4-4.7,6.6-9.5,9.9-14.6c2.4-3.7,5-7.5,7.6-11.3c1.7-2.5,3.4-4.8,5.1-7.1c-9,0.3-17.1,1.7-24.8,4.2c-0.1,0-0.1,0-0.2,0.1
			c-4.4,1.4-8.7,2.5-12.8,3.5c-5.1,1.3-9.8,2.5-13.9,4c-14.9,5.6-27.3,10.7-39.1,16.9c-15.4,8.1-30.2,17.6-43.9,28.2
			c-7.8,6-15,12.6-22.7,19.6c-2.7,2.4-5.3,4.9-8,7.3c-0.1,0.1-0.1,0.1-0.2,0.2c-8.9,7.7-17.1,16.6-25.3,27c0,0-0.1,0.1-0.1,0.1
			c-4.8,6-9.1,12.7-13.6,19.9c0,0-1.9,2.9-1.9,2.9c-5.8,8.8-10.6,16.4-15.1,24.2c-1.8,3.2-3.7,6.4-5.5,9.6
			c-6.1,10.7-11.9,20.8-17.1,31.3c0,0.1-0.1,0.1-0.1,0.2c-3.8,7.3-6.8,15.3-10,23.8c-0.6,1.5-1.2,3-1.7,4.6c0,0.1-0.1,0.1-0.1,0.2
			c-2.1,5.3-4.5,11.6-6.6,18.2c-3,9.7-5.4,18.3-7.2,26.1c0,0.1,0,0.1,0,0.2c-0.3,1.5-0.4,4-0.5,6.6c-0.1,2.2-0.1,4.7-0.3,7.3
			c-0.3,5.1-0.9,10.1-1.4,14.2c-0.2,1.7-0.5,3.2-0.7,4.4c-0.1,0.4-0.2,0.9-0.2,1.2c-0.1,5.6-1.7,10.3-3.5,13.8
			c3.4,3.2,5.5,7.6,6,12.3c0.4,3.7,0.6,7.8,0.7,11.8c0.2,4.5,0.4,9.7,0.9,12.7c0,0.1,0,0.2,0,0.2c0.1,0.4,0.5,1.7,0.8,2.6
			c1,3,2.4,7.2,2.6,12.3c1.5,4.6,1.7,8.7,1.1,12.4c3.9,5.5,4.7,12.6,2.2,18.9c-0.1,0.5-0.3,1-0.4,1.4c-1.3,3.9-3.8,7.3-7,9.6
			c-1.6,7.8-7.7,14.1-15.8,15.7c-1.3,0.3-2.6,0.4-3.9,0.4c-8,0-15.4-4.8-18.5-12.4c-2.1-5.1-3-9.9-3.8-13.7
			c-0.2-1.1-0.4-2.1-0.7-3.2c-5-4-7.9-10.2-7.6-16.7c0-0.1,0-0.2,0-0.2c-0.5-1.7-1-3.9-1.1-6.4c-0.2-3.2-0.7-4.8-1.1-5.6
			c-1.7-3.5-2.4-7.2-2.1-11.1c-0.9-1.8-1.7-3.6-2.1-5.6c-0.6-2.9-0.7-5.8-0.2-8.7c-0.5-1.7-0.8-3.5-0.9-5.7c0-0.2-0.1-0.4-0.1-0.6
			c-0.3-1.1-0.6-2.5-0.9-4.2c0-0.2-0.1-0.4-0.1-0.6c-1.3-3.2-1.7-6.3-1.5-8.9c-0.1-0.4-0.1-0.9-0.2-1.3c-0.5-1.6-0.9-3.2-1.1-4.8
			c-1.3-3.4-2-7.4-1.6-12.4c-1-10.5-2.1-21.3-1.8-32.7c0.3-11.9,1-26.1,4.9-40.3c3.7-14,7.7-28.2,10.8-39.1c2-7.5,4.5-14.5,7.5-20.8
			c2.7-5.9,5.5-11.4,8.3-16.8c1.3-2.5,2.6-5,3.8-7.5l0.1-0.3c2.6-5.3,5.3-10.7,8.4-16.2c6.2-11.2,14.6-26,25-40.1
			c1.3-1.7,2.5-3.4,3.7-5.2c3.7-5.2,7.6-10.5,11.7-15.8c5-6.2,10.1-12.1,15-17.7c1.6-1.9,3.3-3.8,4.9-5.7c1.1-1.3,2.2-2.8,3.4-4.3
			c2.6-3.4,5.6-7.2,9.3-10.9c0.1-0.1,0.2-0.2,0.2-0.2c7.3-7.1,16.1-15.3,25.5-22.7c8-6.3,16.8-12.7,27.8-20.1
			c1.4-0.9,2.7-1.8,4.1-2.7c8.4-5.6,17.1-11.5,26.4-16.6c0,0,0.1-0.1,0.1-0.1c9.2-5,19.4-9.7,31.9-14.9c0.2-0.1,0.3-0.1,0.5-0.2
			c12.1-4.6,23.8-8.6,34.7-12c5.6-1.8,10.9-2.7,15.5-3.5c2-0.3,3.9-0.6,5.6-1c0.2,0,0.4-0.1,0.6-0.1c0.6-0.1,1.7-0.4,2.7-0.7
			c1.6-0.4,3.7-1,6-1.4c0.1,0,0.3,0,0.4-0.1c2.5-0.4,5-0.8,7.5-1.3c5.8-1,11.8-2,17.9-2.8c0.1,0,0.1,0,0.2,0c4.7-0.6,9.3-1,13.7-1.4
			c4.2-0.4,8.1-0.7,12-1.2c1.8-0.3,3.6-0.6,5.4-0.8c5.4-0.8,10.9-1.7,16.6-2.4c9.2-1.3,17-2,24.5-2.2c1.2-0.1,2.5-0.1,3.8-0.1
			c3.5,0,7,0.2,10,0.4c1,0.1,2.1,0.1,3.1,0.2c3.2,0.1,6.4,0.1,9.7,0.2c6.8,0.1,13.7,0.2,20.7,0.6c7.5,0.3,15.2,1.2,21.5,1.9
			c3.2,0.3,6.5,0.6,10,0.9c7.3,0.6,14.9,1.2,22.6,2.4c8.4,1.2,19.4,2.9,30.2,5.7c7.1,1.8,13.6,4,20,6.1c3,1,5.8,2,8.6,2.9
			c4.3,1.3,8.4,2.8,12.2,4.2c2.1,0.8,4.2,1.5,6.2,2.3c0.5,0.2,0.9,0.3,1.4,0.5c1.2,0.4,2.3,0.8,3,1c10,2,18.3,6.1,25.6,9.7
			c1.6,0.8,3.2,1.6,4.9,2.4c1.9,0.9,3.8,1.7,5.7,2.6c5.7,2.6,11.7,5.3,17.6,8.6c10.4,5.8,20,12.3,27.3,17.2
			c10.2,6.8,22.3,15.1,33.9,24.4c7.3,5.9,15.7,13.1,21.8,22.5c3.4,5.2,7.8,10.1,12.4,15.3c4.6,5.3,9.4,10.8,13.9,17.1
			c0.1,0.1,0.1,0.2,0.2,0.3c3.1,4.5,6.3,9.2,9.5,13.6c9.6,13.6,19.5,27.8,27.7,43.4c6.5,12.4,11.5,25.1,16.3,37.4l0.9,2.2
			c0.1,0.2,0.1,0.3,0.2,0.5c3.9,10.6,8.3,22.6,11,35.5c3.3,14.2,5.2,28.6,7,42.6l0.1,1c0,0.2,0,0.4,0.1,0.6
			c0.9,8.3,1.2,16.5,1.6,24.5c0.1,2.1,0.2,4.3,0.3,6.4c0,0.4,0.1,0.7,0.1,1.1l0.1,2.8c0.5,9.2,0.9,18.7,1.2,28
			c0,1.3,0.1,2.6,0.1,3.9c0.3,10.4,0.5,21.2-0.9,33.1c-0.2,6.2-0.9,11.9-1.5,17.5c-0.2,1.8-0.4,3.7-0.6,5.6c0,0.1,0,0.2,0,0.3
			c-0.3,2.5-0.6,5-0.9,7.5c-1,8.4-2,17.1-3.5,25.9c0,0.1,0,0.2-0.1,0.3c-0.4,2.2-0.8,4.4-1.2,6.7c-1.6,9.7-3.5,20.7-8,31.2
			c0,0.1,0,0.1-0.1,0.2c-1.7,3.8-3,8.2-4.4,12.9c-1,3.4-2.2,7.2-3.5,11c0.3,0.5,0.6,1.1,0.9,1.6c0.2,0.4,0.4,0.7,0.7,1
			c0.5,0.7,0.9,1.4,1.4,2.2c0.3,0.5,0.6,1,0.8,1.5l0.1,0.2c0.2,0.4,0.5,0.9,0.6,1.3c0.1,0.2,0.2,0.3,0.3,0.5
			c0.1,0.1,0.2,0.2,0.3,0.4c0.9,1,2.4,2.6,3.7,4.7c0.2,0.3,0.4,0.6,0.5,0.9c0.9,1.6,1.6,3,2,4c0.1,0.1,0.1,0.3,0.2,0.4
			c2.7,4.7,3.4,10.3,1.9,15.5c-1.5,5.4-5.2,9.8-10.2,12.3l-0.5,0.3c-2.3,1.2-5.8,3-10.2,3.7c-0.3,0.1-0.6,0.1-0.9,0.1
			c-3.8,0.4-7.6,0.8-11.3,1.1c-0.3,0-0.7,0.1-1,0.1c-0.9,1.6-1.7,3.3-2.6,4.9c-2.2,4.2-4.5,8.6-7,12.9l-1.7,3.2
			c-6,10.8-12.1,21.9-19.2,32.8c-5.8,9-12.5,16.8-18.9,24.4l-0.4,0.5c-6.7,8-14.2,16.1-22.8,24.8c-4,4.2-8.1,7.6-12.1,10.8
			c-2.1,1.7-4,3.3-5.9,5c-2.2,3.8-5.7,7.2-10.6,9.1c-1.8,1.4-3.5,2.7-5.3,4c-4.1,3.1-8,6-10.6,9c-0.5,0.6-1,1.2-1.6,1.7
			c-1.6,2.1-3.5,3.9-5.9,5.2c-3.4,2-7.1,4.1-11.2,6.1c-2.3,1.1-4.6,1.7-6.7,2c-1.6,0.9-3.2,1.8-4.7,2.6c-2.4,1.3-4.8,2.7-7.2,4
			c-3.8,5.3-9.4,8.9-15.9,10.1c-0.2,0.1-0.4,0.3-0.6,0.4c-2.7,1.7-5.7,2.8-8.9,3.1c-0.1,0.1-0.2,0.1-0.4,0.2
			c-2.7,1.4-5.7,3.1-9.1,4.5c-0.2,0.1-0.4,0.2-0.6,0.3c-3.2,1.3-6.3,2.2-8.9,3l-0.2,0.1c-0.8,0.3-1.7,0.6-2.6,0.8
			c-4.6,5-10.8,7-16,7c-1.4,0-2.8-0.1-4.3-0.4c-0.6,0.7-1.2,1.3-1.8,1.8c-2.6,5.3-7.4,9.2-13.1,10.6c-4.4,1.1-8.8,2.2-13.4,3.3
			c-4.2,1-8.6,2.1-13.2,3.3c-1.2,0.3-2.5,0.5-3.7,0.6c-1.2,0.4-2.6,0.8-4.2,1.1c-2.7,0.5-5.3,0.8-8,1c-2.2,0.9-5,1.6-8.4,1.6
			c-0.5,0-1,0-1.5,0c-4.5,2.9-9,3.3-11.3,3.3c-1.2,0-2.6-0.1-4-0.4c-8.6,2.2-17.5,3.3-26.7,3.3c-2.1,0-4.3-0.1-6.4-0.2
			C488.4,858.5,483.8,859,479,859z M440.9,780.1c1.8,0.4,3.7,0.7,5.5,1.1c3.5,0.7,6.7,1.4,9.8,1.8c0.5,0,1.4-0.1,2.2-0.2
			c1.5-0.1,3.5-0.3,5.6-0.3c2.3,0,4.5,0.1,6.6,0.2c1.8,0.1,3.5,0.1,5,0.1c0.4,0,0.8,0,1.2,0c2.8-0.3,5.7-0.8,8.7-1.3
			c3.4-0.5,7-1.1,10.7-1.5c5.9-0.8,11.9-1.5,17.6-2.1c5.8-0.7,11.3-1.3,16.9-2.1c0.1,0,0.3,0,0.4-0.1c2.2-0.3,4.8-0.8,7.5-1.3
			c1.6-0.3,3.2-0.6,4.7-0.9c0.4-0.1,0.8-0.1,1.3-0.2c1.2-0.1,2.5-0.2,3.9-0.2c0.7,0,1.4,0,2.1,0c5.8-1.2,10.8-2.6,15.2-4.1
			c3.4-1.2,7.1-2.9,11.3-4.8c2.7-1.2,5.7-2.6,9.1-4c0.2-0.1,0.4-0.2,0.7-0.3c3.1-1.2,6.3-2.4,9.4-3.5c5.7-2.1,11-4.1,16.1-6.2
			c0.5-0.3,1.5-1.1,2.2-1.7c1.3-1.1,2.9-2.3,4.7-3.5c0.3-0.2,0.7-0.5,1.1-0.7c2.4-1.4,4.8-2.7,7.1-4.1c2.5-1.4,5-2.8,7.6-4.3
			c2.3-1.3,4.5-2.5,6.6-3.6c2.7-1.4,5.3-2.8,7.4-4.2c8.7-5.8,17.7-12.1,25.7-17.7c5.8-4.1,12.7-9,19.1-14.4c2.2-1.8,4.5-4.2,6.9-6.7
			c1.9-2,3.8-4,6-6c2.8-2.8,5.9-5.9,9.9-8.7c0.1-0.1,0.3-0.2,0.4-0.3c2.1-1.4,4.3-4.2,6.9-7.5c1.4-1.7,2.9-3.7,4.5-5.6
			c0.5-1.2,1.3-2.8,2.5-4.5c0.4-0.5,0.7-1,1-1.5c0.4-0.9,0.8-1.8,1.3-2.7c0.2-0.9,0.5-1.9,0.8-2.8c0.6-3.9,2.2-7.5,4.8-10.6
			c0.7-2.1,1.7-4.2,3.2-6.3c-0.8,0-1.6,0-2.4,0.1c-3.4,0.1-6.6,0.1-9.8,0.1c-2.9,0-5.6,0-8.2,0.1c-0.1,0-0.2,0-0.3,0
			c-5.2,0.1-10.4,0.5-16,1c-3.7,0.3-7.6,0.6-11.5,0.8c-5.8,0.5-15.4,0.8-17.3,0.8l-16.4,0.8c-0.1,0-0.3,0-0.4,0
			c-5,0.1-10.2,0.3-15.1,0.5c-4.7,0.2-9.5,0.4-14.3,0.5c-4.7,0.1-9.3,0.1-13.8,0.2c-6.7,0-13,0.1-19.2,0.4c-0.2,0-0.3,0-0.5,0
			c-8.6,0.2-16.9,0.8-25.8,1.4c-3,0.2-6.1,0.4-9.1,0.6c-0.1,0-0.1,0-0.2,0c-4.8,0.3-9.7,0.5-14.4,0.7c-4.7,0.2-9.6,0.4-14.3,0.7
			c-0.1,0-0.2,0-0.3,0c-3.7,0.2-7.7,0.5-11.9,0.9c-2.1,0.2-4.2,0.4-6.3,0.6l-0.4,0c-5.2,0.5-10.6,1-16.2,1.3
			c-3.1,0.2-6.3,0.4-9.5,0.6c-6.7,0.4-13.6,0.8-20.4,1l-4.1,0.1c-7.1,0.2-14.5,0.4-22,0.4c-5.5,0.1-11.1,0.2-16.6,0.2
			c-5.8,0.1-11.8,0.1-17.7,0.3l-29.9,0.8c-4.8,0.1-9.9,0.3-14.7,0.5c-4.8,0.2-9.8,0.4-14.7,0.5c-8.2,0.2-16.6,0.4-24.7,0.6
			c-8.7,0.2-17.8,0.4-26.6,0.7c-0.2,0-0.4,0-0.6,0h-19.2c-0.8,0-1.8,0.1-2.9,0.1c-1.4,0.1-3,0.2-4.7,0.2c-0.2,0-0.3,0-0.5,0
			c-3.6-0.1-7.2-0.2-10.8-0.3c-7.8-0.2-15.2-0.5-22.6-0.5c-3.6,0-7.2,0.2-11.1,0.4c-4.2,0.2-8.5,0.4-13.1,0.4
			c-8.2,0-16.3-0.4-24.2-0.8c2.3,3.1,4.7,6.1,7.1,9c0.5,0.5,0.9,1.1,1.4,1.7c0.8,1,2.1,2.5,2.7,3.1c5.9,2.4,9.5,6.3,11.7,8.7
			c0.3,0.3,0.7,0.7,0.8,0.9c0.6,0.5,1.2,1.1,1.8,1.6c0.3,0.3,0.8,0.7,1.1,1c2.5,1.2,4.5,2.6,6.1,4.2c4.8,2.5,8.5,6.8,10.4,12
			c2,1.2,3.9,2.4,5.8,3.4c7.9,4.2,14.2,9.2,19.2,15.2c0,0,0,0,0,0c0.3,0.2,0.8,0.6,1.2,0.8c1.2,0.8,2.7,1.9,4.4,3.2
			c2.5,2,5.7,3.8,9.4,5.8c2.5,1.4,5.3,3,8.2,4.7c3.4,0.3,6.7,1.4,9.6,3.3c0,0,7.2,4.8,7.3,4.9c0.6,0.4,1.1,0.8,1.5,1.1
			c1.5,0.9,3.1,1.7,4.7,2.6c2.4,1.4,4.7,2.7,7.1,3.9c1.4,0.1,2.7,0.4,4.1,0.9c1.2,0.4,2.3,0.8,3.1,1.1c0.3,0.1,0.5,0.2,0.7,0.3
			c7.9,1.2,13.9,4.9,17.9,7.4c1.1,0.7,2.4,1.5,3.1,1.8c3.6,1.4,6.3,3.4,8,4.7c2.9,1.2,5.2,2.7,6.9,3.8c2.6,0.4,5.8,1.3,9,3.6
			c4,0.6,7.2,1.9,9.6,2.8c0.5,0.2,1.1,0.4,1.6,0.6c0.1,0,0.3,0.1,0.4,0.1c1.5,0.6,6.4,0.6,8.5,0.6c3.5,0,6.9,0.9,9.9,2.6
			c0.5,0.3,0.8,0.4,0.9,0.5c1.8,0.4,3.5,0.8,5.2,1.2c2.5,0.6,5,1.1,7.5,1.7c0,0,0.1,0,0.1,0c1.8,0.4,3.4,0.9,4.7,1.3
			c0.2,0.1,0.5,0.2,0.8,0.2c0.2,0,0.5,0,0.7,0c4.2,0,7.7,0.8,10.3,1.5c0.1,0,0.3,0,0.5,0c1,0,2,0.1,2.9,0.2c1.3,0.1,2.4,0.3,3.4,0.6
			c0.7,0,1.4,0.1,1.9,0.1c1.2-0.2,2.4-0.3,3.6-0.3c2.9,0,5.4,0.5,6.7,0.8L440.9,780.1z M594.6,575.1c-1.2,1.3-2.4,2.6-3.6,4
			c1.4,0,2.7-0.1,4.1-0.1C594.9,577.7,594.8,576.4,594.6,575.1z M666.8,566.8c-0.1,2.5-0.3,5-0.4,7.5c-0.1,1-0.1,2.1-0.2,3.1
			c6.5-0.2,13.2-0.4,19.9-0.7c1.2-0.1,2.7-0.3,4.3-0.5c3.1-0.4,6.5-0.8,10.3-0.9c13.8-0.2,27.9-0.2,41.5-0.2c4.8,0,9.7,0,14.5,0
			c-3.6-5-7.3-10.1-10.8-15.1l-0.2-0.3c-2.1-2.8-4.2-5.6-6.5-8.6c-2.3-3-4.7-6.2-7-9.3l-0.5-0.7c-5.1-6.6-10.3-13.5-15.4-20.6
			c0,0,0-0.1-0.1-0.1c-6.4-9.2-11.8-17.3-16.6-24.8c-3.6-5.5-7.3-11.1-10.8-16.6c-3.3-5.2-6.8-10.5-10.2-15.8c0,0-0.1-0.1-0.1-0.1
			c-1.5-2.3-3-4.6-4.5-7c-1.7-2.7-3.4-5.4-5.2-8.1c0,1.2,0.1,2.3,0.1,3.4c0,0.8,0.1,1.6,0.1,2.3c0.3,1.4,0.5,2.8,0.5,4.3v2.6
			c0,3.5-0.9,7-2.6,9.9v0.7c2.2,3.3,3.4,7.2,3.4,11.2c0,2.4-0.4,4.8-1.3,7c-0.5,1.4-1.1,2.8-1.9,4.1v0c0,0,0,0.1,0,0.1
			c0.1,0.1,0.3,0.7,0.5,1.2c0.7,1.5,1.6,3.5,2.3,6c0.9,3,1,6.1,0.4,9c0.8,2.5,1.4,5.3,1.5,8.6c0.5,3,0.7,5.8,0.7,8.1
			c0.4,1.7,0.7,3.3,0.7,5c0.5,2,0.7,4.1,0.6,6.2c0,0.3,0,0.6-0.1,0.9c0.1,0.5,0.2,1,0.2,1.5c1.3,3.9,1.4,8.1,0.3,12.4
			c-0.3,2.8-1.1,5.6-2.6,8.1C670.5,563.3,668.8,565.2,666.8,566.8z M436.8,564.8c6.2,0.5,12.3,0.7,18.5,0.7c1.3,0,2.6,0,3.9,0
			c1.2,0,2.4,0,3.7,0c4.1,0,8.4-0.1,12.2-0.6c0.2,0,0.3,0,0.5-0.1c6.2-0.7,12.8-2.4,19.7-4.2c1.2-0.3,2.4-0.6,3.7-0.9
			c0.2,0,0.4-0.1,0.6-0.1c3.6-0.9,7.1-1.9,9.2-3.3c0.3-0.2,0.5-0.3,0.8-0.5c6.2-3.4,12.5-7.8,19.9-13.3c0.3-0.2,0.6-0.4,0.9-0.6
			c0.6-0.4,2.1-2.2,3.2-3.6c0.9-1.2,1.8-2.7,2.9-4.3c1-1.7,2.2-3.5,3.6-5.4c1.5-2.3,2.9-4.2,4.3-6c1-1.3,2.3-3.1,2.7-3.8
			c0.1-0.2,0.1-0.3,0.2-0.5c2.8-5.6,5.2-11.6,7.6-17.9c-1.4-4.7-1-9.9,1.3-14.5c0.8-1.7,1.6-3.1,2.4-4.3c0.4-0.8,1-1.7,1.2-2.2
			l0.2-0.4c2.3-5.3,4.1-9.5,4-12.8c-0.4-5.1,0.4-9.5,1-12.8l0.3-1.9c0.8-5.2,1.7-10.6,2.7-16c-0.4-1-0.8-2.3-1.1-3.7
			c0-0.2-0.1-0.3-0.1-0.5l-3.8-17c-1.2-4.3-4.5-8.8-8.4-14c-1.2-1.6-2.4-3.2-3.5-4.8c-0.1-0.1-0.1-0.1-0.2-0.2
			c-3.6-5.2-7.4-9-11.7-11.6c-5.3-3.1-10.2-6.5-14.8-9.8c-2.8-2-5.5-3.9-8.2-5.6c-0.1-0.1-0.2-0.2-0.4-0.2
			c-3.7-2.6-7.3-4.7-10.7-6.6c-3.2-1.6-6.4-2.9-9.1-3.8c-1.9-0.6-3.4-1-4.8-1.1c-4.9-0.3-9.8-0.4-15.1-0.5c-2.4-0.1-4.9-0.1-7.3-0.2
			c-0.1,0-0.2,0-0.3,0c-0.2,0-0.3,0.1-0.5,0.1c-3.7,0.9-7.7,2.2-11.5,3.4c-3.8,1.2-6.7,1.2-8.2,1.2c-0.3,0-0.5,0-0.8,0
			c-6.4,2.8-13,5.8-19.4,8.7c-1.5,2.7-3.7,5.1-6.4,6.9c-1,0.7-2.2,1.4-3.4,2.2c-1.3,0.8-3.2,2-3.9,2.5c-2.2,1.7-4.6,2.9-7.1,3.5
			c-4.6,5-9.9,8.4-14.7,11.1c-0.9,1.6-2.1,3.7-3.8,5.8c-0.1,0.2-0.3,0.3-0.4,0.5c-2,2.4-4,4.5-5.9,6.4c-1.2,8.4-6.2,16.1-13.5,20.6
			c-0.2,0.5-0.5,0.9-0.7,1.4c-0.6,1.9-1.4,3.7-2.5,5.4c-0.4,1.9-0.9,3.5-1.6,5c0.5,3.8-0.2,7.8-2,11.5l-0.1,0.3
			c-0.3,0.6-0.7,1.5-1.3,2.6c-0.4,4.6-1.4,9.1-3,13.2c-2,5.3-5.5,8.7-8.4,10.8c0,2.6,0,5.3,0,8c2.7,2.1,4.8,4.9,6.1,8.1l1.8,4.4
			c0.3,0.3,0.6,0.7,0.9,1c2.7,3.2,4.6,6.4,6.2,8.9c0.5,0.8,1.1,1.7,1.6,2.5c0.5,0.7,1.6,2,2.4,3c0.5,0.6,0.9,1.2,1.4,1.8
			c1.1,1.7,1.8,3.3,2.4,4.6c1.7,3.1,3.4,6.1,5.1,8.8c0.3,0.5,0.6,1,0.9,1.6c0.4,0.9,0.9,1.8,1.4,2.8c0.1,0.1,0.2,0.2,0.4,0.3
			c3.7,3.1,7.9,6.5,11.6,11.1c2.4,3,6.6,5.3,10.8,7.4c3.6,1.8,7.4,3.5,11.3,5.2c2.4,1,4.8,2.1,7.3,3.2c0,0,0.1,0,0.1,0.1
			C425.1,563.6,430.5,564.2,436.8,564.8z M737,420.9c2.8,4,5.4,8,7.9,11.9c4.1,6.3,7.9,12.2,12.2,17.6
			c10.4,13.4,19.7,27.3,28.6,42.6c0.2,0.4,0.4,0.7,0.6,1.1c0.8,1.5,1.7,3.1,2.7,4.7c1.3-1.5,2.7-2.7,4.3-3.8c0-2.2,0.2-4.6,0.6-7.1
			c0.2-1.1,0.2-3,0.2-4.9c0-3.9,0.1-8.9,1.4-14.4c0-0.5,0-1.1,0.1-1.6c0.1-1.1,0.3-2.1,0.4-3.1c-2-3.2-3.2-6.9-3.2-10.8v-13.5
			c0-3.2,0.7-6.2,2-8.8c-1.4-2.8-2.1-5.9-2-9.2c-0.1-0.3-0.1-0.7-0.2-1c-0.5-2.6-1.4-6.5-1-11.1c0.4-5.5,3-10.4,7-13.7
			c0-0.7,0-1.3,0-2c0-4.3-0.1-8.8-0.5-13.2c-0.8-1-1.5-2.1-2.1-3.3c-0.2-0.4-0.5-1-0.9-1.7c-1.2-1.7-2.1-3.5-2.7-5.5
			c-0.8-2.6-1.2-5.2-1.1-7.8c0-0.1-0.1-0.2-0.1-0.3c-1.6-5.5-1.6-10.5-1.6-14.1c0-1.1,0-2.6-0.1-3.2c-1.2-3.9-1.5-7.4-1.8-10.2
			c-0.1-1.1-0.3-2.6-0.4-3.1c-0.1-0.3-0.1-0.5-0.2-0.8c-1.3-6-2.7-11.7-4.2-16.8c-1.2-3.6-2.3-7.1-3.5-10.6
			c-1.5-4.4-2.9-8.8-4.3-13.3c-0.4-1.2-0.8-2.4-1.2-3.7c-1.2-3.7-2.3-7.1-3.5-9.5c-2-3.6-4.6-7.3-7.3-11.2c-1.4-2-2.8-4-4.2-6.2
			c-0.7-1-1.3-2-1.9-3c-0.7-1.1-1.6-2.4-2-2.9c-0.1-0.2-0.3-0.3-0.4-0.5c-3.2-3.8-6.5-7.7-9.6-11.4c-3.4-4-6.9-8.2-10.4-12.3
			c-2.1-2.6-4.2-5.1-6.2-7.6c-5.3-6.5-10.2-12.6-15.5-18.6c-6.2-6.9-12.6-13.6-19.4-20.6c0,0-0.4-0.4-0.5-0.5
			c-1.5-1.5-2.8-3.1-3.9-4.4c-2.3-2.6-4.2-4.9-5.8-5.7c0,0-0.1,0-0.1-0.1c-17.1-9.5-37.6-20.3-59.5-29.3c0,0-0.1,0-0.1,0
			c-1.9-0.8-3.8-1.6-5.7-2.4c-7.5-3.1-14.5-6.1-21.5-8.4c-0.1,0-0.1,0-0.2-0.1c-17.8-5.9-33.5-10-48-12.4c-3.2-0.5-6.4-1.1-9.5-1.6
			c-4.9-0.9-9.4-1.7-13.9-2.3c-1.1-0.1-2.1-0.3-3.2-0.4c4.8,6.3,9.7,12.8,14.6,19.2c5.3,7.1,10.4,14.3,15.4,21.2
			c2.5,3.5,5.1,7.1,7.6,10.6c3.5,4.7,7.1,9.5,10.6,14.1c3.3,4.4,6.6,8.7,9.9,13.2c7.9,10.6,16.8,22.6,25.3,34.6
			c3.1,4.3,5.9,8.6,8.7,12.8c4.9,7.4,9.6,14.4,14.9,20.6c1.5,0,3.1,0,4.9,0c2.7,0,5.4,0,8,0.1c2.5,0,5,0.1,7.4,0.1
			c8.1,0,15.4,4.9,18.5,12.4c1.9,4.5,2,9.5,0.5,14v3.1c0,3.3-0.1,6.3-0.3,9.2c-0.1,2.3-0.2,4.4-0.2,6.4c0.2,3.8,0.5,7.7,0.9,11.9
			c1.2,1.8,2.4,3.5,3.5,5c0.1,0.1,0.1,0.2,0.2,0.3c1.5,2.2,3,4.4,4.6,6.5c4.6,6.6,9.4,13.4,14,20.4c0,0.1,0.1,0.1,0.1,0.2
			c3.6,5.6,6.9,11.3,10.1,16.8c3.3,5.5,6.3,10.7,9.6,15.9c0,0.1,0.1,0.1,0.1,0.2c0.6,0.9,1.7,2.2,2.9,3.6c1.1,1.3,2.3,2.7,3.5,4.3
			c0.2,0.3,0.4,0.6,0.6,0.8c3.2,4.7,6.3,9.3,9.5,13.9C730.2,410.8,733.6,415.8,737,420.9z M589.4,335.8c1.4,1.5,2.8,3,4.1,4.4
			c0-1,0-1.9,0-2.9c-0.3-0.5-0.7-1.1-1-1.6C591.4,335.8,590.4,335.8,589.4,335.8z M353,272.2c3.4-0.1,6.8-0.3,10.3-0.4
			c0.2,0,0.3,0,0.5,0c8.2-0.2,16.2-0.7,24.6-1.2l2-0.1c2.3-0.2,4.6-0.4,7.1-0.6c5.4-0.5,11.1-1,17.1-1c23.5,0,43.1-0.3,62.5-2
			c0.1,0,0.1,0,0.2,0c5.4-0.4,11-0.9,16.5-1.4c11.4-1,23.2-2,34.9-2.6c0,0,0.1,0,0.1,0c2.6-0.1,5.2-0.2,8.1-0.2c1.7,0,3.5,0,5.2,0.1
			c0,0,0,0,0,0c-5.2-7.6-10.2-15.3-15.1-22.7c-4.7-7.1-9.5-14.5-14.4-21.7c0-0.1-0.1-0.1-0.1-0.2c-6.4-9.7-13.2-19.5-19.9-28.9
			c-3.2-4.4-6.3-8.9-9.3-13.2c-2.8-3.9-5.6-8-8.5-12c-3.5-4.8-7.2-9.4-11.1-14.3c-1.3-1.6-2.5-3.1-3.8-4.7c-2.6-3.2-5.1-6.5-7.6-9.7
			c-2.9,3.7-5.5,7.3-7.3,10.9c-0.2,0.5-0.5,1-0.8,1.4c-1.8,2.9-3.7,5.2-5.1,6.8c-0.5,0.6-1.2,1.4-1.4,1.7c-2.5,3.5-4.9,7.1-7.4,10.7
			c-1.8,2.7-3.7,5.3-5.5,8c-0.2,1.6-0.7,3.2-1.3,4.8c-0.5,1.3-1.1,2.4-1.6,3.4c-0.5,1-0.9,1.8-1.2,2.7c-1.6,4-4.5,7.3-8.1,9.5
			c-1.5,2-3,3.9-4.5,5.7c-1.6,1.9-3,3.8-4.4,5.6c-2,2.7-4.7,4.8-7.7,6.2c-0.5,0.6-1,1.3-1.5,1.9c-0.7,1-1.5,2.1-2.3,3.2
			c-0.2,1-0.4,2-0.8,3.1c-0.4,1.2-0.9,2.4-1.5,3.5c-1.8,3.1-3.6,5.5-5.1,7.4c-0.3,0.4-0.6,0.8-0.9,1.2c-0.1,0.1-0.2,0.3-0.3,0.4
			c-2.2,2.8-4.2,5.2-6.1,7.3c-2.2,4.2-5,6.9-7.8,8.8c-0.2,0.3-0.4,0.7-0.6,1c-0.5,0.9-1.1,1.7-1.6,2.5c-1.3,2.6-3.1,5-5.5,6.9
			c-0.3,0.3-0.7,0.5-1,0.7c-0.6,0.9-1.2,1.8-1.9,2.8c-1.2,1.8-2.6,3.9-4.2,6C354.2,270.4,353.6,271.3,353,272.2z" />
      <path class="st1" d="M457.2,59.8c4.1,0,8.3,0.4,12.3,0.6c10,0.3,20.3,0.3,30.3,0.8c6.6,0.3,13.4,1,20.3,1.8
			c10.5,1,21.3,1.6,31.8,3.1c9.5,1.3,19,2.9,28.1,5.3c9.5,2.4,18.4,5.8,27.6,8.7c6.1,1.9,11.8,4.2,17.9,6.3c2.4,0.8,4.5,1.6,6.9,2.1
			c9.5,1.8,17.6,6.6,26,10.5c7.4,3.4,15,6.6,22.1,10.6c9,5,17.4,10.5,25.8,16.3c11.1,7.4,22.1,15,32.6,23.5
			c6.6,5.3,13.2,11.1,17.6,17.9c7.9,11.9,18.4,21.3,26.6,32.9c12.4,18.2,25.8,35.6,36,55.1c6.3,12.1,11.3,25,16.3,37.7
			c4,10.8,7.9,21.6,10.3,32.9c3.2,13.7,5,27.9,6.8,41.9c1.1,10.3,1.3,20.5,1.8,30.8l0,0c0.5,10,1,20.3,1.3,30.3
			c0.3,11.3,0.8,22.7-0.8,34.8c-0.2,7.6-1.3,15-2.1,22.7c-1.3,10.8-2.4,21.6-4.2,32.4c-2.1,11.3-3.4,23.2-7.9,33.7
			c-4.5,10.3-6.3,21.3-11,31.6c-0.3,0.8,0.3,2.1,0.5,2.9c1.3,3.1,2.9,6,4.5,8.9c0.8,1.3,1.6,2.4,2.4,3.7c0.8,1.6,1.6,3.2,2.6,4.5
			c1.1,1.6,2.6,2.9,3.7,4.5c0.8,1.3,1.3,2.9,2.1,4.2c-1.6,0.8-3.4,1.8-5,2.1c-6.8,0.8-14,1.3-21.1,2.1c-0.8,0-1.9,1.1-2.4,1.9
			c-4.8,8.4-9,16.9-13.7,25.3c-6.6,11.9-12.9,23.5-20.3,34.8c-5.3,8.2-11.6,15.5-17.9,22.9c-6.8,8.2-14.2,16.1-21.8,23.7
			c-5.3,5.5-11.6,10-17.4,15.3c-1.3,1.1-2.4,2.6-3.4,4c0,0.5,0,1.3-2.9,1.6c-6.6,5.8-15.3,10.8-21.6,18.2c-1.6,0.5-2.4,0.8-5,1.3
			c0,0,1.8,1,2.6,1.3c-3.1,1.8-6.3,3.7-9.8,5.3c-0.5,0.3-1.6,0.3-3.7,0.3c-5.8,3.2-11.3,6.3-17.1,9.5c-1.3,0.8-2.6,1.8-4.5,3.2
			c-0.9,2.9-3,4.3-5.9,4.3c-0.5,0-1,0-1.5-0.1c-0.1,0-0.1,0-0.2,0c-0.8,0-1.9,1.5-4.6,3.2c-0.7,0-1.5-0.1-2.2-0.1
			c-0.4,0-0.7,0-0.9,0.1c-4.2,2.1-8.2,4.5-12.4,6.3c-2.6,1.1-5.3,1.8-7.9,2.6c-2.4,0.8-4.5,1.6-9.5,1.6c-1.1,2.1-0.5,5.3-3,5.3
			c-0.4,0-0.9-0.1-1.5-0.3c-0.8-0.2-1.8-0.2-3.4-0.5c2.3-1.3,3.9-2.1,5.2-3.7c-8.9,3.9-18.2,7.9-27.1,12.4c2.6-0.5,5.3-1.3,7.9-2.1
			c-2.1,3.2-8.2,1.3-5.3,6.8c-8.4,2.1-17.1,4.2-26.6,6.6c1.3-1.6,2.4-4,3.2-4h-3.7c1,0,1.6-1,2.1-1.8c-2.9,1.3-5.8,2.6-9,4.2
			c1.6,0,3.7,0.3,5.8,1.3c-1.8,0.5-3.4,1.3-5,1.6c-2.9,0.5-5.8,0.8-9,0.8c-1.5,0-2.3,1.5-4,1.5c-0.3,0-0.7-0.1-1-0.2
			c-0.5-0.2-1.1-0.3-1.7-0.3c-1.8,0-3.9,0.7-5.6,1.1c-1.1,0.3-2.4,0.5-2.9,1.3c-0.6,1-1.1,1.3-1.5,1.3c-0.7,0-1.3-1-1.9-1.9
			c-9,3.2-18.4,4.8-28.8,4.8c-2.6,0-5.3-0.1-8.1-0.3c-3.8,1-7.9,1.5-12.1,1.5c-4.5,0-9.3-0.5-14.2-1.5c1-0.8,1.8-1.1,2.4-1.3
			c0.5-0.3,0.8-0.3,0.5-2.6c-1.1,0.2-2.4,0.2-4.7,1.3c-0.7-1.3-1.6-1.6-2.5-1.6c-1,0-2,0.3-2.8,0.3c-1,0.1-2.1,0.1-3.1,0.1
			c-6.3,0-12.4-1.2-18.8-1.4c-2.1,0-4.2,0-6.1,0.5c-0.8,0.1-1.5,0.5-2.2,0.5c-0.6,0-1.1-0.3-1.8-1.3c-0.2-0.2-0.5-0.3-1-0.3
			c-0.8,0-2,0.2-3.2,0.2c-0.5,0-1.1,0-1.6-0.2c-2.1-0.3-4-0.5-5.8-0.8c-8.4-1.6-17.1-3.1-25.5-5c-5.5-1.3-11.1-3.7-16.6-5.3
			c-6.3-1.6-12.4-2.9-18.7-4.2c-17.1-4-33.7-9.5-49.2-17.7c-12.9-6.8-25-14.5-37.6-21.6c-10.2-5.8-20.5-12.1-29.8-19.8
			c-4.7-4-9.2-8.4-14.2-12.7c-3.7-2.9-6.1-6.3-8.7-10c-0.5-0.5-1.3-1-2.6-2.1c0,1.3,0.2,2.1-0.8,2.6c0-1.1-0.3-2.4-0.3-3.7
			c-1,0.9-1.9,1.3-2.8,1.3c-1.3,0-2.8-0.9-4.8-2.9c-1.1,0.5-2,0.8-2.9,0.8c-1.5,0-2.9-0.9-4.2-3.4c-0.3,0.1-0.6,0.1-0.8,0.1
			c-2.2,0-1.6-2.1-2.1-3.5c-0.8,0-1.6-0.2-3.7-1.3c0-2.4-1.8-2.9-3.2-4.2c-3.7-3.4-6.6-7.4-9.7-11.3c-1.1-1.3-1.8-2.9-2.4-4.7
			c2.4,2.9,4.7,5.5,6.8,8.2c1.3,0.3,2.4,0.5,3.7,0.8c-1.6-5.8-8.4-8.7-9.7-14.8c-6-3.2-9.5-9.5-14.2-14.5c0.6,0.3,1.3,0.8,2.7,1.6
			c-3.4-5.8-6.6-10.8-10.3-16.6c1.9,0.3,2.6,0.3,3.7,0.3c0.2,1.8,0.8,3.9,1.3,5.8c0.5,0,0.9-0.1,1.3-0.1c4.4,0,6.8,2.5,8.9,6.4
			c1.2,2.2,3.7,4.2,7.2,4.2c0.2,0,0.4,0,0.7,0c-1.6-2.4-2.9-4.8-4.5-7.1c0,0-18.4-30.3-18.2-30.6c1.6,1.8,3.4,3.7,6,4.7
			c-1.3-2.6-2.6-5-3.7-7.9c0.8,0.8,1.8,1.3,2.4,2.1c6.8,9.2,13.4,18.7,20.8,27.4c3.1,3.7,6.3,8.2,11.6,10.3c2.9,1,4.7,3.9,7.1,6
			c2.4,2.1,4.5,4.5,7.6,5.8c1.3,0.5,2.4,2.4,3.4,4c0.5-0.2,0.9-0.3,1.3-0.3c1.4,0,1.9,1.5,1.9,3c0,2.9,1.9,4.5,3.7,5.8
			c3.7,2.4,7.4,4.8,11.3,6.8c5,2.6,9.5,5.8,13.2,10.3c2.1,2.9,5.5,4.5,8.4,6.9c6.9,5.5,15,8.7,22.1,13.7c0.9,0.4,2.1,1.5,4.6,1.5
			c0.6,0,1.3-0.1,2-0.2l7.1,4.7c0.8,0.5,1.6,1.6,2.6,1.8c7.1,4,14.2,8.2,21.8,11.9c-0.8-0.8-1.3-1.6-2.1-2.6
			c2.4,0.8,4.5,1.8,6.6,2.1c6.6,0.8,11.3,5.8,17.1,8.2c2.4,0.8,4.2,3.4,6.6,4.2c4.3,1.3,7.5,5.5,12.4,5.5c0.1,0,0.3,0,0.5,0
			c0.8,0,1.5,2.1,2.4,3.2c0.9,0,1.5,0.3,2.3,0.3c0.2,0,0.4,0,0.6-0.1c0.5-0.1,0.9-0.1,1.4-0.1c3.4,0,6.4,1.6,9.6,2.7
			c4.2,1.6,8.7,1.8,15.5,1.8c1.9,1,3.4,1.8,5.2,2.4c4.8,1.1,9.2,2.1,14,3.2c3.1,0.7,6.1,2.1,9,2.1c0.2,0,0.5,0,0.7,0
			c0.3,0,0.7,0,1,0c2.7,0,5.1,0.9,7.7,1.6c0.3,0.1,0.6,0.1,0.9,0.1c0.8,0,1.5-0.2,2.2-0.2c0.2,0,0.5,0,0.7,0.1
			c1.2,0,2.3,0.8,3.5,0.8c0.1,0,0.3,0,0.4,0c0.3-0.1,0.6-0.1,0.9-0.1c1.2,0,2.3,0.5,3.5,0.5c0.5,0,1.1-0.1,1.6-0.4
			c0.3-0.2,0.7-0.2,1.2-0.2c1,0,2.1,0.3,3,0.5c5.5,1.1,11.1,2.4,16.6,3.2c0.9,0.1,1.7,0.2,2.6,0.2c2.6,0,5.4-0.5,7.9-0.5
			c3.8,0,7.8,0.3,11.6,0.3c1,0,1.9,0,2.9-0.1c6.8-0.8,13.4-2.1,20.3-2.9c11.6-1.6,23.1-2.6,34.7-4.2c4.5-0.5,9-1.6,13.4-2.4
			c0.5-0.1,1.1-0.1,1.6-0.1c1,0,1.9,0.1,2.8,0.1c0.8,0,1.7-0.1,2.4-0.3c6.3-1.3,12.6-2.9,18.7-5c6.6-2.4,12.9-5.5,21.6-9.2
			c8.9-3.4,18.2-6.6,26.8-10.3c3.4-1.6,6.3-4.5,9.5-6.6c5-2.9,9.7-5.5,14.7-8.4c5-2.9,10.3-5.3,15-8.4c8.7-5.8,17.4-11.9,26-17.9
			c7.1-5,14-10,20.5-15.5c5-4.2,9.2-9.2,14-13.7c2.4-2.4,4.7-4.8,7.4-6.6c7.1-4.7,11.1-11.9,16.6-17.9c1.3-1.6,1.9-3.7,2.9-5.3
			c1-1.6,2.1-2.6,2.9-5c1.6-1.3,2.9-2.4,4-3.2c-0.3,0-1-0.5-1.6-2.9c0.8-0.3,1.6-0.8,2.4-1.3c-1-1.3-3.2-2.6,1.6-5.5
			c1.3-0.5,2.6-1.3,4-1.8c-0.8-0.2-1.8-0.8-2.9-1c-0.5-2.9,1.9-3.4,3.2-5.5c1.3-0.8,2.6-1.3,3.7-1.8c-1.3-3.4,1-4.5,4.2-5.5
			c0.3-1.1,0.5-1.9-1.3-2.9c0.8-2.3,2.1-3.1,3.6-3.1c0.4,0,0.9,0.1,1.4,0.2c1.8-1.6,3.4-4,5.3-4H773c0.5-2.6,1.1-3.2,1.6-4.5
			c1.3,0,2.6-0.2,4.2-1.3c-1.1-0.5-2.1-1.1-3.2-1.3c1.6-1.3,2.9-2.4,5-4.2c-4.7-0.3-8.7-0.8-12.4-0.8c-9.7,0-19.7,0.5-29.5,0.8
			c-6,0.3-12.1,0-18.1,0.3c-9.5,0.3-19,1.3-28.4,1.8c-5.5,0.5-16.6,0.8-16.6,0.8l-16.6,0.8c-10,0.3-19.7,0.8-29.5,1.1
			c-11.1,0.3-22.4,0-33.4,0.5c-12.1,0.3-23.9,1.3-35.8,2.1c-9.5,0.5-19.2,0.8-28.7,1.3c-6.3,0.3-12.9,1.1-19.2,1.6
			c-5.3,0.5-10.5,1.1-15.8,1.3c-9.7,0.5-19.7,1.3-29.5,1.6c-8.7,0.2-17.1,0.5-25.8,0.5c-11.3,0.2-22.9,0.2-34.5,0.5l-30,0.8
			c-9.7,0.3-19.7,0.8-29.5,1.1c-17.1,0.5-34.2,0.8-51.3,1.3h-19.2c-2.6,0-5.3,0.3-7.6,0.3c-11.3-0.3-22.6-0.8-33.9-0.8
			c-8.1,0-16,0.8-24.2,0.8c-9.7,0-19.5-0.5-29.2-1.1c-6.8-0.2-13.4-0.5-20.3-1c-10.5-1-21-2.1-31.3-4.7c-3.2-0.8-6.6,0.2-10.5-1.6
			c-1.3,0.5-2.6,1-4.8,1.8c0.7-1.2,1-2.7,1.5-2.9c0.1,0,0.1,0,0.1,0c0,0-0.1,0-0.1,0c-0.7,0.1-4.2,0.9-5.4,0.9c-0.2,0-0.4,0-0.3-0.1
			v-2.6c-0.5-4,0.5-5,4.5-5.8c2.7-0.5,5-2.1,7.7-2.6c0.5-0.1,1.1-0.1,1.6-0.1c1.1,0,2.1,0.1,2.6,0.1c2.6-0.8,4.5-1.6,6.6-1.8
			c4.7-0.5,9.5-0.8,14.2-1c7.1-0.3,14.2-0.3,21.3-0.5c9.7-0.3,19.2-1.1,29-1.1c6.3,0,12.9,0.8,19.2,0.8c4.7,0,9.7-0.5,14.5-0.5
			c9.8,0,19.2-0.3,28.9-0.3c8.2-0.3,16.3-0.3,24.5-0.3c3.4,0,4.5-0.5,7.6-0.8c2.9-14.8,1.6-29,2.1-44.8h4c0,0,0.8,33.5,1,33.5
			c0.8-0.8,1.3-1.6,0.8-2.4c0,0,0.3-6.9,0.3-7.4c0-0.8-0.3-1.6-0.3-2.4c0-5.8,0.3-11.9,0.3-17.9c0.3-2.4,0.5-4.5,0.5-6.9
			c0-1.1-0.5-1.8,1-4c-2-2,0-5.6-4.1-5.6c-0.3,0-0.6,0-0.9,0l-0.8-4c-0.2-0.8,0-1.6,0.8-4.2c-0.8-2.6,0.5-5-0.5-9.5v-10
			c0-3.1-0.5-7.1,0.5-9.8c1.3-3.4,1.6-7.1,2.4-10.8c0.3-1.3,0.5-2.6,0.5-4c0.3-6.9,0.5-13.4,0.5-20.3c0.3-4.5,0-8.7-0.3-12.9
			c-1.9,10.3,0.2,20.6-4,30.6c-0.2-5.5-0.8-10.8-1-16.6c-1.6-0.3-1.6-0.3-0.5-3.4c-0.3-1.6-1.3-4-0.8-4.5c2.6-2.6-0.3-6.1,2.1-10.8
			c0.2,0,0.3,0,0.4,0c2.4,0,1.4-2.2,1.7-3.5c2.1-15,1.6-30.1,1.8-45.1v-3.9c-1.3,2.6-0.5,5.3-1.1,7.4c-1.1,5-1.1,10-0.5,15.3
			c0.5,4.8-0.5,9.8-0.8,14.5v2.6c0,1.8,0.2,3.4,0,5c0,1.8-0.5,3.7-2.4,6.6c2.4-15-0.5-30.1,0.8-44.3c-0.5-1.8-1.6-4-1.3-6.1
			c0.8-9.7,1.8-19.2,2.6-29c0-2.6-0.8-5.5-0.8-8.2c0-1.1,0.8-1.9,0.8-2.9c0.3-4,0-7.9,0.3-11.9c0.8-10,1.3-19.8,2.1-29.5
			c0.3-5.5,0.8-11.3,0-17.4c-4.7,5.5-10,11.3-14.5,17.1c-10.5,13.7-20.5,27.6-31.6,41.1c-7.1,8.7-15.3,16.6-23.2,24.8
			c-0.8,0.8-1.6,1.6-2.6,2.1c-2.6,1.1-4.2,3.2-5.2,5.8c-0.3,0.8-1,1.6-1.8,2.6c-0.1-0.2-0.1-0.2-0.3-0.2c-0.4,0-1.3,0.9-3.2,1.6
			c-0.3-0.3-2.1-1.1-2.4-1.3c1.8-1.6,4.5-3.2,5.5-5.3c1.3-2.4,2.9-4.7,2.9-7.6c-0.8,1.1-1.6,1.8-2.9,2.6c0.8-1.3,1.6-2.9,2.4-4.2
			c1.9-1.6,0-2.1-1.1-2.9l3.2-6.3c1.3-2.1,2.6-4,3.9-6.1c2.1,4-2.4,5.5-2.1,8.7c1.6-2.1,3.4-4,4.7-6.1c2.4-3.7,4.5-7.6,6.6-11.6
			c0.8-1.6,0.8-3.4,2.9-6.9c0.8-0.5,1.6-0.8,2.1-1.6c7.9-11.1,15.5-21.9,23.2-32.9c9.7-14.5,19.5-28.7,29.2-43.2
			c6.6-9.7,12.6-19.8,19.5-29.2c7.6-10.8,16-21.1,23.9-31.9c8.7-11.3,16.8-22.9,25.5-34.3c6.6-8.2,13.4-16.1,19.7-24.5
			c6.3-8.7,11.9-17.6,17.9-26.3c3.9-5.8,8.4-11.3,12.6-16.9c2.4-3.4,5-7.1,7.4-10.5c2.9-4.2,6.1-8.4,8.9-12.6
			c0.3-0.5,0.5-1.1,1.3-2.1c-6.8,0.8-13.2,1.3-19.5,1.8c-7.1,0.8-14,1.6-21,1.9c-11.1,0.3-21.6,1.8-32.1,5.3
			c-9.2,2.9-19,4.5-27.9,7.9c-14,5.3-27.9,10.8-41.3,17.9c-16.6,8.7-32.1,18.7-46.8,30.1c-11.3,8.7-21.3,18.5-31.8,27.9
			c-10.3,9-19.5,19-27.9,29.8c-6.1,7.7-11.3,16.1-16.6,24.2c-5.5,8.4-10.8,16.6-15.8,25.3c-7.9,14-16.1,27.7-23.2,41.9
			c-5,9.7-8.7,20-12.6,30.3c-2.6,6.6-5,12.9-7.1,19.5c-2.9,9.2-5.5,18.5-7.6,27.7c-1.3,5.5-0.8,11.3-1.3,17.1
			c-0.2,4.5-0.8,9-1.3,13.4c-0.2,2.4-1.1,5-1.1,7.4c0,5-3.4,8.2-5.5,12.1c-0.5,1.1-2.4,1.3-2.9,2.4c-1.1,2.1-2.9,4.2-0.3,7.6
			c-1.3,0-2.6-0.2-4.7-0.5c0,0,0.5,3.9,0.3,4.2c0.3,2.4,0.5,4.5,0.8,6.3c0,0.8,0.5,1.6,0,2.9c0.5,2.1,0.8,4.2,1.3,6.3
			c1.3,1.9,2.1,4,4.7,6.6v-7.4c0,0,0.4,0,0.9,0c0.8,0,2,0.1,3,0.6c-0.8-1.8-1.8-3.4-0.5-4.7c0-1.1,0.3-1.9,0.5-3.7
			c1.3,6.3,2.4,12.1,3.9,17.4c-0.5-6.3-1.3-12.6-2.1-19c0.2-0.2,1.2-2.7,2.4-2.7c0.2,0,0.5,0.1,0.7,0.3c0.8,7.4,0.5,18.4,1.8,25.8
			c0.8,4.8,3.4,9.2,3.2,13.7c0,3.7,3.2,6.6,0.3,8.2c-1.8,0.5-3.4,1.3-5,1.8c0.2,0,0.4,0,0.6,0c3.2,0,4.4,2,4.4,4.3
			c-1.6,1.6-2.6,2.9-3.7,4.2c1.3,0.5,2.6,1.1,3.7,1.6c0-0.8,0.5-1.6,0-3.7c1.6,1.6,2.9,3.9,4.5,5.5c-0.3,0.5-0.5,1.6-0.8,2.4
			c-2.1,0-5.3-1.3-8.9-2.6c0.8,4.8,1.3,9.8,1.3,14.8c-1.8-4.5-2.4-9-3.4-13.7c0.5-0.3,0.5-1.3-0.8-3.4c-1.1-2.9-1.8-6.1-2.6-9.5
			c-1.3,0.5-2.4,0.8-3.7,1.6c0,0,0.3-5,0-5c-0.5-1.3-1.1-2.4-1.1-3.4c-0.2-4.7-1.1-9.5-3.2-13.7c-0.3-0.5,0.5-1.3,0-3.7
			c0.3-1.6,0.8-3.2-0.5-6.6c-2.4-1.1-2.6-2.6-1-4.5c0.5-0.5,0.8-1.9,0.5-2.6c-0.5-1.9-2.1-4-2.1-5.8c0-2.6-1-5-1.3-7.4
			c-0.2-0.8,0-1.8,0-2.6c-0.5-0.8-1.6-1.8-1.3-2.4c1-2.6-1.6-4.5,0.2-7.4c-1.6-0.5-2.3-2.1-1.3-5c-3.1-2.1-1.6-5.3-1.8-7.9
			c-1-10.5-2.1-20.8-1.8-31.4c0.2-11.9,1-24,4.2-35.6c3.4-12.9,7.1-26.1,10.8-39c1.6-6.1,3.7-12.1,6.3-17.7
			c3.7-8.2,7.9-15.8,11.8-23.7c2.6-5.3,5.3-10.5,8.2-15.8c7.1-12.9,14.7-25.8,23.7-37.9c5-6.9,9.8-13.7,15-20.3
			c6.3-7.9,12.9-15.3,19.5-22.9c3.9-4.7,7.4-9.8,11.6-14c7.6-7.4,15.5-14.8,23.9-21.4c8.7-6.9,17.6-13.2,26.6-19.2
			c9.5-6.3,18.9-12.9,28.9-18.4c9.7-5.3,19.7-9.8,30-14c11.1-4.2,22.4-8.2,33.7-11.6c6.3-2.1,12.9-2.6,19.2-4
			c2.9-0.5,5.8-1.6,8.7-2.1c8.1-1.3,16.6-2.9,24.7-4c8.7-1.1,17.4-1.6,26-2.6c7.1-1.1,14.5-2.4,21.8-3.2c7.6-1,15.3-1.8,22.9-2.1
			C455.2,59.8,456.2,59.8,457.2,59.8 M625,280.9c0.3,0,0.5,0,0.8,0c2.5-0.1,5.1-0.1,7.7-0.1c5.2,0,10.4,0.1,15.5,0.1
			c-0.3,0.3-0.5,0.8-0.8,1c0,1.3-0.2,2.4-0.2,3.7v4.7c0,5.5-0.5,10.8-0.5,16.1c0.3,5.5,0.8,11.3,1.3,17.1c0,0.8,0.3,1.3,0.5,1.8
			c2.1,3.2,4.2,6.3,6.3,9.2c6.1,8.7,12.4,17.4,18.2,26.4c6.8,10.8,12.9,21.9,19.7,32.7c2.1,3.4,5,6.3,7.4,9.5
			c6.6,9.8,13.2,19.2,19.7,29c7.1,10.2,13.2,20.8,20.8,30.5c10,12.9,18.9,26.4,27.1,40.3c1.3,2.6,2.9,5.3,4.8,7.9
			c6.8,10.3,13.7,20.3,20.5,30.3l8.7,12.7c0.5-0.3,0.8-0.3,1-0.5c0.3-1.3-1.8-2.9-1.6-4.5c0.3,0,2.6,0.3,2.9,0.3
			c0,0.8,0.3,1.3,0.5,2.6c0.3-2.4,0.5-3.9,1.1-5.5c0.5-1.8-0.8-3.4-0.8-5c-0.3-2.9,0.8-6.1,1.3-9c0.3-0.3-0.5-0.8-0.8-1.3h-0.8
			c0,5.5-2.4,10.3-2.4,15.5h-2.1c0.3-2.6-1.6-3.7-1.6-5.3c0.3-2.9,2.6-5.3,2.9-7.9c0.3-3.4,0.3-7.6,0.8-10.8c0.2,0,3.4,1.8,4.2,2.1
			c-0.8-4.2-2.9-9.2-2.9-12.9c0.3,0,3.7,1.8,4,1.8c0.5,2.9,0.8,5,0.3,8.2c1.3-0.5,1.8-0.8,2.1-1.6c1-4.5,2.1-9.2,2.6-13.7
			c0.5-5.3-0.3-10.6,0.5-15.6c1.1-6.8-0.5-14.2,2.4-20.8c0-0.2-0.5-0.8-0.5-1c0.2-2.4,0.8-4.5,1.3-6.8c0.5-1.6,0.8-3.2,1.1-4.8
			l-0.3-0.2c-0.3,0.8-0.5,1.3-1.1,2.1c-1.1-1.8-1.1-5.5-3.7-6.3v-13.5c0,1.3,3.2,2.9,3.7,3.7l2.4-0.8v-0.5h-0.8
			c-0.3-1.3-1.1-2.9-0.5-3.4c1.6-2.1,0-4.2-0.5-5.3c-2.4-4.5-3.7-8.4,1.6-12.4c-0.3,0-0.8-0.3-1.1-0.5c-0.8,0.8-3.9,1-4.7,1.6
			c0.3-3.7-1.6-7.4-1.3-11.1c0,0.8,1.8,0.5,2.1,1.3c0.5-1.1,0.3-1.8,0.5-2.6c0.2,0.2,1.5,1.6,2,1.8c-0.8,2.6,1.1,5.3,0.3,8.2
			c3.7-8.4,2.1-17.1,2.1-25.8c0-9.2-0.3-18.2-2.6-27.1c-1,0.8-1.6,1.1-2.1,1.6c-0.3-0.5-0.8-1.3-0.8-1.8c-0.3-1.1,0-2.1,0-3.1
			c0-0.2-0.2-0.5-0.2-1.1c-0.5,0.8-0.8,1.3-1.3,1.8c-0.2-0.8-0.2-1.8,0-2.1c1.6-1.6,0.8-2.6-0.3-3.7c-0.3-0.5-0.5-1.3-0.8-1.9
			c-1.6-5.5,0-11.6-1.6-17.1c-1.3-4.2-1-8.7-2.1-12.9c-1.3-6.3-2.9-12.6-4.7-18.7c-2.6-8.2-5.3-16.1-7.9-24.2
			c-1.8-5.5-3.4-11.3-6-16.4c-3.7-6.8-8.4-12.9-12.6-19.2c-1.8-2.6-3.4-5.5-5.5-7.9c-6.6-7.9-13.4-15.8-20-23.7
			c-7.4-9-14.5-17.9-22.1-26.6c-6.6-7.4-13.4-14.5-20.3-21.6c-4.7-5-8.4-10.5-14.7-14c-20-11.1-40.3-21.6-61.6-30.3
			c-9.5-4-19-8.2-28.7-11.3c-16.6-5.5-33.7-10.3-51.1-13.2c-8.2-1.3-16.1-2.9-24-4c-9.5-1.3-18.9-1.8-28.4-2.6l-12.6-0.8
			c-3.1-0.3-6.3-0.8-9.8-1.3c5,6.1,10,11.6,14.5,17.4c9.7,12.6,19.5,25.3,29,37.9c7.9,10.5,15.3,21.1,22.9,31.6
			c6.8,9.2,13.7,18.2,20.5,27.4c8.4,11.3,16.8,22.7,25,34.3c8.7,12.1,16,25,26,36.4C618,278.8,620.5,280.9,625,280.9 M402.2,174.2
			c0.8-0.8,1.8-1.6,2.6-2.4c-0.8,1.8-1.8,3.7-2.9,6.3c-1-2.1-1.6-3.2-2.1-4c-2.6,3.9-5.2,7.4-7.9,10.8c0.3,0,0.5,0.3,0.8,0.5
			c1.3-1.3,2.4-2.6,3.7-4c0.3,0,0.5,0.3,0.8,0.5c-3.2,4.2-6.6,8.2-9.7,12.4c-0.3,0-0.3-0.3-0.5-0.3c0.5-1.1,1.1-2.4,1.6-3.7
			c-3.7,3.7-7.1,7.9-10.2,12.1c-1.6,2.1-3.2,4.5-4.7,6.9c-0.3,0.3-0.3,0.3-0.5,0.3c-0.8,0.5-1.6,1.3-2.4,1.8h0.8
			c0.3,1.1,1.1,2.4,0.8,3.2c-1.3,2.4-2.9,4.2-4.5,6.3c-2.1,2.6-4.5,5.5-6.8,8.2c-1.1,1.1-1.3,3.9-3.3,3.9c-0.5,0-1-0.1-1.7-0.5
			c0,0-0.8,0.5-1,1c-1,2.4-1.8,4.8-3.2,6.8c-0.5,1-1.6,2.1-2.6,3.4l0.3,0.5c-1.3,1.1-2.4,1.6-3.2,2.6c-2.6,3.4-4.7,7.1-7.4,10.6
			c-8.4,11.9-17.1,23.5-25.5,35.1l0,0c4.4,0,8.7,0.1,12.8,0.1c2.1,0,4.1,0,6.1-0.1c10.8-0.3,21.3-0.5,32.1-1.1
			c9.2-0.2,18.2-0.8,27.4-1.3c7.6-0.5,15.2-1.6,22.9-1.6c21.3,0,42.9-0.2,64.2-2.1c16.8-1.3,33.9-3.2,50.8-4
			c2.4-0.1,4.8-0.1,7.2-0.1c10,0,20.2,0.7,30.1,0.9h13.4c-7.1-10.8-14.5-21.3-21.8-32.2c-10-14.8-19.5-29.5-29.5-44.3
			c-6.6-10-13.4-19.8-20.3-29.5c-6.1-8.4-11.9-16.9-17.9-25.3c-5-6.9-10.3-13.2-15.5-19.8c-7.1-9-14.2-18.2-21.3-27.1
			c-0.6-0.7-1.2-1.2-1.8-1.2c-0.5,0-1,0.3-1.6,1c-1.6,1.6-3.4,3.2-4.7,5c-6,9.2-13.9,17.1-18.9,27.1c-1.6,2.6-3.9,4.8-5.8,7.4
			c-5,7.1-10,14.5-15,21.6l-4.7,7.1L402.2,174.2 M614,416.6c0.5,0,0.8-0.3,1-0.3V414l0,0c0-9.2-0.3-18.4-0.5-27.4
			c-0.3-6.3,0.3-12.6,0.3-18.7c-0.2-6.1-0.8-11.9-1-17.9c-0.3-5.8-0.3-11.9-0.3-17.7c0-0.8-0.5-1.6-0.8-2.1c-2.6-4-5-7.9-7.4-11.9
			c-1.3-2.1-2.6-2.9-5-2.9c-9.7,0.5-19.2,0.5-29,0.8l-45,0.8H520c3.1,1.8,6,3.4,9.2,4.7c11.6,4.8,22.4,10.3,32.9,16.9
			c7.1,4.5,12.6,10.8,18.2,16.9c1.6,1.6,3.4,3.1,4.7,5c5.3,7.6,10,15.3,15.3,22.6c4.7,6.8,7.6,14.5,10.3,22.1
			C611.9,408.9,612.9,412.9,614,416.6 M331.9,325.7L331.9,325.7c1,25.3-0.5,50-1.9,75.1c4.2-6.6,8.2-12.9,12.6-18.7
			c3.1-4.5,7.4-8.4,11.1-12.7c5.3-5.8,10.8-11.1,15.8-17.1c3.9-4.5,8.1-8.7,12.9-12.1c4.8-3.4,9.2-7.6,14-10.8
			c3.7-2.6,7.9-4.7,12.1-6.9c-1.7-0.2-3.3-0.3-4.9-0.3c-2.2,0-4.4,0.1-6.7,0.3c-9.5,0.5-19.2,0.8-28.7,1.3
			C356.1,324.4,344.3,325.2,331.9,325.7 M448.2,340.5c-1.1,0-2.2-0.2-3.3-0.2c-0.8,0-1.6,0.1-2.2,0.4c-9.2,4-18.4,8.2-27.6,12.4
			c-4,1.9-7.6,4.2-11.3,6.6c-0.3,0.3-0.3,0.8-0.8,1.6c2.4-1.1,4.7-2.4,6.3-3.2c0,0,1.3,1,1.3,1.3c-2.4,1.6-6.1,3.7-8.4,5.5l-1.3-1.3
			c0.5-1.1,0.8-2.1,1.6-3.7c-2.1,1.1-3.2,2.1-4.2,2.6c0.5,0.8,1.3,2.1,1,2.6c-0.3,0.8-1.8,0.8-2.6,1.3c-0.8,0.5-1.6,1.1-2.1,1.6
			c-2.9,4.5-7.4,7.4-12.1,10c-1.6,0.8-3.7,1.9-4.7,3.2c-1.8,2.4-2.9,5.3-4.7,7.6c-2.6,3.2-5.8,6.1-8.7,9.2c-0.8,1.1-1.9,2.1-2.9,2.9
			c2.6,1.9,1.3,8.2-3.1,10.8c0.3-2.6,3.9-4.5,1.8-8.2c-1,1.3-1.3,2.1-2.1,2.6c-2.4,1.9-1.9,5.8-5.5,6.6c-0.3,0-0.3,0.8-0.3,1.3
			c0,0.5,0.5,1.3,0.3,1.6c-1.6,1.6-0.3,5-3.4,5.5c-0.3,0,0,2.1,0,3.1c0,0-0.3,0.3-0.5,0.8c-0.5-0.5-0.8-0.8-1.3-1.6
			c-0.3,2.1-0.5,4.5-0.8,6.6c-0.3,0.8-0.3,2.1-0.8,2.4c-4,1.6-3.7,5-4.8,7.9c1.3,1,2.4,1.6,3.4,2.4c-0.5,1-0.8,1.8-1.3,2.6
			c-1,1.6-2.1,3.2-2.1,5.5c0,3.2-0.5,6.6-1.8,9.7c-0.5,1.6-2.9,2.6-4.5,3.7c0,0-0.1,0-0.2,0c-0.6,0-1.8-1.1-2.5-1.9
			c-0.5-0.3-0.2-1.1-0.5-1.6h-0.8c-0.5,1.3-1.1,2.4-1.1,3.7c-0.3,9.2-0.3,18.2-0.3,27.4c0.3,6.9,0.8,14,0.5,20.8
			c-0.3,12.7-0.3,25.1,1.3,37.7c1.6,11.9,1.6,24,2.4,36.1c0.3,2.1-0.2,4-0.2,6.1c0,5,0.3,9.8,0.3,14.8c30.3-0.5,59.5-1.1,86.8-1.6
			c-5.8-2.9-13.4-6.6-20.8-10c0,0,0.3,0.3,0.5,1.1c-4.4-1-8.1-2.6-11.3-5.5c-2.4-1.8-5-3.4-7.6-5c-2.9-1.8-6-3.4-9.2-5
			c0.3-0.5,0.3-0.8,0.5-1c2.1,1.1,4.5,2.1,7.6,3.4c-2.6-5.8-9.2-7.9-10-14c-0.6,0.3-1.3,0.4-1.9,0.4c-2.8,0-6-2.5-7-5.7
			c-0.2-0.3-1-0.3-1.3-0.8c-2.1-3.1-4.2-6.6-6.6-9.8c-2.4-3.2-5-6.3-7.4-9.5c-1.3-1.9-2.1-4-3.2-6.1c0-0.8-0.8-1.3-1.1-1.8
			c-0.8-1.6-1.3-2.9-1.8-4.5c-2.1-4.5-4.2-9-6.1-13.4c-0.3-0.8,0.3-2.6,1.1-3.2c0.5-0.3,1-0.5,1.5-0.5c0.8,0,1.6,0.5,1.9,1.8
			c0.5,1.3,1.3,2.4,2.1,3.4c0.3,0,0.5-0.2,0.8-0.2l-4.7-17.4c0.3-0.3,0.3-0.3,0.5-0.3l5.5,13.4c0,0,0.3-0.3,0.5-0.3
			c0-1.1-0.3-1.8-0.3-2.6c2.6,3.2,4.5,6.6,6.6,9.7c1.1,1.6,2.4,3.2,3.7,4.8c0.5,0.8,0.5,1.6,1,2.4c1.9,3.4,4,7.1,6,10.5
			c1.1,2.1,2.4,4.5,3.4,6.6c-0.8,1.6-1.6,3.4-2.4,5.3c0.5-0.3,1.3-0.5,2.1-1.1c1.8,2.9,3.3,4.2,4.4,4.2c0.5,0,1-0.3,1.4-0.8
			c-2.9-1.8-4.7-4.5-5.5-7.6c4.2,3.7,9,7.1,12.4,11.3c4.8,5.8,11.1,9.5,17.4,12.6c6.3,3.2,12.9,5.8,19.2,8.7c7.4,3.4,15,4.2,22.6,5
			c6.8,0.5,13.4,0.8,20.3,0.8c2.5,0,5,0,7.5,0c5.1,0,10.2-0.1,15.1-0.8c8.7-1,17.4-3.4,25.8-5.5l-0.1,0c5.3-1.3,10.8-2.9,15.5-5.8
			c7.6-4.2,15-9.5,22.1-14.8c3.2-2.1,5.5-5,7.9-7.9c2.6-3.4,4.7-7.4,7.4-11.1c2.6-4.2,6.3-7.9,8.4-12.4c4-7.9,7.1-16.3,10.2-24.5
			c1.3-3.7,2.4-7.6,3.7-11.3c-0.3-0.3-0.3-0.3-0.5-0.3L576,496c-0.3,0-1.8-0.8-2.1-1.1c1.3-2.6,2.9-5,4-7.4
			c3.1-7.4,6.3-14.5,5.8-22.7c-0.3-2.6,0.3-5.2,0.8-7.9c1-6.6,2.1-13.4,3.4-20c0.8-3.7-1-6.8-1.8-10l-3.9-17.4
			c-2.6-10-9.2-17.4-15-25.5c-4.7-6.9-10.5-12.9-17.9-17.4c-7.6-4.5-14.7-10-22.4-15c-4.2-2.9-8.4-5.5-12.9-7.9
			c-3.7-1.8-7.9-3.7-11.8-5c-3.2-1.1-6.3-1.8-9.7-2.1c-7.9-0.5-15.8-0.5-23.7-0.8c-1.9,0-4,0.3-5.8,0.8c-4.2,1.1-8.4,2.4-12.6,3.7
			C449.5,340.5,448.9,340.5,448.2,340.5 M647.1,447.5h0.5c0.3-0.5,0.3-0.8,0.5-1.3h0.5c0.3,4,0.3,7.9,0.5,11.9h0.3v2.6
			c-3.9-1.6,0-5-2.6-7.6v18.4c0,0.8-1.1,4.5,1,7.1l-0.5,0.5c1,1.3,2.1,2.4,2.9,3.4c0,0.3-0.2,0.5-0.2,0.8c-1.1-0.3-2.9-0.3-2.9-0.5
			v17.4h1.1c0.8,2.4,2.1,4.5,2.6,6.3c-1.3-0.5-2.6-1.1-4.5-1.6c0.8,4.7-1.3,9,2.1,12.1c0.8-0.5,1.6-0.8,1.6-0.8
			c-0.5-0.8-0.8-1.3-1.1-2.1c4,1.6,2.6,4.7,3.2,7.4c0.5,2.3,0.5,4.7,0.5,7.1c0,0.2-0.5,0.2-1.1,0.5c2.4,2.6,2.4,4-0.3,6.3
			c0.8,0.3,1.6,0.8,2.6,1.3c-0.8,0.3-1.6,0.5-1.8,0.8c0.8,2.1,1.3,3.7,2.1,5.3c0,0.8-0.5,2.4-0.3,2.6c2.9,2.1-0.5,3.7,0.5,5.5h-0.8
			l-1.6-7.9c-0.3,0.3-0.5,0.3-0.8,0.3c0.3,1.6,0.8,3.1,0.8,5c0,0.5-0.5,1.3-0.8,2.1c0,0.3-0.5,0.8-1,1.1c0.5,0.5,1.1,0.8,1.1,0.8
			c-0.5,0.8-1.1,1.6-1.6,2.6c-1.1-0.8-1.8-1.3-2.9-2.1c0,3.4,0.3,6.9,0,10.5c-0.2,7.9-1,15.8-1,23.7c0,3.7,1,7.1,1.6,10.8h0.8
			c0.3-0.5,0.5-1.3,0.8-2.1c0.5,0.8,1,1.3,1.3,1.8c0.8-1.1,1.3-1.8,1.6-2.4c1.3,1.1,2.1,2.4,2.9,2.4c10.8-0.2,21.6-0.5,32.4-1
			c4.5-0.3,9.2-1.3,13.7-1.3c13.7-0.2,27.6-0.2,41.3-0.2c14.2,0,28.7,0,42.9-0.3c1.2,0,2.6,0.5,4,0.5c1.4,0,2.6-0.5,3.4-2.6
			c0.3,1.1,0.3,1.9,0.5,2.4c0.2-0.5,0.8-1.1,1-1.6l0,0.1c1.6-2.4,1.3-4-1.6-5.5c-0.5-0.5-1-1.3-1.8-2.4c0.5,0.3,0.8,0.3,1,0.3
			c-1.6-1.3-3.9-2.9-5.5-5c-2.9-3.7-5.8-7.4-8.4-11.1c-5.3-7.1-10.5-14.5-15.8-21.9c-4.5-6.1-9.2-12.1-13.7-18.2
			c-5.3-6.9-10.5-13.7-15.5-20.8c-5.5-7.9-11-16.1-16.3-24.3c-7.1-10.8-14-21.6-21-32.4c-5.8-9-11.6-18.4-17.9-27.1
			c-7.4-10-15.3-19.5-21.3-30.6c-1.8-3.4-4.7-6.6-7.4-10L647.1,447.5 M527.2,601.3c30.5-1.1,60.8-2.1,90.5-3.2
			c-3.9-29.8-7.4-59.3-6.8-89.3c-0.5,0.8-1,1.8-1.6,2.9c-6.9,12.9-12.4,26.6-20.8,38.7c-7.4,10.5-15.5,20-26.6,26.9
			c-1.6,1.1-2.9,2.4-4.2,3.7C548.7,589.2,539,596.3,527.2,601.3L527.2,601.3 M807.4,527.5L807.4,527.5L807.4,527.5
			c0.3-0.5,0-1.3,0-1.8V527.5 M363.2,565.5l0.3-0.3h0c-3.1-4.2-6-8.4-9-12.9c-0.3,1,0,1.8,0.5,2.6l6.3,9.5
			C361.9,565,362.7,565.2,363.2,565.5 M198.5,725.4c-2.9-3.4-5.8-6.6-8.7-9.8l-0.8,0.8c1.8,2.1,3.4,4.5,5.3,6.6
			C195,724.1,196.9,724.6,198.5,725.4 M198.5,725.4L198.5,725.4c-1,2.1,0.8,3.7,4.5,3.9c-0.8-1.6-1.3-3.2-2.1-4.5
			C200.1,725.2,199.3,725.2,198.5,725.4 M559.8,822.7c-5.8,0.8-11.3,1.3-17.4,2.1h0c0.5,0.7,1.4,1,2.9,1
			C547.8,825.8,552.2,824.8,559.8,822.7 M490.3,833.2c4.2-0.3,8.7-0.3,13.2-0.5c1.3,0,2.4-0.3,3.4-0.5c0.8-0.3,1.9-1.3,2.6-1.3
			c2.7,0,5.3,0.3,7.9,0.5v0.8c-1.6,0.3-3.4,0.5-5,0.8v0.5c5.5-0.8,11-1.3,16.8-2.1c-0.6-0.4-1.3-0.5-1.9-0.5c-0.9,0-1.8,0.2-2.6,0.2
			c-1.1,0-2-0.4-2.6-2.1c0.5-0.3,1-0.3,1.6-0.5c0.2,1.1,0.7,1.4,1.2,1.4c0.7,0,1.5-0.5,2.2-0.6c3.7-0.5,7.6-1.1,11.3-1.9l0,0
			c1.3-0.2,2.4-0.8,3.9-0.8c-0.3-0.5-0.3-1-0.5-1.6c-17.6,2.4-35,4.7-52.6,7.1v0.8C489.5,833,490.1,833.2,490.3,833.2 M472.2,834.3
			L472.2,834.3L472.2,834.3c5-0.3,9.7-0.8,14.7-1.6v-0.8c-5,0.5-9.7,1-14.7,1.6V834.3 M816.3,411.3l0.1,0.1
			C816.3,411.4,816.3,411.3,816.3,411.3C816.3,411.3,816.3,411.3,816.3,411.3 M457.2,19.8c-1.6,0-3.1,0-4.7,0.1
			c-7.9,0.3-16.5,1.1-26.1,2.4c-6.1,0.7-11.8,1.6-17.3,2.4c-1.7,0.3-3.3,0.5-5,0.8c-3.5,0.4-7.3,0.8-11.2,1.1
			c-4.6,0.4-9.4,0.9-14.3,1.5c-0.1,0-0.2,0-0.3,0c-6.4,0.8-12.6,1.9-18.6,2.9c-2.5,0.4-4.9,0.8-7.3,1.2c-0.3,0-0.5,0.1-0.8,0.1
			c-3.1,0.6-5.7,1.3-7.6,1.8c-0.4,0.1-1,0.3-1.3,0.4c-0.3,0-0.5,0.1-0.8,0.2c-1.3,0.3-3,0.5-4.8,0.8c-5.1,0.8-11.3,1.9-18.3,4.1
			c-11.3,3.4-23.3,7.6-35.8,12.3c-0.3,0.1-0.7,0.3-1,0.4c-13.2,5.4-24,10.5-33.8,15.8c-0.1,0.1-0.2,0.1-0.3,0.2
			c-10.1,5.6-19.2,11.7-27.9,17.6c-1.3,0.9-2.6,1.8-4,2.7c-0.1,0-0.1,0.1-0.2,0.1c-11.3,7.7-20.5,14.3-28.9,20.9
			c-10.1,7.9-19.3,16.6-27,24c-0.2,0.2-0.3,0.3-0.5,0.5c-4.5,4.5-8,9-10.9,12.7c-1.1,1.4-2.1,2.6-3,3.7c-1.6,1.8-3.2,3.7-4.7,5.5
			c-5,5.8-10.2,11.8-15.4,18.3c0,0-0.1,0.1-0.1,0.1c-4.5,5.6-8.5,11.2-12.3,16.5c-1.2,1.7-2.4,3.3-3.6,5
			c-11.1,15.1-20,30.5-26.5,42.3c-3.2,5.8-6,11.5-8.7,16.9l-0.1,0.3c-1.2,2.4-2.4,4.7-3.7,7.3c-2.9,5.5-5.8,11.2-8.7,17.6
			c-3.5,7.3-6.3,15.4-8.6,23.9C50,315,46,329.2,42.2,343.3c-4.4,16.2-5.3,31.9-5.6,45.1c-0.3,12,0.7,22.9,1.7,33.5
			c-0.3,6.4,0.6,11.9,2.1,16.7c0.2,1.2,0.5,2.4,0.8,3.6c0.1,3.8,0.7,7.9,2.2,12.2c0.2,1.2,0.5,2.2,0.7,3c0.1,1.2,0.3,2.4,0.5,3.5
			c-0.3,4,0,8.1,0.9,12.1c0.4,1.8,0.9,3.6,1.6,5.4c0.3,5.5,1.6,10.1,3.2,13.8c0.1,2.9,0.5,5.4,1,7.7c0.3,8.9,3.6,17.4,9.1,24.2
			c0.8,4.1,2,9.1,4.3,14.7c6.2,15.3,21,24.9,37,24.9c2.6,0,5.1-0.2,7.7-0.8c13.6-2.7,24.5-12.1,29.4-24.3c3.7-4,6.6-8.9,8.4-14.3
			c0.2-0.5,0.3-0.9,0.4-1.3c3.6-9.7,3.2-20.4-0.8-29.7c0-4.9-0.9-9-1.7-11.9c-0.7-6.4-2.3-11.5-3.4-14.7c-0.1-0.2-0.2-0.5-0.2-0.7
			c-0.3-2.1-0.4-6.6-0.5-9.4c-0.2-4.3-0.3-8.7-0.8-13.1c-0.5-4.6-1.7-8.9-3.7-13c0.6-2.7,1.1-5.6,1.2-8.7c0.3-1.4,0.6-3.3,0.9-5.6
			c0.5-4.3,1.1-9.5,1.5-15c0.3-3.1,0.3-6,0.4-8.3c0-1.1,0.1-2.5,0.1-3.2c1.7-7.2,3.9-15.1,6.7-24.2c1.9-6,4.2-11.8,6.1-16.8
			c0.1-0.1,0.1-0.3,0.2-0.4c0.6-1.5,1.2-3.1,1.8-4.6c3-7.9,5.9-15.4,9.1-21.7c0.1-0.1,0.1-0.3,0.2-0.4c5-9.9,10.6-19.8,16.6-30.3
			c1.8-3.2,3.7-6.4,5.5-9.6c4.3-7.4,8.9-14.6,14.5-23.2c0.1-0.1,0.1-0.2,0.2-0.3c0.6-0.9,1.2-1.9,1.8-2.8c4.3-6.7,8.3-13,12.5-18.2
			c0.1-0.1,0.1-0.2,0.2-0.3c7.4-9.4,14.8-17.4,22.7-24.3c0.2-0.1,0.3-0.3,0.5-0.4c2.8-2.5,5.5-5,8.2-7.4
			c7.3-6.7,14.2-13.1,21.3-18.5c0,0,0,0,0,0c13.1-10.1,26.5-18.7,41-26.3c0,0,0.1,0,0.1,0c10.4-5.5,21.4-10,34.7-15.1
			c-1.2,1.5-2.5,3-3.7,4.5c-2.2,2.7-4.5,5.5-6.8,8.3c-0.2,0.3-0.4,0.5-0.6,0.8c-4.6,6-8.9,11.9-13.2,17.7
			c-4.2,5.8-8.2,11.2-12.3,16.6c-0.2,0.2-0.4,0.5-0.5,0.7c-3.2,4.3-6.5,8.6-10,13.2c-4.7,6.1-9.5,12.4-14.2,19.1
			c-4.8,6.6-9,13.1-13.1,19.4c-2.4,3.7-4.7,7.2-7,10.7c0,0-0.1,0.1-0.1,0.1c-4.8,7.2-9.7,14.4-14.5,21.4c-4.8,7-9.7,14.3-14.6,21.5
			c-5.8,8.5-12.1,17.4-19.5,27.8c-2.6,2.4-4.9,5.2-6.8,8.3c-1.2,1.9-2.2,3.8-3,5.5c-3.6,2.8-6.7,6.3-9.1,10.3
			c-0.3,0.5-0.7,1.1-1.2,1.9c-0.7,1.1-1.6,2.4-2.6,4c-0.6,1-1.2,2.1-1.8,3.2l-3.2,6.3c-2,4-3.3,8.2-3.9,12.4
			c-4.3,6.1-6.8,13.4-7.2,21c-0.5,11,3.5,21.8,11.1,29.7c4.4,4.6,8.9,7.1,11.4,8.3c6,3.4,12.9,5.3,19.8,5.3c4.3,0,8.6-0.7,12.8-2.1
			c1.3-0.4,2.5-0.9,3.7-1.4c7.3-2.5,13.8-7.1,18.6-13.4l0.1-0.1c0.5-0.7,1.3-1.6,2.2-2.9c0.3-0.3,0.6-0.5,0.9-0.8
			c0,4,0.2,7.8,0.3,11.4c0.2,6.6,0.5,12.7-0.2,17.3c-0.4,2.3-0.5,4.7-0.5,7c0,0.5-0.1,0.9-0.1,1.3c-1.2,4.8-1.6,9.8-1.1,14.8
			c-0.3,4.9,0.4,9.8,1.9,14.5c0.2,2.4,0.3,4.7,0.4,6.8c0.1,2.9,0.6,5.7,1.3,8.4c-1.4,6.7-1.2,12.5-1.1,16c0,0.3,0,0.6,0,1v10
			c0,1.7,0.1,3.3,0.3,5c0,0.2,0,0.5,0,0.8c-0.6,3.5-0.9,7.6-0.4,12.3c-1.2,3.5-1.9,7.3-2,11.2c-0.1,2.5-0.1,4.9-0.1,7.2
			c-3.1,0-6.1,0.1-9.1,0.1c-4.8,0.1-9.3,0.1-13.9,0.1c-3.5,0-6.6,0.2-9.4,0.3c-1.9,0.1-3.8,0.2-5,0.2c-1.9,0-4.5-0.2-7.1-0.3
			c-3.6-0.2-7.7-0.5-12.1-0.5c-6.8,0-13.1,0.3-19.2,0.6c-3.8,0.2-7.3,0.4-10.8,0.5c-0.1,0-0.3,0-0.4,0c-3.1,0.1-6.3,0.2-9.7,0.2
			c-3.7,0.1-7.6,0.1-11.6,0.3c-0.2,0-0.4,0-0.6,0c-5,0.3-10.7,0.6-16.7,1.2c-0.1,0-0.2,0-0.4,0c-3,0.4-5.6,0.9-7.7,1.5
			c-1.6,0.1-3.2,0.3-4.7,0.5c-0.4,0.1-0.9,0.2-1.3,0.2c-4.7,0.9-8.4,2.4-10.7,3.3c-10,2.6-18.1,7.6-24.1,15.1
			c-4.9,6.1-10.4,16.2-9.5,30.7c-0.2,7.7,1.8,15.4,6,22.3c4.5,7.3,11.1,12.8,18.8,16c5.3,2.9,11.1,4.6,17.1,4.9
			c-0.5,8.3,1.5,16.7,6.2,24c1,1.6,2,3.1,2.9,4.6c1.7,6,4.9,11.6,9.4,16.4c0.4,0.4,1.3,1.6,2,2.4c0.8,1,1.6,2,2.6,3.2
			c2,6.3,5,11.9,9,16.9l0,0c0.5,0.6,1,1.3,1.5,1.9c2.5,3.2,5.6,7,9.5,11c2.1,3.1,4.6,5.9,7.5,8.3c2.7,3.1,5.8,5.7,9.2,7.9
			c5.2,4.2,11.2,7.1,17.7,8.6c0.4,0.3,0.9,0.5,1.3,0.7c1.7,1.7,3.6,3.5,5.7,5.2c1.7,1.5,3.6,3.2,5.6,5c2.6,2.4,5.3,4.9,8.4,7.5
			c0,0,0.1,0.1,0.1,0.1c12.4,10.3,25.5,18.1,35.6,23.8c4.7,2.7,9.4,5.4,14.3,8.3c7.7,4.6,15.7,9.3,24.3,13.8c0,0,0.1,0,0.1,0.1
			c17.4,9.2,36.7,16.1,58.8,21.3c0.3,0.1,0.5,0.1,0.8,0.2c5.2,1.1,10.7,2.3,16.3,3.6c1.2,0.4,2.7,0.9,4.3,1.4
			c3.7,1.3,8.4,2.9,13.6,4.2c0.2,0.1,0.4,0.1,0.6,0.1c8.1,1.8,16.2,3.3,24.1,4.8l2.7,0.5c0.5,0.1,1,0.2,1.5,0.2
			c1.6,0.2,3.5,0.5,5.7,0.8c0.5,0.1,1,0.2,1.5,0.2c3.8,1.2,7.9,1.8,12,1.8c3.4,0,6.4-0.4,8.8-0.9c1.1,0.1,2.4,0.2,3.7,0.4
			c2.1,0.2,4.4,0.5,7,0.7c3.1,1.6,6.5,2.7,10.1,3.4c7.6,1.5,14.9,2.2,21.8,2.2c5.2,0,10.3-0.4,15.2-1.3c1.7,0.1,3.4,0.1,5,0.1
			c9.7,0,18.9-1,28-3c1,0.1,1.9,0.1,2.8,0.1c5.7,0,11.3-1.2,16.4-3.4c3-0.3,6-0.8,8.9-1.7c2.5-0.2,4.9-0.6,7.4-1
			c1.7-0.3,3.2-0.7,4.6-1c1.6-0.2,3.2-0.5,4.8-0.9c4.5-1.1,8.9-2.2,13.1-3.3c4.6-1.1,9.1-2.2,13.5-3.3c7.7-1.9,14.5-6.1,19.8-11.8
			c7.3-1,14.6-3.9,20.9-8.9c2.6-0.8,5.6-1.8,8.9-3.1c0.4-0.2,0.8-0.3,1.3-0.5c2.9-1.3,5.5-2.6,7.9-3.8c3.7-0.8,7.2-2.1,10.6-3.9
			c5.1-1.4,10-3.8,14.3-6.9c2.6-1.9,5-4,7.1-6.3c1.3-0.7,2.6-1.5,3.9-2.2c0.6-0.3,1.2-0.7,1.9-1c2.6-0.6,5.5-1.6,8.5-3
			c4.9-2.3,9-4.6,12.8-6.9c4.1-2.4,7.7-5.5,10.6-9.1c0.7-0.7,1.3-1.4,1.9-2.1c1.1-1.3,4.6-3.9,7.3-6c1.1-0.9,2.3-1.8,3.6-2.7
			c2.9-1.4,5.5-3.1,8-5.1c3-2.4,5.5-5.2,7.7-8.3c1-0.9,2.1-1.8,3.2-2.7c4.2-3.4,8.9-7.3,13.6-12.3c8.9-9,16.7-17.4,23.8-25.9
			l0.4-0.5c6.6-7.7,14-16.4,20.5-26.5c7.5-11.5,13.8-22.9,19.9-34l1.7-3.1c1.7-3,3.3-5.9,4.8-8.8c0.7-0.1,1.4-0.2,2-0.2
			c0.6-0.1,1.2-0.2,1.8-0.3c7.6-1.2,13.4-4.2,16.2-5.7l0.4-0.2c9.9-5,17.3-14,20.4-24.7c2.9-10,1.7-20.8-3.2-29.9
			c-0.6-1.2-1.5-3.3-2.9-5.6c-0.3-0.6-0.7-1.2-1.1-1.7c-1.3-2-2.6-3.6-3.7-4.9c0.3-0.9,0.5-1.7,0.8-2.5c1.3-4.3,2.4-7.9,3.6-10.7
			c0-0.1,0.1-0.2,0.1-0.3c5.4-12.7,7.5-24.9,9.3-35.7c0.4-2.2,0.7-4.4,1.1-6.4c0-0.2,0.1-0.4,0.1-0.6c1.6-9.3,2.6-18.3,3.6-26.9
			c0.3-2.5,0.6-4.9,0.9-7.4c0-0.2,0-0.4,0.1-0.6c0.2-1.8,0.4-3.6,0.6-5.4c0.6-5.5,1.3-11.6,1.6-18.2c1.6-13.1,1.3-24.8,1-35.2
			c0-1.3-0.1-2.5-0.1-3.8c0,0,0-0.1,0-0.1c-0.2-9.6-0.7-19.2-1.2-28.5l-0.1-2.8c0-0.5-0.1-1-0.1-1.5c-0.1-2-0.2-3.9-0.3-5.9
			c-0.4-8.2-0.7-16.7-1.7-25.6c0-0.4-0.1-0.7-0.1-1.1l-0.1-1c-1.9-14.3-3.8-29.2-7.3-44.3c-3-14.2-7.7-26.9-11.8-38.1
			c-0.1-0.3-0.2-0.6-0.4-0.9l-0.9-2.2c-5-12.8-10.3-26-17.2-39.2c0,0,0-0.1-0.1-0.1c-8.8-16.8-19.1-31.4-29.1-45.6
			c-3.2-4.6-6.3-9-9.3-13.4c-0.1-0.2-0.3-0.4-0.4-0.5c-5.1-7.2-10.5-13.3-15.2-18.8c-4.1-4.7-8-9.1-10.7-13.2
			c-7.6-11.6-17.4-20.2-26-27c-12.2-9.8-24.6-18.3-35.2-25.4c-7.6-5.2-17.6-11.9-28.7-18.1c-6.7-3.7-13.3-6.7-19.2-9.4
			c-1.9-0.9-3.8-1.7-5.5-2.5c-1.4-0.7-2.9-1.4-4.5-2.2c-7.8-3.9-17.5-8.6-29.8-11.2c-0.3-0.1-0.8-0.3-1.2-0.4
			c-0.5-0.2-0.9-0.3-1.4-0.5c-1.8-0.6-3.7-1.3-5.8-2.1c-3.9-1.5-8.4-3.1-13.2-4.6c-2.6-0.8-5.3-1.7-8.2-2.7
			c-6.4-2.1-13.6-4.6-21.4-6.6c-11.8-3-23.4-4.9-32.3-6.1c-8.3-1.2-16.2-1.9-23.8-2.5c-3.3-0.3-6.4-0.5-9.5-0.8
			c-6.5-0.8-14.6-1.7-22.7-2c-7.3-0.4-14.4-0.5-21.3-0.6c-3.2-0.1-6.2-0.1-9.2-0.2c-0.9,0-1.7-0.1-2.6-0.2
			C465.2,20,461.4,19.8,457.2,19.8L457.2,19.8z M575.4,153.7c-2.4-3.3-4.9-6.8-7.2-10.1c6.9,1.8,14.1,4,21.8,6.6
			c0.1,0,0.2,0.1,0.3,0.1c6.2,2,12.9,4.8,19.9,7.8c1.9,0.8,3.8,1.6,5.8,2.4c0.1,0,0.2,0.1,0.2,0.1c20.3,8.3,39.6,18.5,55.9,27.5
			c0.6,0.6,1.3,1.5,1.9,2.2c1.3,1.5,2.8,3.2,4.5,5c0.1,0.1,0.2,0.2,0.3,0.3l0.4,0.4c6.6,6.9,12.8,13.4,18.8,20c5,5.7,9.9,11.7,15,18
			c2.1,2.5,4.1,5.1,6.2,7.6c0,0,0.1,0.1,0.1,0.1c3.5,4.2,7.1,8.4,10.5,12.5c3.2,3.7,6.4,7.6,9.5,11.3c0,0,0.1,0.1,0.1,0.1
			c0.2,0.3,0.5,0.8,0.8,1.2c0.6,0.9,1.3,2.1,2.2,3.3c1.5,2.3,3,4.4,4.4,6.4c2.3,3.3,4.5,6.5,5.9,9c0.5,1.1,1.5,4.1,2.2,6.4
			c0.4,1.3,0.8,2.5,1.2,3.8c1.5,4.6,2.9,9.1,4.4,13.4c1.1,3.4,2.3,6.9,3.4,10.3c1.4,4.6,2.6,9.6,3.8,15c0,0.2,0.1,0.4,0.1,0.6
			c0,0.4,0.1,0.9,0.1,1.3c0.3,2.7,0.7,6.6,1.8,11.1c0,0.1,0,0.2,0,0.3c0,3.8,0,10,1.7,17.1c0.2,3.7,0.8,7.4,2,11
			c1.1,3.4,2.6,6.6,4.4,9.5c0.2,0.4,0.4,0.8,0.6,1.1c0.1,0.1,0.1,0.2,0.2,0.3c0,0.5,0,1,0,1.5c-3.8,5.6-6.3,12.3-6.8,19.6
			c-0.5,6.9,0.5,12.5,1.2,15.9c0.1,2.3,0.4,4.6,0.9,6.9c-0.5,2.4-0.9,5-1,7.5c0,0,0,0,0,0c0-0.1-0.1-0.1-0.1-0.2
			c-3.7-4.7-7.3-10.3-11.1-16.2c-2.6-4-5.2-8-8.1-12.3c-3.4-5.1-6.9-10.1-10.2-15c-3.1-4.5-6.3-9.2-9.4-13.8
			c-0.4-0.6-0.8-1.1-1.2-1.7c-1.5-2-3-3.7-4.1-5.1c-0.5-0.6-1.1-1.3-1.4-1.7c-3.1-4.9-6.1-10-9.2-15.3c-3.3-5.6-6.7-11.4-10.4-17.3
			c-0.1-0.1-0.2-0.2-0.2-0.4c-4.8-7.4-9.7-14.3-14.4-21.1c-1.5-2.1-3-4.3-4.5-6.4c-0.1-0.2-0.3-0.4-0.4-0.6
			c-0.1-0.1-0.1-0.2-0.2-0.3c-0.1-1.8-0.3-3.6-0.4-5.3c0-1.4,0.1-3.1,0.2-5c0.1-3,0.3-6.4,0.3-10.2v-0.5c1.8-8,1.2-16.5-2-24.3
			c-6.2-14.9-20.8-24.7-37-24.7c-2.3,0-4.7,0-7.2-0.1c-1.1,0-2.3,0-3.4,0c-2.6-3.7-5.3-7.6-8-11.7c-2.9-4.3-5.8-8.7-9.1-13.3
			c-8.6-12.2-17.6-24.3-25.5-35c-3.3-4.5-6.7-8.9-9.9-13.2C582.4,163.1,578.9,158.3,575.4,153.7L575.4,153.7z M443.2,183.1
			c1.1-1.6,2.3-3.3,3.4-4.9c2.3-3.3,4.4-6.4,6.5-9.4c1.9,2.4,3.7,4.7,5.4,7c2.8,3.9,5.5,7.7,8.3,11.8c3,4.3,6.2,8.8,9.4,13.2
			c6.8,9.7,13.2,18.9,19.5,28.3c0.1,0.1,0.2,0.3,0.3,0.4c3.3,4.9,6.6,9.8,9.8,14.7c-4.7,0.4-9.3,0.8-13.9,1.2
			c-5.6,0.5-10.9,1-16.3,1.4c-0.1,0-0.2,0-0.3,0c-18.7,1.6-37.8,2-60.7,2c-6.9,0-13.2,0.6-18.7,1.1c1-1.2,2.1-2.6,3.2-3.9
			c0.2-0.3,0.4-0.6,0.7-0.9c0.3-0.3,0.5-0.7,0.7-1c1.7-2.2,4.2-5.5,6.7-9.9c1.2-2.2,2.2-4.4,3-6.8c3.5-2.4,6.7-5.4,9.3-9
			c1.1-1.5,2.5-3.2,4-5c0.9-1.1,1.9-2.3,2.8-3.6c5.5-4.2,9.9-9.9,12.7-16.6c0.1-0.3,0.4-0.8,0.7-1.5c0.5-1.1,1.3-2.6,2-4.4
			C442.2,185.9,442.8,184.5,443.2,183.1L443.2,183.1z M462.3,378.3c2.8-0.9,5.7-1.8,8.4-2.5c1.6,0,3.1,0.1,4.7,0.1
			c4.7,0.1,9.2,0.2,13.4,0.5c0.1,0,0.3,0.1,0.6,0.2c1.7,0.6,3.9,1.5,6.2,2.6c2.8,1.5,5.6,3.3,8.6,5.3c0.2,0.2,0.5,0.3,0.7,0.5
			c2.4,1.6,5,3.4,7.7,5.3c4.7,3.3,10.1,7.1,16,10.6c1.9,1.2,3.7,3.1,5.6,5.9c0.1,0.1,0.2,0.3,0.3,0.4c1.3,1.8,2.6,3.5,3.8,5.2
			c1.9,2.5,4.4,6,5.1,7.5l3.6,16c0.1,0.3,0.1,0.6,0.2,0.9c-0.7,4-1.3,7.9-1.9,11.8l-0.2,1.6c-0.7,3.6-1.7,9-1.4,15.6
			c-0.5,1.3-1.4,3.5-2.1,5.3c-0.2,0.3-0.4,0.6-0.5,0.9c-0.8,1.3-1.8,3.2-2.9,5.3c-3.4,6.7-4.7,14.1-4,21.2
			c-1.5,3.8-3.1,7.4-4.7,10.7c-0.3,0.4-0.8,1-1.1,1.5c-1.4,1.8-3.1,4.1-5,7c-1.5,2.2-2.8,4.2-3.9,5.9c-0.6,0.9-1.4,2.1-1.8,2.8
			c-0.2,0.2-0.4,0.4-0.5,0.6c-5.8,4.3-11.8,8.6-17.3,11.6c-0.4,0.2-0.7,0.4-1.1,0.6c-0.5,0.2-1.5,0.5-3.9,1.2
			c-0.3,0.1-0.5,0.1-0.8,0.2c-1.2,0.3-2.5,0.6-3.7,0.9c-6.3,1.6-12.3,3.1-17.2,3.7c-0.3,0-0.6,0.1-0.9,0.1c-2.6,0.4-6.2,0.4-9.4,0.4
			c-1.2,0-2.4,0-3.5,0c-1.3,0-2.7,0-4,0c-5.6,0-11.1-0.2-16.7-0.6c-3.4-0.3-8-0.8-9.3-1.4c-0.1,0-0.1-0.1-0.2-0.1
			c-2.6-1.2-5.2-2.3-7.6-3.4c-3.7-1.6-7.2-3.2-10.3-4.7c0,0-0.1,0-0.1-0.1c-3-1.5-4.2-2.3-4.6-2.6c-3.8-4.5-7.7-8.2-11.1-11.1
			c-0.4-0.7-0.8-1.4-1.2-2.1c-1.3-2.1-2.7-4.5-4-6.9c-0.9-2.1-2.1-4.5-3.8-7.1c-0.8-1.3-1.7-2.5-2.7-3.7c-0.3-0.4-1-1.2-1.3-1.6
			c-0.3-0.5-0.7-1.1-1.1-1.7c-1.6-2.6-3.8-6.1-6.8-9.8l-0.6-1.5c-0.5-1.3-1.1-2.6-1.8-3.8c1.6-2.4,3.1-5.2,4.2-8.3
			c1.8-4.6,3.1-9.6,3.8-14.6c0,0,0,0,0,0c2.7-5.4,4-11.2,4.1-16.9c0.1-0.2,0.1-0.4,0.2-0.6c0.3-0.5,0.5-1,0.8-1.5
			c7.3-6.2,12.7-14.5,15.5-23.6c1-1.1,2-2.2,3-3.4c0.3-0.3,0.5-0.6,0.8-1c0.9-1.2,1.8-2.4,2.5-3.5c3.7-2.3,7.5-5,11.3-8.5
			c2.8-1.2,5.6-2.8,8.1-4.8c0.5-0.4,1.7-1.1,2.5-1.6c1.3-0.8,2.6-1.6,3.9-2.5c3.2-2.1,6-4.7,8.5-7.6c3.6-1.6,7.1-3.2,10.7-4.8
			C454.7,380.1,458.3,379.6,462.3,378.3L462.3,378.3z M692.6,524.4c0-1.1-0.1-2.2-0.2-3.5c2.3,3.4,4.8,7,7.4,10.8
			c0,0.1,0.1,0.1,0.1,0.2c5.3,7.5,10.6,14.5,15.9,21.3l0.4,0.5c0.3,0.4,0.6,0.9,1,1.3c-5.6,0-11.2,0.1-16.8,0.2
			c-2.1,0-4.2,0.1-6.1,0.3c0.6-3.1,1-6.7,0.7-10.7c-0.2-2.5-0.5-5-1.1-7.4c0-2.8-0.2-5.6-0.7-8.4C693.1,527.6,692.9,526,692.6,524.4
			L692.6,524.4z M695.2,655.4c4-0.2,7.8-0.5,11.5-0.8c0.6,0,1.1-0.1,1.7-0.1c-0.1,0.2-0.2,0.3-0.4,0.5c-1,1.3-2.3,2.9-3,3.7
			c-5.3,3.7-9.3,7.7-12.3,10.7c-2.4,2.3-4.5,4.5-6.4,6.4c-2,2.1-4,4.1-5.4,5.3c-5.8,4.9-12.2,9.5-17.7,13.4
			c-7.8,5.5-16.7,11.7-25.2,17.3h0c-1.2,0.8-3.4,2-5.7,3.2c-2.2,1.2-4.6,2.5-7.3,4c-2.5,1.4-4.9,2.8-7.4,4.2
			c-2.4,1.4-4.8,2.7-7.3,4.2c-0.7,0.4-1.4,0.9-2.1,1.3c-2.4,1.6-4.4,3.1-5.9,4.3c-4.1,1.6-8.4,3.3-13,5c-3.1,1.2-6.4,2.3-9.6,3.6
			c-0.4,0.2-0.9,0.3-1.3,0.5c-3.5,1.5-6.7,2.9-9.4,4.1c-4,1.8-7.2,3.2-9.9,4.2c-3,1-6.5,2-10.5,2.9c0,0-0.1,0-0.1,0
			c-2.1,0-4.1,0.1-6.1,0.3c-0.8,0.1-1.7,0.2-2.5,0.4c-1.8,0.3-3.6,0.7-5.1,1c-2.3,0.5-4.5,0.9-5.9,1.1c-0.3,0-0.5,0.1-0.8,0.1
			c-5.3,0.7-10.8,1.3-16.5,2c-5.8,0.7-11.8,1.3-17.9,2.2c-4.1,0.5-7.9,1.1-11.3,1.6c-2.5,0.4-4.8,0.7-7,1c-1.1,0-2.5-0.1-4-0.1
			c-2.2-0.1-4.7-0.2-7.5-0.2c-2.8,0-5.1,0.2-6.9,0.3c-2.1-0.4-4.3-0.8-6.7-1.3c-1.8-0.4-3.6-0.7-5.6-1.1c-2.9-0.6-6.5-1.3-10.9-1.3
			c-1.2,0-2.3,0-3.5,0.1c-1.1-0.2-2.2-0.4-3.4-0.5c-0.9-0.1-1.7-0.2-2.6-0.2c-2.8-0.7-6.4-1.4-10.6-1.5c-1.2-0.4-2.6-0.7-4.2-1.1
			c-0.1,0-0.2,0-0.2-0.1c-2.5-0.6-4.9-1.1-7.4-1.7c-0.9-0.2-1.8-0.4-2.7-0.6c-5.5-2.8-11.7-4.2-17.9-4.2c-1.7,0-2.8,0-3.5,0
			c-2.2-0.8-5.2-2-9-3c-3.1-1.7-6.1-2.8-8.9-3.5c-1.2-0.7-2.6-1.5-4.1-2.2c-2.3-1.7-5.5-3.8-9.6-5.5c-0.4-0.2-0.8-0.5-1.2-0.7
			c-4.5-2.8-12.3-7.7-23.2-9.8c-0.8-0.3-1.8-0.7-3-1c-1.2-0.4-2.3-0.7-3.5-1c-1.3-0.7-2.7-1.5-4-2.3c-1.2-0.7-2.3-1.3-3.5-2
			c-0.4-0.3-0.8-0.6-1.3-0.9c-0.1-0.1-0.2-0.2-0.4-0.2l-7.1-4.7c-4.2-2.8-8.9-4.8-13.7-5.8c-2-1.1-3.8-2.2-5.5-3.1
			c-2.5-1.4-5.4-3-6.6-3.9c-1.8-1.4-3.4-2.6-4.6-3.5c-6.3-7.1-13.9-12.9-23.2-17.8c-1.8-2.9-3.8-5.6-6.2-8c5.8,0.1,11.7,0.2,18,0.4
			c3.6,0.1,7.3,0.2,11,0.3c0.3,0,0.7,0,1,0c2.2,0,4.2-0.1,5.8-0.2c0.6,0,1.5-0.1,1.8-0.1h19.2c0.4,0,0.8,0,1.2,0
			c8.8-0.3,17.8-0.5,26.5-0.7c8.1-0.2,16.5-0.4,24.8-0.6c5-0.1,10-0.3,14.9-0.5c5-0.2,9.8-0.4,14.5-0.5l29.9-0.8
			c5.7-0.1,11.7-0.2,17.4-0.3c5.4-0.1,11-0.1,16.5-0.2c7.7,0,15.2-0.2,22.4-0.4l4.1-0.1c7.2-0.2,14.2-0.6,21.1-1.1
			c3.3-0.2,6.3-0.4,9.4-0.6c6-0.3,11.6-0.9,17.1-1.4l0.2,0c2.2-0.2,4.3-0.4,6.4-0.6c3.9-0.4,7.7-0.7,10.9-0.9c0.2,0,0.4,0,0.6,0
			c4.5-0.3,9.1-0.4,14-0.6c4.8-0.2,9.7-0.4,14.7-0.7c0.1,0,0.3,0,0.4,0c3.1-0.2,6.1-0.4,9.2-0.6c8.6-0.6,16.8-1.2,24.8-1.4
			c0.3,0,0.7,0,1,0c5.8-0.3,11.9-0.3,18.4-0.3c4.6,0,9.3,0,14.1-0.2c0.1,0,0.1,0,0.2,0c4.9-0.1,9.8-0.3,14.6-0.5
			c5.1-0.2,9.9-0.4,14.8-0.5c0.3,0,0.6,0,0.9,0l16.1-0.8C679.9,656.2,689,656,695.2,655.4L695.2,655.4z" />
    </g>
    <g>
      <path class="st0" d="M664.2,806.9c-9.1,0-17.1-5.3-20.9-13.8c-2.8-6.2-2.2-13.3,1.5-19c1.8-2.8,4.2-5,7.1-6.6
			c3.1-1.8,6.6-2.8,10.3-2.8c0.9,0,1.7,0.1,2.6,0.2c1.2-1.4,2.7-2.6,4.3-3.7c1.5-1,3.1-1.9,4.7-2.9c1.4-0.9,2.9-1.7,4.3-2.6
			c3.2-2.1,7-3.1,10.8-3.1c1.7,0,3.4,0.2,5,0.6c4.8,1.2,9,4.2,11.7,8.4c0.6,0.8,1.5,2,2.3,3.7c4.3,8.7,1.8,19.4-6.2,25.1
			c-4.3,3.1-9.7,6.5-17,8.1c-0.5,0.1-1,0.2-1.5,0.3c-1,1.1-2.2,2.1-3.4,3C674.6,805.2,669.4,806.9,664.2,806.9z M121.6,566.3
			c-1.1,0-2.2-0.1-3.2-0.3c-6.5-1.1-12.1-5.3-14.9-11.2c-1.1-2.3-2.1-4.6-3.2-6.9c-1-2.3-2.1-4.6-3.1-6.8
			c-3.5-7.5-2.1-16.4,3.7-22.4c4-4.2,11.1-7.2,16.8-7.2c6.6,0,12.7,3.2,16.5,8.6c3.2,4.6,5,9.2,6.5,12.9c0.5,1.4,1,2.6,1.5,3.6
			c4.6,9.8,0.6,21.6-9.1,26.4c-1.8,0.9-4.1,2.1-7,2.7C124.5,566.1,123.1,566.3,121.6,566.3z M648.7,534.1c-3.3,0-6.6-0.8-9.6-2.5
			c-4.6-2.3-8.2-6.4-9.9-11.5c-2.4-7.3-0.5-15.4,5.1-20.8c5-4.8,10.4-5.8,14.1-5.8c6.8,0,12.9,3.5,16.5,8.8c5.8,8,4.9,19.3-2.4,26.2
			C658.6,532.3,653.7,534.1,648.7,534.1z M164.8,485.4c-1.2,0-2.4-0.1-3.6-0.3c-4.8-0.7-8.9-3-12-6.3c-1.9-1.3-3.7-2.9-5.1-4.8
			c-4.8-6.6-5.2-15.4-0.9-22.3c1.4-2.3,2.7-4.2,3.8-5.9c0.7-1.1,1.4-2.2,2.1-3.3c1.1-1.8,2.6-3.4,4.2-4.7c0,0,2.4-2,2.8-2.3
			c0.9-2.6,2.5-5.1,4.4-7.1c-0.1-4,1-8,3.4-11.5c1.4-2.1,3.2-4.2,4.9-6.3c0.8-0.9,1.9-2.3,2.3-2.8c3.2-4.8,8.3-7.9,14-8.6
			c1.6-2,3.2-4,5-6c3.7-4.3,9-6.9,14.6-7c0.2,0,0.4,0,0.6,0c2.8,0,5.6,0.6,8.1,1.7c1.9,0.6,5,1.8,8.1,4.7c7.6,7.1,8.6,18.8,2.2,27
			l-1,1.3c-2.6,3.4-5.9,7.6-8.3,10.8c-1.1,1.5-2.3,2.8-3.7,3.9c-0.1,0.2-0.2,0.5-0.3,0.7c-0.7,4.1-2.8,7.9-5.7,10.8
			c-1.3,2.6-3.3,5.2-6.4,7.7c-0.1,0.1-0.2,0.2-0.3,0.4c-0.8,4.8-2.8,8.8-6.1,12.1c-0.5,0.5-1,1-1.6,1.4c-1.1,0.9-2.2,1.7-3.3,2.6
			c-0.3,0.2-0.6,0.5-0.9,0.7C180,484.1,169.3,485.4,164.8,485.4z" />
      <path class="st1" d="M205.3,406.1c0.2,0.3,2.3,0.8,2.6,1.1c-2.9,3.7-6.9,8.7-9.7,12.6c-0.5-0.5-1.3-2.4-1.8-2.6l0,0
			C199.3,413.4,202.2,409.8,205.3,406.1 M187.7,419c0.3,0.3,0.5,0.5,1.1,0.8c-1.6,2.4-3.2,5-4.7,7.4c0,0-0.1,0-0.1,0
			c-0.6,0-2.6,0.9-3.1,0.9c-0.1,0-0.1,0-0.1,0C182.2,425.6,186.1,421.3,187.7,419 M188.7,419.8L188.7,419.8
			C188.7,419.8,188.7,419.8,188.7,419.8C188.7,419.8,188.7,419.8,188.7,419.8 M193.2,422.9c0.3,0.3,0.5,0.3,0.8,0.5
			c-1.1,1.6-1.1,2.9-2.1,4.7c0,0-0.8,0.3-1.3,0.3c-0.5,0.8-1.1,1.6-1.3,2.4l0,0c0,0.3,0.3,1,1.3,1.8c-2.1,1.1-4,1.8-3.7,4.7
			c0,0.8-1.3,1.9-2.6,2.6c-2.4,2.9-5.8,7.4-8.2,10c0.8,0.3,2.1,0.3,2.1,0.5c0,0.8,0,1.9-0.5,2.4c-2.6,2.1-5.3,4-7.6,6
			c-0.5,0.3-0.8,1.3-1.1,1.9c-1,1.9-1.3,4.5-4.2,4.5c-0.3,0-0.5,0-0.8-0.1c0.2-2.1-0.3-3.4-2.1-3.4c-0.4,0-1,0.1-1.6,0.2
			c2.1-3.4,4-6.1,5.8-9c2.9-2.4,5.5-4.5,8.2-6.9l4.7-3.2c1.1-0.8,1.8-1.8,2.9-2.6c0,0.1,0,0.1,0.1,0.1c0.2,0,0.8-0.4,1.3-0.6
			c0.8-2.1,1.6-4.5,2.4-6.6c-0.3-0.3-0.3-0.5-0.5-0.8c-1.1,1.6-1.9,3.2-2.9,4.7l-0.3-0.3c-2.4,2.1-5.5,5.5-7.4,7.4
			c0-0.8,0.3-1.6,0.5-2.4c1.6-1.6,3.4-2.9,5-4.5c0,0,0.8-0.3,1.3-0.8l-0.3-0.3c0.5-1.3,0.8-2.6,1-3.2c1.3-1,2.6-1.3,2.9-2.1
			c0.9-2.6,1.7-3.7,3.4-3.7c0.2,0,0.4,0,0.6,0c0-0.5,0-0.8-0.5-1.3C190,425.3,191.6,424,193.2,422.9 M648.4,513.6c0,0,0,0.1,0,0.2
			l0.3,0.3c0,0-0.3-0.3-0.5-0.3l0,0C648.3,513.7,648.4,513.6,648.4,513.6 M117.7,531.5c2.9,4.2,4.2,9.2,6.3,13.7c0,0-2.1,1-2.4,1
			l0,0c-2.1-4.5-4.2-9.2-6.3-13.7C115.6,532.3,117.4,531.5,117.7,531.5 M688.7,772.6c0.3,0.5,0.8,1,1.1,1.6l0,0
			c-2.9,2.1-5.8,4-9.5,4.7c-0.3-0.3-0.3-0.5-0.5-0.8C682.7,776.3,685.8,774.5,688.7,772.6 M662.2,784.8c1.8,0.3,3.9,0.5,6,0.5
			c-1.6,1.1-3,1.6-4,1.6c-1.2,0-2-0.7-2.6-1.9h0C661.9,785,661.9,784.8,662.2,784.8 M205.3,366.1c-0.4,0-0.8,0-1.2,0
			c-11.3,0.3-21.9,5.5-29.2,14.1c-0.4,0.5-0.8,0.9-1.2,1.4c-7.5,2.8-14,7.8-18.7,14.5c-0.4,0.4-1,1.2-1.5,1.8c-2,2.3-4.2,5-6.2,8
			c-3.1,4.7-5.1,9.8-6.1,15.1c-0.4,0.7-0.8,1.4-1.2,2.1c-3,2.6-5.6,5.6-7.7,8.9c-0.6,0.9-1.2,1.9-1.9,3c-1.2,1.8-2.6,3.9-4.1,6.4
			c-8.6,13.9-7.9,31.5,1.8,44.7c2.3,3.2,5.1,6,8.1,8.3c5.9,5.7,13.5,9.6,22.2,10.9c2.1,0.3,4.3,0.5,6.4,0.5
			c12.6,0,24.5-5.4,32.6-14.8c1.6-1.9,3-3.7,4.1-5.5c0.4-0.3,0.8-0.6,1.1-0.9c1.1-0.9,2.2-1.9,3.3-2.9c3.5-3.5,7.4-8.7,9.8-15.8
			c2-2.2,3.6-4.4,5-6.6c3.2-3.7,5.8-8,7.4-12.7c0.8-0.9,1.5-1.8,2.3-2.8c2.2-3,5.4-7,7.9-10.3l1-1.3c12.8-16.4,11-39.9-4.3-54
			c-5.6-5.2-11.3-7.5-14.5-8.7C215.8,367.1,210.6,366.1,205.3,366.1L205.3,366.1z M233.9,378.1L233.9,378.1L233.9,378.1L233.9,378.1
			z M648.4,473.6c-6,0-17.7,1.5-28,11.4c-11.1,10.7-15.1,26.8-10.2,41.5c3.3,9.8,10.1,17.8,18.8,22.5c6.1,3.4,12.9,5.2,19.7,5.2
			c9.9,0,19.8-3.7,27.5-11c14.8-14,16.5-36.7,4.7-52.7C673.7,480.2,661.8,473.6,648.4,473.6L648.4,473.6z M117.7,491.5
			c-11.1,0-23.4,5.2-31.2,13.3c-11.5,11.9-14.4,29.7-7.4,44.8c1,2.1,2,4.2,3,6.5c1.1,2.3,2.2,4.7,3.3,7.1
			c5.5,11.8,16.5,20.2,29.3,22.4c2.3,0.4,4.6,0.6,6.9,0.6c2.4,0,4.8-0.2,7.1-0.6c6-1.1,10.5-3.3,13.2-4.7
			c19.4-9.7,27.6-33.2,18.3-52.8c-0.2-0.4-0.6-1.5-1-2.4c-1.6-4.2-4.1-10.4-8.6-17C143.1,498,130.8,491.5,117.7,491.5L117.7,491.5z
			 M688.7,732.6c-7.6,0-15,2.1-21.5,6.3c-1.1,0.7-2.5,1.5-3.9,2.4c-1.6,1-3.2,2-5,3.1c-0.4,0.2-0.7,0.5-1,0.7
			c-5.9,0.7-11.6,2.7-16.6,5.9c-5,3.1-9.3,7.2-12.6,12.3c-7.4,11.4-8.5,25.7-3,38c7,15.8,22,25.7,39.1,25.7c9.3,0,18.3-2.9,26.7-8.7
			c0.5-0.4,1-0.7,1.5-1.1c9.1-2.6,15.8-6.9,20.8-10.5c15.8-11.5,21.1-32.7,12.4-50.2c-1.3-2.7-2.7-4.8-3.8-6.3
			c-5.4-8-13.6-13.8-23.1-16.3C695.5,733,692.1,732.6,688.7,732.6L688.7,732.6z" />
    </g>
    <g>
      <path class="st0" d="M696.4,790c-4,0-8-1.2-11.5-3.6c-2.5-1.6-4.7-3.8-6.3-6.4c-3.6-5.9-4-13.3-0.8-19.5c0.5-1,1-1.9,1.3-2.5
			c0.1-0.2,0.2-0.3,0.3-0.5c2.2-4.3,5.9-7.7,10.4-9.5c2.5-1,4.7-1.5,6.6-1.9c0.4-0.1,0.8-0.2,1.3-0.3c1.5-0.4,3.1-0.5,4.6-0.5
			c7.6,0,14.7,4.3,18.1,11.4c4,8.5,1.6,18.7-5.9,24.4l-1.3,1c-1,0.7-2.2,1.7-2.6,2C706.6,788,701.5,790,696.4,790z M648.8,596.1
			c-3.4,0-6.8-0.9-9.8-2.5l0,0c-3.7-2-6.8-5.1-8.8-9.1c-1.1-2.2-2.5-5.8-2.5-10.1c0-2.7,0.2-5.1,0.4-7.6c0.1-0.6,0.1-1.3,0.2-1.9
			c0.4-4.4,2.2-8.5,5.1-11.8c3.8-4.2,9.3-6.6,14.8-6.6c1.8,0,3.6,0.2,5.3,0.7c5.2,1.4,9.5,4.9,12,9.4c4.5,5.5,5.5,10.9,5.3,15.2
			c0.1,0.9,0.2,1.8,0.2,2.6c0,5.6-2.3,11.1-6.4,15.2c-1.6,1.6-3.5,3-5.6,3.9C656.8,594.7,653.3,596.1,648.8,596.1z M108,565.7
			c-5.3,0-10.4-2.1-14.1-5.8c-1.5-1.5-2.8-3.3-4-5.3c-2.6-4.5-3.3-8.9-2.9-12.8c-2.3-3-3.6-6.4-4.1-10c-1.1-7.9,2.5-14,3.9-16.4
			c0.8-1.3,1.7-2.5,2.7-3.5c0.8-3.8,2.6-7.4,5.5-10.3c2.5-2.5,6.5-5,11.1-6.2c1.8-0.5,3.6-0.7,5.4-0.7c7.5,0,14.6,4.2,18.1,11.4h0
			c0.2,0.4,0.4,0.8,0.6,1.3c0.5,1.3,1,2.6,1.5,4c0.5,1.4,1.1,2.8,1.6,4.1c2.4,6,1.8,12.8-1.7,18.2c1.1,2.4,1.8,5.1,1.8,7.9l0,0.2
			c0.1,0.9,0.2,2.3,0.2,4c0,11-9,20-20,20H108z M183.8,465.6c-5.5,0-9.5-2-11.4-3c-7.4-3.7-11.7-11.5-10.9-19.7
			c0.6-6.1,3.9-11.5,8.8-14.7c1.1-5,4.1-9.5,8.4-12.3c2.8-3.7,6.8-6.3,11.4-7.4c1.5-0.4,3-0.5,4.6-0.5c5.2,0,10.3,2.1,14.1,5.8
			l1,1.1c6.5,6.5,7.7,16.6,3,24.4l-2.4,4c-0.2,0.4-0.4,0.7-0.7,1.1l-6.7,9.7c-1.3,2.2-4.7,7.9-12.1,10.4c-0.1,0-0.2,0.1-0.4,0.1
			C188.3,465.3,186.1,465.6,183.8,465.6z M449.7,365.5c-7,0-13.6-3.7-17.2-9.7c-2.6-4.4-4.8-11.6-0.1-20.6
			c2.1-4.8,5.9-8.6,10.8-10.5l1.3-0.6c1.7-0.8,3.5-1.6,5.6-2.5c2.7-1.2,5.5-1.8,8.4-1.8c4.3,0,8.6,1.4,12.1,4.1
			c5.9,4.5,8.8,11.8,7.6,19.1c0,0.2,0,0.3,0,0.5c0,6.4-3.1,12.5-8.3,16.2c-3.2,2.3-7,3.6-10.9,3.7c-1.5,0.7-3.3,1.3-5.3,1.7
			C452.3,365.3,451,365.5,449.7,365.5z M374,234.2c-1.5,0-3.1-0.2-4.6-0.5c-8-1.9-14-8.5-15.2-16.6c-0.1-0.9-0.2-1.7-0.3-2.4
			c0,0,0-0.1,0-0.1c-1.9-8.2,1.6-16.7,8.5-21.2c0.2-0.1,0.4-0.2,0.5-0.4c0.9-0.6,1.7-1.1,2.5-1.6c0.6-0.4,1.1-0.7,1.8-1.1
			c3.4-2.3,7.3-3.4,11.1-3.4c5.2,0,10.3,2,14.1,5.9l0.5,0.5c7.1,7.1,7.8,18.3,1.8,26.3c-0.6,0.8-1.3,1.8-2.2,3.1
			c-0.6,1-1.3,2-2.1,3.1C386.6,231.1,380.4,234.2,374,234.2z" />
      <path class="st1" d="M378.2,206.9l0.5,0.5c-1.6,2.1-2.9,4.2-4.8,6.8c-0.3-1.8-0.3-2.9-0.5-4.2c-0.3,0,0,0,0.3-0.3l0,0
			C375.3,208.7,376.6,207.9,378.2,206.9 M458.4,339.7c-0.3,1.6-0.3,2.6-0.3,3.7c-0.8-0.3-1.9-0.5-2.6-0.5c-1.6,0.3-4.5,2.4-5.8,2.6
			c-0.2,0,1.1-2.1,1.1-2.4h0C453.2,342,455.6,341,458.4,339.7 M194.5,427.9l1,1l-2.4,4l-7.1,10.3c-0.5,0.8-1,2.1-1.8,2.4
			c-0.1,0-0.3,0.1-0.5,0.1c-0.7,0-1.6-0.4-2.4-0.9c3.7-1.1,7.4-6.3,8.4-12.4l1.6,0.8C192.4,431.4,193.5,429.8,194.5,427.9
			L194.5,427.9 M111.4,514.6L111.4,514.6C111.4,514.6,111.4,514.6,111.4,514.6C111.4,514.6,111.4,514.6,111.4,514.6 M111.4,514.6
			c1,2.7,2.1,5.5,3.2,8.2c-0.3,0-1.8,0.8-2.1,1.1c-1.1-2.6-2.4-5.5-3.4-8.2C109.3,515.4,110.9,514.6,111.4,514.6 M104,525.5
			c0.5,1.8,0.8,3.4,1.3,5.3c-0.3,0.2-0.5,0.5-0.5,0.8c-0.8-0.8-2.1-1.6-2.1-2.4C102.4,528.1,103.2,526.8,104,525.5 M104.8,531.5
			C104.8,531.5,104.8,531.5,104.8,531.5L104.8,531.5C104.8,531.5,104.8,531.5,104.8,531.5 M113.2,542c0,1.3,0.3,2.4,0.3,3.7H108
			c-0.3-0.3-1.3-1.9-1.1-2.1c1.3,0,2.6,0.3,4.2,0.3c0-1.1,1.3-0.8,1.3-1.8H113.2 M106.9,543.6C106.9,543.6,106.9,543.6,106.9,543.6
			C106.9,543.6,106.9,543.6,106.9,543.6L106.9,543.6 M648.2,566.5c0.5,2.6,5.5,4,0.5,6.6c0.8,0.5,1.6,0.8,2.4,1.3
			c0,0.3-0.3,0.8-0.5,1.1c-0.4,0.2-1.2,0.6-1.7,0.6c-0.1,0-0.3,0-0.4-0.1c-0.3,0-0.8-1-0.8-1.6C647.7,572.1,647.9,569.7,648.2,566.5
			L648.2,566.5 M702.2,765.3c-2.4,1.8-4.2,3.2-5.8,4.7c-0.3-0.3-0.5-0.5-0.8-0.5c0.5-1,1.1-1.8,1.6-2.9
			C698.5,766,700.1,765.8,702.2,765.3 M378.2,166.9c-7.7,0-15.4,2.2-22.2,6.8c-0.5,0.3-0.9,0.6-1.4,0.9c-0.8,0.5-1.8,1.1-2.9,1.9
			c-13.8,8.9-20.9,25.2-17.6,41.5c0.1,0.6,0.1,1.2,0.3,1.9c2.3,16.3,14.3,29.5,30.3,33.3c3.1,0.7,6.2,1.1,9.3,1.1
			c12.9,0,25.2-6.2,32.8-17.1c0.9-1.3,1.7-2.4,2.3-3.4c0.6-0.9,1.2-1.8,1.5-2.2c12.1-15.9,10.6-38.4-3.5-52.5l-0.5-0.5
			C398.7,170.8,388.5,166.9,378.2,166.9L378.2,166.9z M458.4,299.7c-5.7,0-11.4,1.2-16.7,3.7c-1.9,0.9-3.6,1.6-5.4,2.4l-1,0.4
			c-9.3,3.9-16.8,11.1-20.9,20.2c-0.2,0.4-0.4,0.9-0.7,1.4c-5.9,12.4-5.3,26.7,1.7,38.2c7.2,12,20.3,19.4,34.3,19.4
			c2.6,0,5.2-0.3,7.7-0.8c2.3-0.5,4.4-1.1,6.2-1.7c6.3-0.9,12.5-3.3,17.8-7.1c10.2-7.3,16.4-19,16.7-31.5c1.6-14-4.2-27.9-15.5-36.5
			C475.6,302.4,467.1,299.7,458.4,299.7L458.4,299.7z M194.5,387.9c-3,0-6.1,0.3-9.1,1c-8.1,1.9-15.3,6.3-20.7,12.3
			c-5.1,4.1-9,9.3-11.6,15.2c-6.4,6.4-10.6,15-11.5,24.5c-1.6,16.4,7.1,32.1,21.8,39.5c2.8,1.4,10.2,5.2,20.5,5.2
			c4.4,0,8.7-0.7,12.8-2c0.2-0.1,0.5-0.2,0.7-0.2c9.4-3.3,17-9.5,22.4-18.6l6.3-9.2c0.5-0.7,0.9-1.4,1.4-2.1l2.4-4
			c9.5-15.7,7-35.9-6-48.9l-1-1C215.2,392,205,387.9,194.5,387.9L194.5,387.9z M111.4,474.6c-3.3,0-6.7,0.4-10,1.3
			c-8.8,2.2-16.1,7-20.6,11.5c-4.3,4.3-7.5,9.5-9.5,15c-0.6,0.9-1.2,1.7-1.7,2.7l0,0.1c-6.4,10.7-8.3,21.7-5.9,32.6
			c0.7,3,1.7,6.3,3.4,9.6c0.5,5.8,2.3,11.6,5.4,17c2.1,3.6,4.5,6.8,7.2,9.6c7.5,7.5,17.7,11.7,28.3,11.7h5.5c22.1,0,40-17.9,40-40
			c0-2.4-0.2-4.4-0.3-5.6c-0.1-1.7-0.3-3.4-0.6-5c2.8-8.8,2.6-18.4-1-27.1c-0.4-1.1-0.9-2.4-1.4-3.7c-0.5-1.3-1-2.5-1.4-3.8
			c-0.4-1.1-0.9-2.3-1.5-3.4C140.4,482.9,126.2,474.6,111.4,474.6L111.4,474.6z M648.2,526.5c-10.5,0-20.7,4.1-28.3,11.7l0,0
			c-6.7,6.7-10.8,15.6-11.6,25c-0.1,0.6-0.1,1.2-0.2,1.8c-0.2,2.7-0.5,5.8-0.5,9.4c0,6.5,1.6,13.2,4.7,19.1
			c5.3,10.4,14.4,17.8,25,20.9c3.7,1.1,7.6,1.6,11.5,1.6c9.5,0,16.5-3.3,18.8-4.4c4.2-2,8-4.6,11.2-7.9c7.8-7.8,12.2-18.5,12.2-29.3
			c0-1.2-0.1-2.4-0.2-3.6c0-7.1-1.8-16.4-8.9-25.6c-5-8-12.9-14.1-22.2-17C656,527.1,652.1,526.5,648.2,526.5L648.2,526.5z
			 M702.2,725.3c-3,0-6.1,0.3-9.2,1.1c-0.4,0.1-0.7,0.2-1,0.2c-2.3,0.5-5.7,1.3-9.6,2.9c-8.8,3.5-16.1,10.1-20.5,18.5l0,0.1
			c-0.4,0.7-1.1,1.9-1.9,3.4c-6.3,12.4-5.6,27.2,1.6,39c3.1,5.1,7.3,9.3,12.2,12.5c6.8,4.7,14.7,7,22.7,7c9.9,0,19.9-3.7,27.6-11
			c0.3-0.3,0.8-0.6,1.2-0.9c0.4-0.3,0.9-0.7,1.4-1c14.9-11.5,19.8-31.9,11.7-48.9C731.6,733.9,717.3,725.3,702.2,725.3L702.2,725.3z
			" />
    </g>
  </g>
  <g>
    <path class="st0" d="M211.5,382.5c1.1,0.8,2.9,1.3,1.1,2.9c-1.3,1.8-2.9,3.4-4,5.5c-1,1.9-1.8,2.4-3.4,1.1
		C207.3,388.6,209.4,385.4,211.5,382.5L211.5,382.5z M740.4,658.7c0,0.8,0.3,1.3,0.3,2.1c0.5-1,0.5-1.6,0.8-2.1H740.4z M740.4,661
		v-0.3V661z M686.7,763.8l-45.8-254c-0.8-0.3-1.8-0.8-3.7-1.3c0.5,1,0.8,1.8,1.1,2.6c1.3-0.3,1.8-0.3,2.4-0.5c0-0.3,0-0.5,0.3-0.8
		L686.7,763.8L686.7,763.8z M639.4,452.6c-0.3,0.8-0.3,1.6-0.3,2.4C639.1,454.2,639.1,453.4,639.4,452.6L639.4,452.6z M639.6,457.9
		c-0.3,0-0.3,0-0.5-0.3v0.3C639.4,458.1,639.4,458.1,639.6,457.9L639.6,457.9z M639.1,460v-1.9c-0.8,0.3-1.6,0.3-2.6,0.5
		C637.8,459.1,639.1,459.4,639.1,460L639.1,460z" />
    <path class="st2" d="M854.5,398.7c-0.5-10.3-0.8-20.6-1.8-30.8c-1.8-14-3.7-28.2-6.8-41.9c-2.4-11.3-6.3-22.1-10.3-32.9
		c-5-12.6-10-25.6-16.3-37.7c-10.3-19.5-23.7-36.9-36.1-55.1c-8.2-11.6-18.7-21.1-26.6-32.9c-4.5-6.9-11.1-12.6-17.6-17.9
		c-10.5-8.4-21.6-16.1-32.6-23.5c-8.4-5.8-16.8-11.3-25.8-16.3c-7.1-4-14.7-7.1-22.1-10.6c-8.4-3.9-16.6-8.7-26-10.5
		c-2.4-0.5-4.5-1.3-6.9-2.1c-6-2.1-11.8-4.5-17.9-6.3c-9.2-2.9-18.2-6.3-27.6-8.7c-9.2-2.4-18.7-3.9-28.1-5.3
		C541.4,64.6,530.6,64,520,63c-6.8-0.8-13.7-1.6-20.3-1.8c-10-0.5-20.3-0.5-30.3-0.8c-5-0.3-10.3-0.8-15.3-0.5
		c-7.6,0.3-15.3,1-22.9,2.1c-7.4,0.8-14.7,2.1-21.8,3.2c-8.7,1-17.4,1.6-26,2.6c-8.2,1.1-16.6,2.6-24.7,4c-2.9,0.5-5.8,1.6-8.7,2.1
		c-6.3,1.3-12.9,1.8-19.2,4c-11.3,3.4-22.6,7.4-33.7,11.6c-10.3,4.2-20.3,8.7-30,14c-10,5.5-19.5,12.1-28.9,18.4
		c-9,6.1-17.9,12.4-26.6,19.2c-8.4,6.6-16.3,14-23.9,21.4c-4.2,4.2-7.6,9.2-11.6,14c-6.6,7.7-13.2,15-19.5,22.9
		c-5.2,6.6-10,13.4-15,20.3c-8.9,12.1-16.6,25-23.7,37.9c-2.9,5.3-5.5,10.5-8.2,15.8c-3.9,7.9-8.2,15.5-11.8,23.7
		c-2.6,5.5-4.7,11.6-6.3,17.7c-3.7,12.9-7.4,26.1-10.8,39c-3.2,11.6-4,23.7-4.2,35.6c-0.3,10.5,0.8,20.8,1.8,31.4
		c0.3,2.6-1.3,5.8,1.8,7.9c-1.1,2.9-0.3,4.5,1.3,5c-1.8,2.9,0.8,4.8-0.2,7.4c-0.3,0.5,0.8,1.6,1.3,2.4c0,0.8-0.2,1.9,0,2.6
		c0.3,2.4,1.3,4.7,1.3,7.4c0,1.8,1.6,4,2.1,5.8c0.3,0.8,0,2.1-0.5,2.6c-1.6,1.8-1.3,3.4,1.1,4.5c1.3,3.4,0.8,5,0.5,6.6
		c0.5,2.4-0.3,3.1,0,3.7c2.1,4.2,2.9,9,3.2,13.7c0,1.1,0.5,2.1,1.1,3.4c0.3,0,0,5,0,5c1.3-0.8,2.4-1,3.7-1.6
		c0.8,3.4,1.6,6.6,2.6,9.5c1.3,2.1,1.3,3.1,0.8,3.4c1,4.7,1.6,9.2,3.4,13.7c0-5-0.5-10-1.3-14.8c3.7,1.3,6.8,2.6,8.9,2.6
		c0.3-0.8,0.5-1.8,0.8-2.4c-1.6-1.6-2.9-3.9-4.5-5.5c0.5,2.1,0,2.9,0,3.7c-1-0.5-2.4-1.1-3.7-1.6c1.1-1.3,2.1-2.6,3.7-4.2
		c0-2.4-1.3-4.5-5-4.2c1.6-0.5,3.2-1.3,5-1.8c2.9-1.6-0.3-4.5-0.3-8.2c0.3-4.5-2.4-9-3.2-13.7c-1.3-7.4-1.1-18.4-1.8-25.8
		c-1.6-1.3-2.9,2.1-3.2,2.4c0.8,6.3,1.6,12.6,2.1,19c-1.6-5.3-2.6-11.1-3.9-17.4c-0.3,1.9-0.5,2.6-0.5,3.7c-1.3,1.3-0.3,2.9,0.5,4.7
		c-1.8-0.8-3.9-0.5-3.9-0.5v7.4c-2.6-2.6-3.4-4.7-4.7-6.6c-0.5-2.1-0.8-4.2-1.3-6.3c0.5-1.3,0-2.1,0-2.9c-0.3-1.9-0.5-4-0.8-6.3
		c0.3-0.3-0.3-4.2-0.3-4.2c2.1,0.2,3.4,0.5,4.7,0.5c-2.6-3.4-0.8-5.5,0.3-7.6c0.5-1.1,2.4-1.3,2.9-2.4c2.1-4,5.5-7.1,5.5-12.1
		c0-2.4,0.8-5,1.1-7.4c0.5-4.5,1-9,1.3-13.4c0.5-5.8,0-11.6,1.3-17.1c2.1-9.2,4.8-18.4,7.6-27.7c2.1-6.6,4.5-12.9,7.1-19.5
		c4-10.3,7.6-20.6,12.6-30.3c7.1-14.2,15.3-27.9,23.2-41.9c5-8.7,10.3-16.9,15.8-25.3c5.2-8.2,10.5-16.6,16.6-24.2
		c8.4-10.8,17.6-20.8,27.9-29.8c10.5-9.5,20.5-19.2,31.8-27.9c14.7-11.4,30.3-21.4,46.8-30.1c13.4-7.1,27.4-12.7,41.3-17.9
		c8.9-3.4,18.7-5,27.9-7.9c10.5-3.4,21-5,32.1-5.3c7.1-0.3,13.9-1.1,21-1.9c6.3-0.5,12.6-1,19.5-1.8c-0.8,1-1.1,1.6-1.3,2.1
		c-2.9,4.2-6,8.4-8.9,12.6c-2.4,3.4-5,7.1-7.4,10.5c-4.2,5.6-8.7,11.1-12.6,16.9c-6,8.7-11.6,17.7-17.9,26.3
		c-6.3,8.4-13.1,16.3-19.7,24.5c-8.7,11.3-16.8,22.9-25.5,34.3c-7.9,10.8-16.3,21.1-23.9,31.9c-6.8,9.5-12.9,19.5-19.5,29.2
		c-9.7,14.5-19.5,28.7-29.2,43.2c-7.6,11.1-15.3,21.9-23.2,32.9c-0.5,0.8-1.3,1-2.1,1.6c-2.1,3.4-2.1,5.3-2.9,6.9
		c-2.1,4-4.2,7.9-6.6,11.6c-1.3,2.1-3.2,3.9-4.7,6c-0.3-3.2,4.2-4.7,2.1-8.7c-1.3,2.1-2.6,4-3.9,6.1l-3.2,6.3
		c1.1,0.8,2.9,1.3,1.1,2.9c-0.8,1.3-1.6,2.9-2.4,4.2c1.3-0.8,2.1-1.6,2.9-2.6c0,2.9-1.6,5.3-2.9,7.6c-1,2.1-3.7,3.7-5.5,5.3
		c0.3,0.3,2.1,1.1,2.4,1.3c2.4-0.8,3.2-2.1,3.4-1.3c0.8-1,1.6-1.8,1.8-2.6c1-2.6,2.6-4.7,5.3-5.8c1.1-0.5,1.8-1.3,2.6-2.1
		c7.9-8.2,16.1-16.1,23.2-24.8c11.1-13.4,21.1-27.4,31.6-41.1c4.5-5.8,9.7-11.6,14.5-17.1c0.8,6.1,0.3,11.9,0,17.4
		c-0.8,9.7-1.3,19.5-2.1,29.5c-0.3,3.9,0,7.9-0.3,11.9c0,1.1-0.8,1.8-0.8,2.9c0,2.6,0.8,5.5,0.8,8.2c-0.8,9.8-1.9,19.2-2.6,29
		c-0.3,2.1,0.8,4.2,1.3,6.1c-1.3,14.2,1.6,29.2-0.8,44.3c1.8-2.9,2.4-4.7,2.4-6.6c0.2-1.6,0-3.2,0-5v-2.6c0.2-4.8,1.3-9.8,0.8-14.5
		c-0.5-5.3-0.5-10.3,0.5-15.3c0.5-2.1-0.3-4.7,1.1-7.4v4c-0.3,15,0.3,30-1.8,45c-0.3,1.3,0.8,3.7-2.1,3.4c-2.4,4.7,0.5,8.2-2.1,10.8
		c-0.5,0.5,0.5,2.9,0.8,4.5c-1.1,3.2-1.1,3.2,0.5,3.4c0.3,5.8,0.8,11.1,1,16.6c4.2-10,2.1-20.3,4-30.6c0.3,4.2,0.5,8.4,0.3,12.9
		c0,6.9-0.3,13.5-0.5,20.3c0,1.3-0.3,2.6-0.5,4c-0.8,3.7-1,7.4-2.4,10.8c-1,2.6-0.5,6.6-0.5,9.7v10c1,4.5-0.3,6.9,0.5,9.5
		c-0.8,2.6-1,3.4-0.8,4.2l0.8,4c5.3-0.5,2.9,3.4,5,5.5c-1.6,2.1-1,2.9-1,4c0,2.4-0.2,4.5-0.5,6.9c0,6.1-0.3,12.1-0.3,17.9
		c0,0.8,0.3,1.6,0.3,2.4c0,0.5-0.3,7.4-0.3,7.4c0.5,0.8,0,1.6-0.8,2.4c-0.2,0-1-33.5-1-33.5h-3.9c-0.5,15.8,0.8,30-2.1,44.8
		c-3.2,0.2-4.2,0.8-7.6,0.8c-8.2,0-16.3,0-24.5,0.3c-9.7,0-19.2,0.3-29,0.3c-4.7,0-9.7,0.5-14.5,0.5c-6.3,0-12.9-0.8-19.2-0.8
		c-9.8,0-19.2,0.8-29,1.1c-7.1,0.3-14.2,0.3-21.3,0.5c-4.8,0.2-9.5,0.5-14.2,1c-2.1,0.3-3.9,1-6.6,1.8c-0.8,0-2.6-0.3-4.2,0
		c-2.7,0.5-5,2.1-7.7,2.6c-3.9,0.8-5,1.8-4.5,5.8v2.6c-0.3,0.5,5.8-0.8,5.8-0.8c-0.5,0-0.8,1.6-1.6,2.9c2.1-0.8,3.4-1.3,4.8-1.8
		c4,1.9,7.4,0.8,10.5,1.6c10.3,2.6,20.8,3.7,31.3,4.7c6.9,0.5,13.4,0.8,20.3,1c9.7,0.5,19.5,1.1,29.2,1.1c8.2,0,16.1-0.8,24.2-0.8
		c11.3,0,22.6,0.5,34,0.8c2.4,0,5-0.3,7.6-0.3h19.2c17.1-0.5,34.2-0.8,51.3-1.3c9.8-0.3,19.8-0.8,29.5-1.1l30-0.8
		c11.6-0.3,23.2-0.3,34.5-0.5c8.7,0,17.1-0.3,25.8-0.5c9.7-0.3,19.7-1.1,29.5-1.6c5.3-0.3,10.5-0.8,15.8-1.3
		c6.3-0.5,12.9-1.3,19.2-1.6c9.5-0.5,19.2-0.8,28.7-1.3c11.8-0.8,23.7-1.8,35.8-2.1c11.1-0.5,22.4-0.3,33.4-0.5
		c9.7-0.3,19.5-0.8,29.5-1.1l16.6-0.8c0,0,11-0.3,16.6-0.8c9.5-0.5,18.9-1.6,28.4-1.8c6-0.3,12.1,0,18.2-0.3
		c9.7-0.3,19.7-0.8,29.5-0.8c3.7,0,7.6,0.5,12.4,0.8c-2.1,1.9-3.4,2.9-5,4.2c1.1,0.3,2.1,0.8,3.2,1.3c-1.6,1-2.9,1.3-4.2,1.3
		c-0.5,1.3-1.1,1.9-1.6,4.5h4.7c-1.8,0-3.4,2.4-5.3,4c-2.1-0.5-4,0-5,2.9c1.8,1,1.6,1.8,1.3,2.9c-3.2,1-5.5,2.1-4.2,5.5
		c-1.1,0.5-2.4,1-3.7,1.8c-1.3,2.1-3.7,2.6-3.2,5.5c1.1,0.2,2.1,0.8,2.9,1c-1.3,0.5-2.6,1.3-3.9,1.8c-4.7,2.9-2.6,4.2-1.6,5.5
		c-0.8,0.5-1.6,1-2.4,1.3c0.5,2.4,1.3,2.9,1.6,2.9c-1.1,0.8-2.4,1.8-3.9,3.2c-0.8,2.4-1.8,3.4-2.9,5s-1.6,3.7-2.9,5.3
		c-5.5,6.1-9.5,13.2-16.6,17.9c-2.6,1.9-5,4.2-7.4,6.6c-4.7,4.5-8.9,9.5-14,13.7c-6.6,5.5-13.4,10.5-20.5,15.5
		c-8.7,6.1-17.4,12.1-26,17.9c-4.7,3.2-10,5.5-15,8.4s-9.7,5.5-14.7,8.4c-3.2,2.1-6.1,5-9.5,6.6c-8.7,3.7-17.9,6.8-26.8,10.3
		c-8.7,3.7-15,6.8-21.6,9.2c-6.1,2.1-12.4,3.7-18.7,5c-2.1,0.5-4.5,0-6.8,0.3c-4.5,0.8-9,1.9-13.4,2.4c-11.6,1.6-23.2,2.6-34.7,4.2
		c-6.9,0.8-13.4,2.1-20.3,2.9c-4.7,0.3-9.7-0.3-14.5-0.3c-3.4,0-7.1,0.8-10.5,0.3c-5.5-0.8-11-2.1-16.6-3.2
		c-1.3-0.3-3.2-0.8-4.2-0.3c-2.1,1.1-4-0.5-6.1,0c-1.3,0.3-2.6-0.8-3.9-0.8c-1.1-0.2-2.4,0.3-3.7,0c-2.9-0.8-5.5-1.8-8.7-1.6
		c-3.1,0.3-6.3-1.3-9.7-2.1c-4.7-1.1-9.2-2.1-14-3.2c-1.8-0.5-3.4-1.3-5.2-2.4c-6.9,0-11.3-0.3-15.5-1.8c-3.7-1.3-7.1-3.2-11-2.6
		c-1,0.3-1.8-0.3-2.9-0.3c-0.8-1.1-1.6-3.2-2.4-3.2c-5.3,0.3-8.4-4.2-12.9-5.5c-2.4-0.8-4.2-3.4-6.6-4.2c-5.8-2.4-10.5-7.4-17.1-8.2
		c-2.1-0.3-4.2-1.3-6.6-2.1c0.8,1,1.3,1.8,2.1,2.6c-7.6-3.7-14.7-7.9-21.8-11.9c-1-0.3-1.8-1.3-2.6-1.8l-7.1-4.7
		c-4,0.8-5.5-0.8-6.6-1.3c-7.1-5-15.2-8.2-22.1-13.7c-2.9-2.4-6.3-4-8.4-6.9c-3.7-4.5-8.2-7.6-13.2-10.3c-3.9-2.1-7.6-4.5-11.3-6.8
		c-1.9-1.3-3.7-2.9-3.7-5.8c0-1.8-0.8-3.7-3.1-2.6c-1-1.6-2.1-3.4-3.4-4c-3.2-1.3-5.3-3.7-7.6-5.8c-2.4-2.1-4.2-5-7.1-6.1
		c-5.3-2.1-8.4-6.6-11.6-10.3c-7.4-8.7-14-18.2-20.8-27.4c-0.5-0.8-1.6-1.3-2.4-2.1c1,2.9,2.4,5.3,3.7,7.9c-2.6-1-4.5-2.9-6-4.7
		c-0.3,0.3,18.1,30.6,18.1,30.6c1.6,2.4,2.9,4.8,4.5,7.1c-3.9,0.3-6.6-1.8-7.9-4.2c-2.4-4.2-5-6.8-10.3-6.3c-0.5-1.9-1.1-4-1.3-5.8
		c-1.1,0-1.9,0-3.7-0.3c3.7,5.8,6.8,10.8,10.3,16.6c-1.3-0.8-2.1-1.3-2.7-1.6c4.7,5,8.1,11.3,14.2,14.5c1.3,6,8.2,8.9,9.7,14.7
		c-1.3-0.3-2.4-0.5-3.7-0.8c-2.1-2.6-4.5-5.3-6.8-8.2c0.5,1.8,1.3,3.4,2.4,4.7c3.2,3.9,6.1,7.9,9.7,11.3c1.3,1.3,3.2,1.9,3.2,4.2
		c2.1,1.1,2.9,1.3,3.7,1.3c0.5,1.6-0.2,4,2.9,3.4c2.1,3.9,4.2,3.9,7.1,2.6c3.4,3.4,5.3,3.7,7.6,1.6c0,1.3,0.3,2.6,0.3,3.7
		c1.1-0.5,0.8-1.3,0.8-2.6c1.3,1,2.1,1.6,2.6,2.1c2.6,3.7,5,7.1,8.7,10c5,4.2,9.5,8.7,14.2,12.7c9.2,7.6,19.5,14,29.7,19.8
		c12.6,7.1,24.8,14.8,37.6,21.6c15.5,8.2,32.1,13.7,49.2,17.7c6.3,1.3,12.4,2.6,18.7,4.2c5.5,1.6,11,4,16.6,5.3
		c8.4,1.8,17.1,3.4,25.5,5c1.8,0.3,3.7,0.5,5.8,0.8c2.4,0.5,5.2-0.5,5.8,0.3c1.3,2.1,2.4,1,3.9,0.8c1.8-0.5,4-0.5,6.1-0.5
		c7.4,0.3,14.5,1.8,21.8,1.3c1.6,0,4-1.3,5.3,1.3c2.4-1.1,3.7-1.1,4.7-1.3c0.3,2.4,0,2.4-0.5,2.6c-0.5,0.3-1.3,0.5-2.4,1.3
		c9.5,1.8,18.4,2.1,26.3,0c13.7,1.1,25.5-0.5,36.9-4.5c1,1.3,1.8,3.2,3.4,0.5c0.5-0.8,1.8-1.1,2.9-1.3c2.4-0.5,5.3-1.6,7.4-0.8
		c2.4,0.8,3.2-1.3,5-1.3c3.2,0,6.1-0.3,9-0.8c1.6-0.3,3.2-1.1,5-1.6c-2.1-1.1-4.2-1.3-5.8-1.3c3.2-1.6,6.1-2.9,9-4.2
		c-0.5,0.8-1.1,1.8-2.1,1.8h3.7c-0.8,0-1.9,2.4-3.2,3.9c9.5-2.4,18.1-4.5,26.6-6.6c-2.9-5.5,3.1-3.7,5.3-6.8
		c-2.6,0.8-5.3,1.6-7.9,2.1c9-4.5,18.2-8.4,27.1-12.4c-1.3,1.6-2.9,2.4-5.2,3.7c1.6,0.2,2.6,0.2,3.4,0.5c4.2,1.3,3.2-2.6,4.5-5
		c5,0,7.1-0.8,9.5-1.6c2.6-0.8,5.3-1.6,7.9-2.6c4.2-1.8,8.1-4.2,12.4-6.3c0.8-0.3,2.1,0,3.2,0c2.9-1.9,3.9-3.4,4.7-3.2
		c3.7,0.5,6.3-0.8,7.4-4.2c1.8-1.3,3.2-2.4,4.5-3.2c5.8-3.2,11.3-6.3,17.1-9.5c2.1,0,3.2,0,3.7-0.3c3.4-1.6,6.6-3.4,9.7-5.3
		c-0.8-0.3-2.6-1.3-2.6-1.3c2.6-0.5,3.4-0.8,5-1.3c6.3-7.4,15-12.4,21.6-18.2c2.9-0.3,2.9-1.1,2.9-1.6c1-1.3,2.1-2.9,3.4-4
		c5.8-5.3,12.1-9.8,17.4-15.3c7.6-7.7,15-15.6,21.8-23.7c6.3-7.4,12.6-14.7,17.9-22.9c7.4-11.3,13.7-22.9,20.3-34.8
		c4.7-8.4,8.9-16.9,13.7-25.3c0.5-0.8,1.6-1.9,2.4-1.9c7.1-0.8,14.2-1.3,21.1-2.1c1.6-0.3,3.4-1.3,5-2.1c-0.8-1.3-1.3-2.9-2.1-4.2
		c-1.1-1.6-2.6-2.9-3.7-4.5c-1-1.3-1.8-2.9-2.6-4.5c-0.8-1.3-1.6-2.4-2.4-3.7c-1.6-2.9-3.2-5.8-4.5-8.9c-0.3-0.8-0.8-2.1-0.5-2.9
		c4.7-10.3,6.6-21.3,11.1-31.6c4.5-10.5,5.8-22.4,7.9-33.7c1.8-10.8,2.9-21.6,4.2-32.4c0.8-7.6,1.8-15,2.1-22.7
		c1.6-12.1,1.1-23.5,0.8-34.8C855.6,419,855,408.7,854.5,398.7L854.5,398.7z M194.3,723.1c-1.8-2.1-3.4-4.5-5.3-6.6l0.8-0.8
		c2.9,3.2,5.8,6.3,8.7,9.8C196.9,724.6,195,724.1,194.3,723.1z M198.5,725.4c0.8-0.3,1.6-0.3,2.4-0.5c0.8,1.3,1.3,2.9,2.1,4.5
		C199.3,729.1,197.4,727.5,198.5,725.4L198.5,725.4z M472.2,834.3v-0.8c5-0.5,9.7-1.1,14.7-1.6v0.8
		C481.9,833.5,477.2,834,472.2,834.3L472.2,834.3z M538.5,827.4c-3.7,0.8-7.6,1.3-11.3,1.9c-1.3,0.3-2.9,1.6-3.4-0.8
		c-0.5,0.3-1.1,0.3-1.6,0.5c1.3,3.9,4.5,0.8,7.1,2.4c-5.8,0.8-11.3,1.3-16.8,2.1V833c1.6-0.3,3.4-0.5,5-0.8v-0.8
		c-2.6-0.3-5.2-0.5-7.9-0.5c-0.8,0-1.8,1.1-2.6,1.3c-1,0.3-2.1,0.5-3.4,0.5c-4.5,0.3-8.9,0.3-13.2,0.5c-0.3,0-0.8-0.3-1.1-0.3v-0.8
		c17.6-2.4,35-4.7,52.6-7.1c0.3,0.5,0.3,1,0.5,1.6C540.8,826.6,539.8,827.2,538.5,827.4L538.5,827.4z M542.4,824.8
		c6.1-0.8,11.6-1.3,17.4-2.1C547.7,826.1,543.8,826.6,542.4,824.8L542.4,824.8z M313.2,292.8c8.4-11.6,17.1-23.2,25.5-35.1
		c2.6-3.4,4.7-7.1,7.4-10.6c0.8-1.1,1.8-1.6,3.2-2.6L349,244c1-1.3,2.1-2.4,2.6-3.4c1.3-2.1,2.1-4.5,3.2-6.8c0.3-0.5,1-1,1-1
		c3.7,1.8,3.7-2.1,5-3.4c2.4-2.6,4.7-5.5,6.8-8.2c1.6-2.1,3.2-4,4.5-6.3c0.3-0.8-0.5-2.1-0.8-3.2h-0.8c0.8-0.5,1.6-1.3,2.4-1.8
		c0.3,0,0.3,0,0.5-0.3c1.6-2.4,3.2-4.8,4.7-6.9c3.1-4.2,6.6-8.4,10.2-12.1c-0.5,1.3-1,2.6-1.6,3.7c0.3,0,0.3,0.3,0.5,0.3
		c3.2-4.2,6.6-8.2,9.7-12.4c-0.3-0.2-0.5-0.5-0.8-0.5c-1.3,1.3-2.4,2.6-3.7,4c-0.3-0.3-0.5-0.5-0.8-0.5c2.6-3.4,5.3-6.9,7.9-10.8
		c0.5,0.8,1.1,1.8,2.1,4c1.1-2.6,2.1-4.5,2.9-6.3c-0.8,0.8-1.8,1.6-2.6,2.4l-0.8-0.8l4.7-7.1c5-7.1,10-14.5,15-21.6
		c1.9-2.6,4.2-4.7,5.8-7.4c5-10,12.9-17.9,18.9-27.1c1.3-1.8,3.2-3.4,4.7-5c1.3-1.6,2.4-1.1,3.4,0.3c7.1,9,14.2,18.2,21.3,27.1
		c5.3,6.6,10.5,12.9,15.5,19.8c6,8.4,11.8,16.9,17.9,25.3c6.8,9.8,13.7,19.5,20.3,29.5c10,14.8,19.5,29.5,29.5,44.3
		c7.4,10.8,14.7,21.4,21.8,32.1h-13.4c-12.4-0.2-25-1.3-37.4-0.8c-16.8,0.8-33.9,2.6-50.8,4c-21.3,1.8-42.9,2.1-64.2,2.1
		c-7.6,0-15.3,1.1-22.9,1.6c-9.2,0.5-18.2,1-27.4,1.3c-10.8,0.5-21.3,0.8-32.1,1.1C326.1,293.1,319.8,292.8,313.2,292.8L313.2,292.8
		z M615,414v2.4c-0.3,0-0.5,0.3-1,0.3c-1-3.7-2.1-7.7-3.4-11.3c-2.6-7.6-5.5-15.3-10.3-22.1c-5.3-7.4-10-15-15.3-22.6
		c-1.3-1.9-3.2-3.4-4.7-5c-5.5-6.1-11.1-12.4-18.2-16.9c-10.5-6.6-21.3-12.1-32.9-16.9c-3.2-1.3-6-2.9-9.2-4.7h6.3l45-0.8
		c9.7-0.2,19.2-0.2,29-0.8c2.4,0,3.7,0.8,5,2.9c2.4,4,4.7,7.9,7.4,11.9c0.3,0.5,0.8,1.3,0.8,2.1c0,5.8,0,11.9,0.3,17.7
		c0.2,6.1,0.8,11.9,1,17.9c0,6.1-0.5,12.4-0.3,18.7C614.7,395.5,615,404.7,615,414L615,414z M331.9,325.7
		c12.4-0.5,24.2-1.3,36.3-1.9c9.5-0.5,19.2-0.8,28.7-1.3c4-0.2,7.6-0.5,11.6,0c-4.2,2.1-8.4,4.2-12.1,6.9c-4.7,3.2-9.2,7.4-14,10.8
		c-4.8,3.4-9,7.6-12.9,12.1c-5,6-10.5,11.3-15.8,17.1c-3.7,4.2-7.9,8.2-11.1,12.7c-4.5,5.8-8.4,12.1-12.6,18.7
		C331.3,375.8,332.9,351,331.9,325.7L331.9,325.7z M503.7,579.2c-8.4,2.1-17.1,4.5-25.8,5.5c-7.4,1.1-15,0.8-22.6,0.8
		c-6.9,0-13.4-0.3-20.3-0.8c-7.6-0.8-15.3-1.6-22.6-5c-6.3-2.9-12.9-5.5-19.2-8.7c-6.3-3.2-12.6-6.8-17.4-12.6
		c-3.4-4.2-8.1-7.6-12.4-11.3c0.8,3.2,2.6,5.8,5.5,7.6c-1.3,1.6-3.2,0.8-5.8-3.4c-0.8,0.5-1.6,0.8-2.1,1.1c0.8-1.9,1.6-3.7,2.4-5.3
		c-1-2.1-2.4-4.5-3.4-6.6c-2.1-3.4-4.2-7.1-6-10.5c-0.5-0.8-0.5-1.6-1.1-2.4c-1.3-1.6-2.6-3.2-3.7-4.8c-2.1-3.1-3.9-6.6-6.6-9.7
		c0,0.8,0.3,1.6,0.3,2.6c-0.3,0-0.5,0.3-0.5,0.3l-5.5-13.4c-0.3,0-0.3,0-0.5,0.3l4.7,17.4c-0.3,0-0.5,0.2-0.8,0.2
		c-0.8-1-1.6-2.1-2.1-3.4c-0.5-2.1-2.1-2.1-3.4-1.3c-0.8,0.5-1.3,2.4-1.1,3.2c1.9,4.5,4,9,6.1,13.4c0.5,1.6,1,2.9,1.8,4.5
		c0.3,0.5,1.1,1,1.1,1.8c1.1,2.1,1.9,4.2,3.2,6.1c2.4,3.2,5,6.3,7.4,9.5c2.4,3.2,4.4,6.6,6.6,9.8c0.3,0.5,1,0.5,1.3,0.8
		c1.3,4,5.8,6.8,9,5.3c0.8,6.1,7.4,8.2,10,14c-3.2-1.3-5.5-2.4-7.6-3.4c-0.3,0.3-0.3,0.5-0.5,1c3.2,1.6,6.3,3.2,9.2,5
		c2.6,1.6,5.3,3.2,7.7,5c3.2,2.9,6.9,4.5,11.3,5.5c-0.2-0.8-0.5-1.1-0.5-1.1c7.4,3.4,15,7.1,20.8,10c-27.4,0.5-56.6,1.1-86.9,1.6
		c0-5-0.3-9.8-0.3-14.8c0-2.1,0.5-4,0.2-6.1c-0.8-12.1-0.8-24.2-2.4-36.1c-1.6-12.6-1.6-25-1.3-37.7c0.2-6.8-0.3-13.9-0.5-20.8
		c0-9.2,0-18.2,0.3-27.4c0-1.3,0.5-2.4,1.1-3.7h0.8c0.2,0.5,0,1.3,0.5,1.6c0.8,0.8,2.1,2.1,2.6,1.8c1.6-1.1,3.9-2.1,4.5-3.7
		c1.3-3.1,1.8-6.6,1.8-9.7c0-2.4,1.1-3.9,2.1-5.5c0.5-0.8,0.8-1.6,1.3-2.6c-1-0.8-2.1-1.3-3.4-2.4c1.1-2.9,0.8-6.3,4.8-7.9
		c0.5-0.3,0.5-1.6,0.8-2.4c0.2-2.1,0.5-4.5,0.8-6.6c0.5,0.8,0.8,1,1.3,1.6c0.3-0.5,0.5-0.8,0.5-0.8c0-1-0.3-3.1,0-3.1
		c3.2-0.5,1.8-4,3.4-5.5c0.2-0.3-0.3-1.1-0.3-1.6c0-0.5,0-1.3,0.3-1.3c3.7-0.8,3.2-4.8,5.5-6.6c0.8-0.5,1-1.3,2.1-2.6
		c2.1,3.7-1.6,5.5-1.8,8.2c4.5-2.6,5.8-8.9,3.1-10.8c1.1-0.8,2.1-1.8,2.9-2.9c2.9-3.2,6-6.1,8.7-9.2c1.9-2.4,2.9-5.3,4.7-7.6
		c1.1-1.3,3.2-2.4,4.7-3.2c4.7-2.6,9.2-5.5,12.1-10c0.5-0.5,1.3-1,2.1-1.6c0.8-0.5,2.4-0.5,2.6-1.3c0.3-0.5-0.5-1.8-1-2.6
		c1-0.5,2.1-1.6,4.2-2.6c-0.8,1.6-1.1,2.6-1.6,3.7l1.3,1.3c2.4-1.8,6.1-3.9,8.4-5.5c0-0.2-1.3-1.3-1.3-1.3c-1.6,0.8-3.9,2.1-6.3,3.2
		c0.5-0.8,0.5-1.3,0.8-1.6c3.7-2.4,7.4-4.7,11.3-6.6c9.2-4.2,18.4-8.4,27.6-12.4c1.6-0.8,3.7-0.3,5.5-0.3c0.8,0,1.3,0,2.1-0.3
		c4.2-1.3,8.4-2.6,12.6-3.7c1.8-0.5,3.9-0.8,5.8-0.8c7.9,0.2,15.8,0.2,23.7,0.8c3.4,0.3,6.6,1.1,9.7,2.1c3.9,1.3,8.1,3.2,11.8,5
		c4.5,2.4,8.7,5,12.9,7.9c7.6,5,14.7,10.5,22.4,15c7.4,4.5,13.2,10.5,17.9,17.4c5.8,8.2,12.4,15.5,15,25.5l3.9,17.4
		c0.8,3.2,2.6,6.3,1.9,10c-1.3,6.6-2.4,13.5-3.4,20c-0.5,2.6-1,5.3-0.8,7.9c0.5,8.2-2.6,15.3-5.8,22.7c-1.1,2.4-2.6,4.7-4,7.4
		c0.3,0.3,1.8,1.1,2.1,1.1l2.4-4.7c0.3,0,0.3,0,0.5,0.3c-1.3,3.7-2.4,7.6-3.7,11.3c-3.1,8.2-6.3,16.6-10.2,24.5
		c-2.1,4.5-5.8,8.2-8.4,12.4c-2.6,3.7-4.7,7.6-7.4,11.1c-2.4,2.9-4.7,5.8-7.9,7.9c-7.1,5.3-14.5,10.5-22.1,14.8
		C514.5,576.3,508.9,577.9,503.7,579.2L503.7,579.2z M363.5,565.2l-0.3,0.3c-0.5-0.3-1.3-0.5-1.9-1.1l-6.3-9.5
		c-0.5-0.8-0.8-1.6-0.5-2.6C357.4,556.8,360.3,561,363.5,565.2L363.5,565.2z M527.2,601.3c11.8-5,21.6-12.1,30.5-20.3
		c1.3-1.3,2.6-2.6,4.2-3.7c11.1-6.8,19.2-16.3,26.6-26.9c8.4-12.1,14-25.8,20.8-38.7c0.5-1.1,1-2.1,1.6-2.9
		c-0.5,30,2.9,59.5,6.8,89.3C587.9,599.2,557.7,600.3,527.2,601.3L527.2,601.3z M794,593.4c-0.3,0.5-0.8,1.1-1,1.6
		c-0.3-0.5-0.3-1.3-0.5-2.4c-1.6,4.2-5,2.1-7.4,2.1c-14.2,0.3-28.7,0.3-42.9,0.3c-13.7,0-27.6,0-41.3,0.2c-4.5,0-9.2,1-13.7,1.3
		c-10.8,0.5-21.6,0.8-32.4,1c-0.8,0-1.6-1.3-2.9-2.4c-0.3,0.5-0.8,1.3-1.6,2.4c-0.3-0.5-0.8-1-1.3-1.8c-0.3,0.8-0.5,1.6-0.8,2.1
		h-0.8c-0.5-3.7-1.6-7.1-1.6-10.8c0-7.9,0.8-15.8,1-23.7c0.3-3.7,0-7.1,0-10.5c1.1,0.8,1.9,1.3,2.9,2.1c0.5-1,1-1.8,1.6-2.6
		c0,0-0.5-0.3-1.1-0.8c0.5-0.3,1-0.8,1-1.1c0.3-0.8,0.8-1.6,0.8-2.1c0-1.8-0.5-3.4-0.8-5c0.3,0,0.5,0,0.8-0.3l1.6,7.9h0.8
		c-1.1-1.8,2.4-3.4-0.5-5.5c-0.3-0.3,0.3-1.8,0.3-2.6c-0.8-1.6-1.3-3.1-2.1-5.3c0.3-0.3,1-0.5,1.8-0.8c-1-0.5-1.8-1-2.6-1.3
		c2.6-2.4,2.6-3.7,0.3-6.3c0.5-0.2,1.1-0.2,1.1-0.5c0-2.4,0-4.8-0.5-7.1c-0.5-2.7,0.8-5.8-3.2-7.4c0.3,0.8,0.5,1.3,1,2.1
		c0,0-0.8,0.3-1.6,0.8c-3.4-3.2-1.3-7.4-2.1-12.1c1.8,0.5,3.2,1.1,4.5,1.6c-0.5-1.9-1.8-4-2.6-6.3h-1.1v-17.4c0,0.3,1.8,0.3,2.9,0.5
		c0-0.3,0.2-0.5,0.2-0.8c-0.8-1-1.8-2.1-2.9-3.4l0.5-0.5c-2.1-2.6-1-6.3-1-7.1V453c2.6,2.6-1.3,6.1,2.6,7.6V458h-0.3
		c-0.3-4-0.3-7.9-0.5-11.9h-0.5c-0.3,0.5-0.3,0.8-0.5,1.3h-0.5l1.6-63c2.6,3.4,5.5,6.6,7.4,10c6.1,11.1,14,20.6,21.3,30.6
		c6.3,8.7,12.1,18.2,17.9,27.1c7.1,10.8,13.9,21.6,21,32.4c5.3,8.2,10.8,16.3,16.3,24.3c5,7.1,10.3,14,15.5,20.8
		c4.5,6.1,9.2,12.1,13.7,18.2c5.3,7.4,10.5,14.8,15.8,21.9c2.6,3.7,5.5,7.4,8.4,11.1c1.6,2.1,4,3.7,5.5,5c-0.2,0-0.5,0-1-0.3
		c0.8,1,1.3,1.8,1.8,2.4C795.3,589.5,795.6,591.1,794,593.4L794,593.4z M807.4,527.6v-1.9C807.4,526.2,807.7,527,807.4,527.6
		L807.4,527.6z M816.4,411.4c-0.3,0-1.8-1.6-2.1-1.9c-0.3,0.8,0,1.6-0.5,2.6c-0.3-0.8-2.1-0.5-2.1-1.3c-0.3,3.7,1.6,7.4,1.3,11.1
		c0.8-0.5,3.9-0.8,4.7-1.6c0.3,0.3,0.8,0.5,1.1,0.5c-5.3,4-3.9,7.9-1.6,12.4c0.5,1,2.1,3.1,0.5,5.3c-0.5,0.5,0.3,2.1,0.5,3.4h0.8
		v0.5l-2.4,0.8c-0.5-0.8-3.7-2.4-3.7-3.7V453c2.6,0.8,2.6,4.5,3.7,6.3c0.5-0.8,0.8-1.3,1.1-2.1l0.3,0.2c-0.3,1.6-0.5,3.2-1.1,4.7
		c-0.5,2.4-1,4.5-1.3,6.8c0,0.3,0.5,0.8,0.5,1c-2.9,6.6-1.3,14-2.3,20.8c-0.8,5,0,10.3-0.5,15.6c-0.5,4.5-1.6,9.2-2.6,13.7
		c-0.3,0.8-0.8,1-2.1,1.6c0.5-3.2,0.3-5.3-0.3-8.2c-0.3,0-3.7-1.8-4-1.8c0,3.7,2.1,8.7,2.9,12.9c-0.8-0.3-3.9-2.1-4.2-2.1
		c-0.5,3.2-0.5,7.4-0.8,10.8c-0.3,2.6-2.6,5-2.9,7.9c0,1.6,1.8,2.6,1.6,5.3h2.1c0-5.3,2.4-10,2.4-15.5h0.8c0.3,0.5,1.1,1.1,0.8,1.3
		c-0.5,2.9-1.6,6.1-1.3,9c0,1.6,1.3,3.2,0.8,5c-0.5,1.6-0.8,3.2-1.1,5.5c-0.3-1.3-0.5-1.8-0.5-2.6c-0.3,0-2.6-0.3-2.9-0.3
		c-0.3,1.6,1.8,3.2,1.6,4.5c-0.3,0.3-0.5,0.3-1,0.5l-8.7-12.7c-6.9-10-13.7-20-20.5-30.3c-1.8-2.6-3.4-5.3-4.8-7.9
		c-8.2-14-17.1-27.4-27.1-40.3c-7.6-9.7-13.7-20.3-20.8-30.5c-6.6-9.8-13.1-19.2-19.7-29c-2.4-3.1-5.3-6-7.4-9.5
		c-6.8-10.8-12.9-21.9-19.7-32.7c-5.8-9-12.1-17.7-18.2-26.4c-2.1-2.9-4.2-6.1-6.3-9.2c-0.3-0.5-0.5-1-0.5-1.8
		c-0.5-5.8-1.1-11.6-1.3-17.1c0-5.3,0.5-10.5,0.5-16.1v-4.7c0-1.3,0.2-2.4,0.2-3.7c0.3-0.2,0.5-0.8,0.8-1c-7.6,0-15.5-0.3-23.2,0
		c-5,0.2-7.6-1.9-11-5.6c-10-11.3-17.4-24.2-26-36.4c-8.2-11.6-16.6-22.9-25-34.3c-6.9-9.2-13.7-18.2-20.5-27.4
		c-7.6-10.5-15-21.1-22.9-31.6c-9.5-12.6-19.2-25.3-28.9-37.9c-4.5-5.8-9.5-11.3-14.5-17.4c3.4,0.5,6.6,1.1,9.8,1.3l12.6,0.8
		c9.5,0.8,18.9,1.3,28.4,2.6c7.9,1.1,15.8,2.6,24,4c17.4,2.9,34.5,7.6,51.1,13.2c9.7,3.2,19.2,7.4,28.7,11.3
		c21.3,8.7,41.6,19.2,61.6,30.3c6.3,3.4,10,9,14.7,14c6.8,7.1,13.7,14.2,20.3,21.6c7.6,8.7,14.7,17.7,22.1,26.6
		c6.6,7.9,13.4,15.8,20,23.7c2.1,2.4,3.7,5.3,5.5,7.9c4.2,6.3,9,12.4,12.6,19.2c2.6,5,4.2,10.8,6,16.4c2.6,8.2,5.3,16.1,7.9,24.2
		c1.8,6.1,3.4,12.4,4.7,18.7c1.1,4.2,0.8,8.7,2.1,12.9c1.6,5.6,0,11.6,1.6,17.2c0.2,0.5,0.5,1.3,0.8,1.8c1,1,1.8,2.1,0.3,3.7
		c-0.3,0.3-0.3,1.3,0,2.1c0.5-0.5,0.8-1,1.3-1.8c0,0.5,0.2,0.8,0.2,1c0,1-0.3,2.1,0,3.1c0,0.5,0.5,1.3,0.8,1.8
		c0.5-0.5,1.1-0.8,2.1-1.6c2.4,9,2.6,17.9,2.6,27.1c0,8.7,1.6,17.4-2.1,25.8c0.8-2.9-1.1-5.6-0.3-8.2L816.4,411.4z" />
    <path class="st0" d="M637.8,511.1c0.2,0,0.5,0.3,0.5,0.3l-0.3-0.3C638,510.8,638,510.8,637.8,511.1L637.8,511.1z M679.4,771.5
		c-2.9,2.1-5.8,4-9.5,4.7c-0.3-0.3-0.3-0.5-0.5-0.8c2.9-1.8,6.1-3.7,9-5.5C678.6,770.4,679.1,770.9,679.4,771.5L679.4,771.5z
		 M186,414.4c2.9-3.7,5.8-7.4,8.9-11.1c0.2,0.3,2.4,0.8,2.6,1.1c-2.9,3.7-6.9,8.7-9.7,12.6C187.2,416.5,186.4,414.7,186,414.4
		L186,414.4z M111.2,543.5c-2.1-4.5-4.2-9.2-6.3-13.7c0.3-0.3,2.1-1.1,2.4-1.1c2.9,4.2,4.2,9.2,6.3,13.7
		C113.6,542.5,111.5,543.5,111.2,543.5L111.2,543.5z M178.3,417c-1.6,2.4-3.2,5-4.7,7.4c-0.3-0.3-3.2,1-3.4,0.8
		c1.6-2.4,5.5-6.6,7.1-9C177.5,416.5,177.8,416.8,178.3,417L178.3,417z M651.2,782.3c0.2,0,0.2-0.3,0.5-0.3c1.8,0.3,3.9,0.5,6,0.5
		C654.3,784.9,652.2,784.6,651.2,782.3L651.2,782.3z M178.8,428.1c0.3-0.8,0.8-1.6,1.3-2.4c0.5,0,1.3-0.3,1.3-0.3
		c1.1-1.8,1.1-3.2,2.1-4.7c-0.3-0.3-0.5-0.3-0.8-0.5c-1.6,1.1-3.1,2.4-4.7,3.5c0.5,0.5,0.5,0.8,0.5,1.3c-2.1-0.3-2.9,0.8-4,3.7
		c-0.3,0.8-1.6,1.1-2.9,2.1c-0.3,0.5-0.5,1.9-1,3.2l0.3,0.3c-0.5,0.5-1.3,0.8-1.3,0.8c-1.6,1.6-3.4,2.9-5,4.5
		c-0.3,0.8-0.5,1.6-0.5,2.4c1.9-1.8,5-5.3,7.4-7.4l0.3,0.3c1.1-1.6,1.8-3.2,2.9-4.7c0.2,0.3,0.2,0.5,0.5,0.8
		c-0.8,2.1-1.6,4.5-2.4,6.6c-0.6,0.3-1.3,0.8-1.3,0.5c-1.1,0.8-1.8,1.8-2.9,2.6l-4.7,3.2c-2.6,2.4-5.3,4.5-8.2,6.9
		c-1.8,2.9-3.7,5.5-5.8,9c3.2-0.8,4,0.5,3.7,3.2c3.7,0.5,3.9-2.4,5-4.5c0.3-0.5,0.5-1.6,1-1.9c2.4-2.1,5-3.9,7.6-6.1
		c0.5-0.5,0.5-1.6,0.5-2.4c0-0.3-1.3-0.3-2.1-0.5c2.4-2.6,5.8-7.1,8.2-10c1.3-0.8,2.6-1.9,2.6-2.6c-0.3-2.9,1.6-3.7,3.7-4.7
		C179.1,429.2,178.8,428.4,178.8,428.1L178.8,428.1z" />
    <path class="st0" d="M184.1,425.2c-1.1,1.8-2.1,3.4-3.1,5.3l-1.6-0.8c-1.1,6-4.7,11.3-8.4,12.4c1,0.5,2.1,1.1,2.9,0.8
		c0.8-0.3,1.3-1.6,1.8-2.4l7.1-10.3l2.4-4L184.1,425.2L184.1,425.2z M96.5,540.9c1.3,0,2.6,0.3,4.2,0.3c0-1,1.3-0.8,1.3-1.8h0.8
		c0,1.3,0.3,2.4,0.3,3.7h-5.5C97.3,542.7,96.2,541.1,96.5,540.9L96.5,540.9z M94.4,528.8c-0.8-0.8-2.1-1.6-2.1-2.4
		c-0.3-1,0.5-2.4,1.3-3.7c0.5,1.8,0.8,3.4,1.3,5.3C94.6,528.2,94.4,528.5,94.4,528.8L94.4,528.8z M101,511.9
		c1.1,2.7,2.1,5.6,3.2,8.2c-0.3,0-1.8,0.8-2.1,1c-1-2.6-2.4-5.5-3.4-8.2C98.9,512.7,100.4,511.9,101,511.9L101,511.9z M686.8,763.8
		c1.3-0.5,2.9-0.8,5-1.3c-2.4,1.8-4.2,3.2-5.8,4.7c-0.3-0.3-0.5-0.5-0.8-0.5C685.7,765.7,686.2,764.9,686.8,763.8L686.8,763.8z
		 M363.3,207c1.6-1.1,2.9-1.8,4.5-2.9l0.5,0.5c-1.6,2.1-2.9,4.2-4.8,6.9c-0.3-1.8-0.3-2.9-0.5-4.2C362.8,207.3,363,207.3,363.3,207
		L363.3,207z M440.4,340.3c2.4-1.1,4.7-2.1,7.6-3.4c-0.3,1.6-0.3,2.6-0.3,3.7c-0.8-0.3-1.9-0.5-2.6-0.5c-1.6,0.3-4.5,2.4-5.8,2.6
		C439.1,342.7,440.4,340.6,440.4,340.3L440.4,340.3z M637.8,563.8c0.5,2.6,5.5,3.9,0.5,6.6c0.8,0.6,1.6,0.8,2.4,1.3
		c0,0.3-0.3,0.8-0.5,1.1c-0.5,0.2-1.6,0.8-2.1,0.5c-0.3,0-0.8-1-0.8-1.6C637.3,569.3,637.5,567,637.8,563.8L637.8,563.8z" />
  </g>
</svg>