<svg version="1.1" id="Layer_1"
  xmlns="http://www.w3.org/2000/svg"
  xmlns:xlink="http://www.w3.org/1999/xlink" x="0px" y="0px" viewBox="0 0 2797.9 2098.4" style="enable-background: new 0 0 2797.9 2098.4" xml:space="preserve">
  <def>
    <style>
      .st0 { fill:#CF649A }
      .st1 { fill:#FFFFFF }
    </style>
  </def>
  <g>
    <path class="st0" d="M411.9,2006.7c-33.1,0-66-4.5-97.9-13.4c-32.1-8.9-64.2-40.5-83.8-82.5c-17.5-37.3-39.7-115.4,7.5-219.9
      c27.3-60.4,90.8-125.1,188.7-192.4c71.1-49,142.3-86.6,177.1-104.1c-28.9-22.7-64.8-47.4-102.2-73.2
      c-73-50.2-155.6-107.2-225-173.9c-82-78.8-129.4-156.1-144.9-236.4c-8.6-43.8,2-105,29.1-168c36.1-83.7,98.3-167.1,184.9-247.9
      c144.1-134.8,355.5-256.2,595.3-341.6c111.6-39.6,229.4-60.5,340.7-60.5c112.7,0,213.9,21.2,292.7,61.3
      c84.7,43.1,139.8,106.4,159.3,183.1c14.2,55.6,13.8,115-1.2,176.6c-14,57.6-40,114.8-77.5,169.9c-74,109.1-186,198.5-307.1,245.5
      c-139.9,54-257.3,65.4-331.2,65.4c-33.4,0-97-2.5-147.6-19.1c-39.6-13-76-33.4-105.4-59c-24.3-21.1-42.7-45-50.5-65.5
      c-3.1-7.8-6.6-17-7.8-26.5c-3.1-24.1,10.5-34.4,16.8-37.9c3.8-2.1,9-4.6,15.7-4.6c14.1,0,23.6,9.6,40.5,28.1
      c3,3.3,19.5,20.3,54.8,35.7C869.9,862,913,870.2,961,870.2c16.4,0,33.6-1,50.9-3C1130,854,1242.8,815.4,1338,755.6
      c83.8-52.6,152.1-120.8,192.4-191.9c19.9-35.2,32.3-69.5,36.8-102c4.4-31.9,0.9-60.6-10.3-85.2c-11.9-25.9-39.6-48.3-80.1-64.8
      c-44.9-18.2-103.2-27.8-168.5-27.8c-66.2,0-137.6,9.6-212.5,28.5c-83,21-168.3,53.2-253.5,95.6
      c-197.6,98.4-337.1,200.2-414.6,302.6c-58.1,76.8-68.2,135.3-70.4,177.7c-3.1,57.5,17.4,110,64.5,165.3
      c43.2,50.7,104.1,97.5,163,142.8c52,40,105.7,81.3,149.1,126.3c11.5-6.3,23.3-12.8,34.8-19.1c10.7-5.9,21.8-12.1,32.6-17.9
      c48.9-26.8,96-52.5,130.5-71.3c13.1-7.1,24.4-13.3,33.3-18.2c26.3-37.1,64-74.5,104.1-103.1c33.2-23.7,82.9-52,130.8-52
      c33,0,58.8,11.4,76.6,34c18.3,23.2,26.9,56.9,25.5,100.1c-0.1,3.9-0.3,7.7-0.6,11.3c3-0.5,6.2-0.7,9.6-0.7c8.8,0,18.3,1.8,28,5.4
      c30.7,11.1,45.8,33.4,41.5,61.4c-0.2,4.2-2.3,12.1-12.6,50c-14,51.3-37.4,137.3-49.3,199.1c0,0,0,0,0,0.1
      c7.9-15.5,19.9-39.9,34.4-72.5l9-20c35.9-80.1,145.3-323.8,154.4-350.8l0.1-0.3c6-16.8,10.3-34.4,13.8-48.5
      c2.7-11.1,4.9-19.9,7.3-26.5c5-13.4,19.3-22.6,45.1-28.8c19.2-4.7,43.7-7.2,68.8-7.2c1.2,0,2.4,0,3.6,0c25.8,0.3,45.6,5.6,58.7,16
      c13.4,10.6,16.1,23.2,16.6,28.1l0.1,1.1v1.1c0,4.8-1.4,8.8-6.5,23.8c-7,20.2-19.9,57.9-23.4,85.2c-4.1,32-1.5,50.4,2,75.9
      c0.8,5.6,1.6,11.4,2.4,17.7c1.6,13,8.3,29.7,16.5,47c56-94.3,124.8-220.9,131.6-256.3l0-0.2c6.6-32.7,16.9-64.2,21.8-77.7
      c5-13.4,19.3-22.6,45.1-28.8c19.2-4.7,43.7-7.2,68.8-7.2c1.2,0,2.4,0,3.6,0c25.8,0.3,45.6,5.6,58.7,16
      c13.3,10.5,16.1,23.2,16.6,28.1l0.1,1.1v1.1c0,4.8-1.4,8.8-6.5,23.8c-7,20.2-19.9,57.9-23.4,85.2c-4.1,32-1.5,50.4,2,76
      c0.8,5.6,1.6,11.4,2.4,17.6c2.8,21.4,19.1,53.1,36.5,86.7c1.1,2.2,2.3,4.4,3.5,6.7c67.9-30.4,141-46,217.4-46.4c1.2,0,2.3,0,3.5,0
      c117.5,0,219.8,39.2,288,110.5c25.8,27,45.6,57.3,58.8,90.2c13.1,32.6,19,66.1,17.5,99.4c-2.4,62.3-34.1,103.7-60.3,127.5
      c-29.5,26.8-61.4,40.1-74.6,42.3l-0.3,0c-4.8,0.7-9.4,1.3-13.9,1.3c-16.1,0-27.6-9.3-30.6-25c-1.5-7.1-1.1-17.5,8.7-27.1
      c4.5-4.4,10.4-8.1,18.8-13.3c34.3-22.2,54.9-51.1,59.7-83.6c3.2-22.1-3.3-61.3-32.3-99.1c-50.4-65.7-137.8-88.4-202.2-96
      c-23.3-2.8-46.2-4.2-68.2-4.2c-52.4,0-101.5,8-146.2,23.9c9.3,28.1,14.4,54,15.6,78.7l0,0.2c1.3,35.3-9.1,69.3-30.9,101.1
      c-16.7,24.4-39.8,47.3-70.5,70c-26.1,19.3-57.8,35.7-89.3,46.1c-17.3,7.3-42,15.9-63.7,15.9c-5,0-9.8-0.5-14.2-1.4
      c-24.3-5-43-17.8-53.9-37c-15.8-27.8-14.8-67.6,2.8-118.5c15-43,56.1-109.4,127.3-171c-0.7-1.5-1.4-2.9-2.1-4.3
      c-14-28.4-28.5-57.7-36.6-85.4c-5.1-17.6-9.2-33.3-12.6-46.8c-24.9,47.1-65.5,120.1-112.2,188.5c-2.4,3.7-4.8,7.3-7.2,10.8
      c16.5,40.5,24.9,74.7,26.1,106.7c3,70.1-26,129.8-83.8,172.6l-0.1,0.1c-24.9,18.1-53,32.9-83.5,43.9c-19.9,8.6-52.8,19.4-97.8,22.4
      c-6.2,0.5-12.2,0.7-17.9,0.7c-25.3,0-43.9-4.7-57-14.4l-0.2-0.1c-24.6-18.6-30.4-44.6-17.2-77.2c7.1-17.6,38.7-55.5,89.7-115.9
      c10.2-12,20.7-24.5,30.6-36.4c9.9-12.1,19.1-23.5,27.4-34.3l-0.4-0.4l10.4-13.9c0.1-0.1,6.1-8.2,16.4-22.4
      c-4.1-8.5-8.3-17.2-12.5-25.6c-13.7-27.8-27.9-56.5-35.9-83.9c-4.1-14.1-7.6-27-10.5-38.6c-23.6,57.1-61.5,145.1-99.9,220.8
      c-45.4,89.5-77.7,147.6-96.7,180.6l-9.3,15.4l-0.3,0.5c-25,36.7-63.7,80.5-106.4,80.5c-24,0-44.6-9.5-59.6-27.3
      c-16.1-19.3-25.9-48.4-29.2-86.8c-6.2,13.2-12.7,26.6-19.4,39.8c-25.7,50.9-54.8,108.6-122.8,108.6c-15.2,0-46.9,0-73.7-24.9
      l-0.1-0.1c-51.1-48.4-88.1-166.2-80.9-257.3c3.8-47.6,9.8-87.2,18.9-123c-15.1,8.5-31.4,17.8-47.9,27.5l-34,20
      c19.3,45,28.9,107,26,169.5c-2.8,58-17.4,144.1-71.4,224.8c-38.3,57-89.9,104.9-149,138.6C546.2,1988.2,478.6,2006.7,411.9,2006.7z
      M648.8,1501.2c-47.7,29.9-115.2,75.7-166.3,124c-60.2,56.9-82.6,125.7-78,165.6c1,8.2,4.1,22.8,14.2,28.6l0.2,0.1
      c6.7,4,16.5,6.1,28.3,6.1c22.6,0,50.3-7.5,78-21.2c31.2-15.4,60.4-37.6,84.6-64.1c36.5-39.8,61.1-83.8,73.2-130.8
      c10.6-41.4,11.5-85.2,2.7-130.5c-4.7,2.8-9.1,5.5-13.3,8C663,1492.6,654.9,1497.5,648.8,1501.2z M1195.1,1178.1
      c-11.4,1.5-34.7,13.1-60.1,41.3c-23.9,26.8-63.2,94.9-81.3,149.6c-15.4,46.9-23.1,98.8-21.5,146.1c0.7,19.8,2.9,37.6,6.6,51.6
      c1.9,7.3,3.9,12.4,5.6,15.8c5.2-6,14.9-20,29.7-52.1c14.8-31.9,29.6-70.8,41.6-102c5.8-15.3,10.9-28.4,15.3-39.1
      c7.5-18.2,25.3-66.8,40.2-113.6C1190.8,1213.2,1194.6,1187.7,1195.1,1178.1z M1997.7,1392c-26.5,29.3-39.5,54.9-43.4,63.5l-0.1,0.1
      c-8.7,18.7-14,31.9-17.2,41.2c40.4-22.3,60.3-56.3,60.6-103.4l0-0.3C1997.6,1393,1997.6,1392.2,1997.7,1392z" />
    <path class="st1" d="M1281.3,112.9c217.3,0,394.8,81.2,432.6,229.3c55.2,216.3-132.8,475.1-373.5,568.4c-125,48.3-237.4,64-324,64
      c-62.2,0-111-8.1-141.4-18.1c-83-27.3-131.8-82-143.6-112.8c-4.9-12.2-12.7-32.7,0-39.6c2.2-1.2,4-2.1,6-2.1
      c4.9,0,10.7,5.2,25.7,21.6c17.5,19.2,80.7,66.6,197.8,66.6c16.6,0,34.4-1,53.2-3.1c397.5-44.4,636.7-353,561-519
      c-27.9-60.9-125.3-104.3-266.8-104.3c-128.4,0-293,35.7-474.8,126.3C366.7,622.5,341.3,814.4,337.4,887.1
      c-10.7,200.2,247.6,305.7,387.2,454.6l5.4,5.9c26.4-14.2,54.2-29.8,81.1-44.4c70.3-38.6,136.7-74.7,168-91.8
      c49.3-71.8,148.9-150.4,221.2-150.4c115.2,0,75.7,165.5,75.7,165.5s2.4-7.8,5.4-7.8c2.3,0,10.3-13,30.1-13c5.9,0,12.9,1.2,21.2,4.2
      c36.6,13.2,28.3,39.1,28.3,41.5c0.5,5.4-43.5,152.3-61.5,246.6c-8.3,44.9-3.4,77.6-1,77.6c3.4,0,10.7-11.7,17.6-23.9v-0.5
      c0,0,4.9-9.3,13.7-25.9c0.1-0.1,0.1-0.2,0.1-0.2c0,0-3.3,5.9-3.3,5.9c0,0,1.1-2.2,4.7-9.2c10.3-19.5,24.4-48.3,40.5-84.5
      c31.7-70.8,153.8-342.3,164.1-372.6c10.7-30.3,16.1-61.5,21-74.7c4.8-12.9,46.4-23,95.2-23c1.1,0,2.3,0,3.4,0
      c50.3,0.5,55.2,22,55.7,26.4c0,4.9-24.4,64.4-29.8,106.4c-5.4,42,0,63.5,4.4,98.6c2.9,23.4,17.6,52.7,34.7,85.9
      c52.2-85.4,144-248,152.8-293.9c6.3-31.2,16.1-61.5,21-74.7c4.8-12.9,46.4-23,95.2-23c1.1,0,2.3,0,3.4,0
      c50.3,0.5,55.2,22,55.7,26.4c0,4.9-24.4,64.5-29.8,106.5c-5.4,42,0,63.5,4.4,98.6c3.9,30.3,27.3,70.8,50.8,117.2
      c63.5-31.3,139.2-52.2,226.6-52.7l0,0c1.1,0,2.2,0,3.3,0c224,0,350.1,145.7,344.3,279.3c-3.9,104.5-100.1,147.9-118.2,150.9
      c-4.3,0.6-7.9,1.1-11,1.1c-6.2,0-9.7-2-11-8.9c-1.5-6.8,3.4-10.3,18.6-19.5c15.1-9.8,60.6-41,68.9-97.7
      c8.3-56.6-34.7-192.4-252-217.8c-24.8-3-48.3-4.4-70.6-4.4c-68.5,0-125.2,13-171.6,32.2c11.2,29.3,19.5,60.1,21,91.3
      c2.4,67.9-44.4,118.2-93.3,154.3c-28.3,21-59.1,35.2-84.5,43.5c-17.1,7.3-38.9,14.6-56.7,14.6c-3.6,0-7-0.3-10.2-1
      c-42.5-8.8-64.9-46.4-36.1-129.4c15.6-44.9,61-113.3,133.3-172.4c-16.6-34.2-35.2-68.9-44.4-100.6
      c-18.1-62.5-23.9-100.6-23.9-100.6s-59.6,124-136.7,236.8c-4.4,6.8-8.8,13.2-13.2,19.5c15.1,35.2,27.3,72.3,28.8,109.9
      c2.9,68.4-26.9,119.6-75.7,155.8c-26.9,19.5-54.7,32.7-79.1,41.5c-15.6,6.8-46.9,18.1-91.8,21c-5.6,0.4-11.1,0.7-16.5,0.7
      c-18.5,0-34.8-2.9-45.1-10.4c-18.1-13.7-20-30.8-10.7-53.7c7.8-19.5,67.4-87.4,117.2-147c13.7-16.6,26.9-33.2,38.6-48.8l-0.5-0.5
      c0,0,8.8-11.7,23.4-32.2c-18.1-39.6-41.5-80.1-52.2-117.2c-18.1-62.5-23.9-100.6-23.9-100.6s-60.6,155.3-123.5,279.3
      c-48.8,96.2-81.5,154.3-96.2,179.7l-8.8,14.6c-16.6,24.4-53.2,71.8-89.8,71.8c-100.1,0-63.5-203.6-63.5-203.6
      s-29.3,75.2-62.5,140.1c-26.9,53.2-51.3,97.7-105,97.7c-15.1,0-39.6-0.5-60.1-19.5c-46.4-43.9-81.5-155.3-74.7-241.2
      c5.9-73.2,17.1-123.5,32.7-166c-27.8,15.1-59.6,32.7-91.8,51.8l-49.8,29.3l1.5,2.9c41.5,79.6,52.2,253.9-37.6,388.2
      c-73.2,108.9-196.8,183.1-327.9,183.1c-30.6,0-61.6-4-92.5-12.6c-52.7-14.6-131.8-123.5-63.5-274.9
      c60.5-133.8,302.2-260.3,365.7-291.5c5.4-2.9,11.2-6.4,17.6-9.8c-127-110.8-443.8-260.7-488.3-490.7
      c-12.7-64.5,17.6-219.7,208-397.5c160.2-149.9,382.8-264.2,588.4-337.4C1060.4,132.1,1175.5,112.9,1281.3,112.9 M1042.7,1606.2
      c32,0,82.5-150,106.7-209.3c15.6-38.1,76.7-208,64-231.4c-3-5.1-8.6-7.6-15.8-7.6c-18.7,0-49,16.5-77.4,48.1
      c-24.4,27.3-65.9,97.7-85.4,156.7c-38.6,117.2-22,235.8,5.4,243.2C1040.9,1606.1,1041.8,1606.2,1042.7,1606.2 M1916.5,1527.7
      c38.1-13.7,100.6-46.4,101.1-134.3c0.5-13.2-2.4-27.3-7.3-42c-40.5,35.6-64,73.2-74.2,95.7
      C1909.7,1503.8,1908.7,1521.9,1916.5,1527.7 M447.2,1845.7c50.1,0,122.4-31.6,177.4-91.8c75.7-82.5,106.9-187,74.2-306.2
      c-3.9,2.4-7.8,4.9-11.2,6.8c0,0-2,1-4.9,2.9c-18.6,11.2-34.2,20.5-44.4,26.9c-45.9,28.8-115.7,75.7-169.4,126.5
      c-88.4,83.5-106.4,199.2-60.1,226.1C418.8,1842.7,431.9,1845.7,447.2,1845.7 M1561.6,1611.3c5.1,0,12.7-3.2,20.9-7.4h0
      c30.3-19,97.7-65.9,97.7-136.2v-5.9c-15.6,20.5-30.3,38.6-42.5,54.2c-21.5,26.9-75.7,85-75.7,85s-7.8,7.3-4.4,9.3
      C1558.7,1611,1560,1611.3,1561.6,1611.3 M1281.3,72.9l0,40L1281.3,72.9c-113.6,0-233.7,21.3-347.4,61.7
      c-112.5,40.1-219.2,88.1-317.3,142.7c-111.3,62-207.2,130.3-285,203.2l0,0c-46.6,43.5-86.9,88.5-119.7,133.8
      C182.8,654.4,159.3,695,142,735c-15.1,35.1-25.3,69.4-30.3,101.8c-4.4,28.8-4.4,55.8-0.1,77.9h0c16.3,84.5,65.6,165.3,150.7,247
      c70.6,67.8,154,125.2,227.6,175.9c26.9,18.6,53,36.5,76.2,53.5c-38.8,20.5-94.9,52.2-151.1,90.8
      c-100.9,69.4-166.7,136.9-195.5,200.7c-19.9,44.1-30.1,88.2-30.1,131c-0.1,37.8,7.6,73.3,22.7,105.6c10.8,23,25.3,43.8,42,60
      c17.1,16.6,36,28.1,54.6,33.3c33.6,9.4,68.3,14.1,103.2,14.1c70.2,0,141.2-19.3,205.4-55.9c61.8-35.2,115.6-85.3,155.7-144.8l0,0
      l0,0c23.5-35.2,41.9-74.5,54.7-116.8c11.4-37.9,18.2-77.6,20.1-118.1c0.2-4.7,0.4-9.4,0.5-14.1c3.4,22.9,8.6,46.2,15.7,68.9
      c16.4,52.7,40.6,96,68,122l0.1,0.1l0.1,0.1c32.5,30.2,70.9,30.2,87.3,30.2c35.8,0,66.8-14.1,92.1-41.9
      c16.7-18.3,29.4-40.5,42.3-65.4c5.5,15.1,12.8,28.1,21.6,38.7c18.9,22.6,44.8,34.5,74.9,34.5c26.5,0,53.4-12.7,79.9-37.6
      c14.6-13.8,29.1-31.2,43.1-51.7l0.6-0.9l0.6-1l8.8-14.6l0.2-0.3l0.2-0.3c19.2-33.2,51.6-91.6,97.2-181.6
      c28.6-56.3,56.4-118.2,78.5-169.8c8.6,23.9,20.4,47.9,32,71.3c2.4,4.8,4.8,9.8,7.2,14.7c-5.8,8-9.1,12.4-9.2,12.5l-20.8,27.8
      l0.1,0.1c-5.1,6.4-10.5,13.1-16.1,19.9c-9.9,11.9-20.4,24.3-30.5,36.2c-59.9,70.8-85.1,101.7-93,121.4c-7.7,19.1-10,36.2-7.1,52.3
      c3.4,19.1,13.8,35.3,30.9,48.2l0.2,0.1l0.2,0.1c16.6,12.3,39.2,18.3,68.9,18.3c6.1,0,12.6-0.3,19.3-0.8
      c47.3-3.1,82.3-14.5,103.7-23.7c32-11.7,61.6-27.2,87.8-46.3l0.1-0.1l0.1-0.1c27-20,48.3-43.4,63.6-69.7c1.6,3.8,3.3,7.4,5.3,10.9
      c13.8,24.3,37,40.5,67.2,46.7l0,0l0,0c5.7,1.2,11.9,1.8,18.3,1.8c20,0,43.8-5.8,70.8-17.2c23.9-8,59.1-22.8,94.2-48.8
      c32.5-24,57.1-48.5,75-74.8c24.2-35.4,35.8-73.4,34.4-113.1l0-0.2l0-0.2c-1-20.8-4.5-42.2-10.7-64.8
      c37.6-11.2,78.3-16.8,121.4-16.8c21.2,0,43.3,1.4,65.8,4.1l0.1,0l0.1,0c60.6,7.1,142.5,28.1,188.7,88.3c27,35.1,30.5,69.3,28.4,84
      c-2.7,18.6-13.7,45.7-50.6,69.6c-9.5,5.8-16.3,10.2-22.2,16c-12.7,12.4-17.7,28.5-14.3,45.4c3.2,16.4,12,25.9,18.8,31.1
      c8.8,6.6,19.3,10,31.4,10c5.8,0,11.5-0.8,16.8-1.5l0.3,0l0.3,0c19.8-3.2,55.4-20.5,84.8-47.2c41.7-37.8,64.8-86.7,66.9-141.5
      c1.6-36.2-4.8-72.4-18.9-107.7c-14.1-35.2-35.3-67.7-62.9-96.6c-72-75.2-179.4-116.7-302.4-116.7c-1.2,0-2.4,0-3.6,0
      c-72.8,0.4-142.6,14.1-208,40.7c-14-27.3-27.2-54.1-29.3-70.2c-0.8-6.4-1.6-12.2-2.4-17.9c-3.5-24.9-5.8-41.3-2-70.7
      c3.2-25.3,15.8-61.7,22.5-81.2c5.7-16.6,7.6-22.1,7.6-30.3v-2.2l-0.2-2.2c-1.8-15.7-10.5-30.9-24.1-41.6
      c-16.7-13.2-40.6-20-70.9-20.3c-1.3,0-2.6,0-3.8,0c-26.7,0-52.8,2.8-73.5,7.8c-11.8,2.8-21.9,6.4-30,10.6
      c-14.6,7.6-24.4,17.9-29.2,30.7c-5.2,14-15.8,46.7-22.7,80.6l0,0.2l0,0.2c-0.8,4.2-7.3,29.7-56.1,120.8c-17,31.7-35.1,64-51.9,93
      c-0.2-1.1-0.4-2.2-0.5-3.2c-0.8-6.4-1.6-12.3-2.4-17.9c-3.5-24.9-5.8-41.3-2-70.6c3.2-25.3,15.8-61.7,22.5-81.2
      c5.7-16.6,7.6-22.1,7.6-30.3v-2.2l-0.2-2.2c-1.7-15.7-10.5-30.9-24.1-41.6c-16.7-13.2-40.6-20-70.9-20.3c-1.3,0-2.6,0-3.8,0
      c-26.7,0-52.8,2.8-73.5,7.8c-11.8,2.8-21.9,6.4-30,10.6c-14.6,7.6-24.4,17.9-29.2,30.7c-2.8,7.6-5.1,16.9-8,28.6
      c-3.4,13.7-7.6,30.7-13.2,46.6l-0.1,0.3l-0.1,0.3c-4.8,14.3-40.9,96.8-107.5,245.7c2.4-8.8,4.5-16.5,6-22.5
      c2.4-9,3.8-14.7,4.3-19.7c1-6.1,2.8-21-3.9-38c-5.7-14.4-19.1-33.9-50.6-45.3c-8.1-3-16-5-23.8-5.9c0-43.7-10.1-78.6-30-103.8
      c-15-19-43.2-41.6-92.3-41.6c-53.2,0-106.8,30.3-142.4,55.7c-40.5,28.9-78.7,66.4-106,104c-8.2,4.5-18.1,9.9-29.3,16
      c-34.5,18.8-81.7,44.5-130.6,71.4c-10.8,5.9-21.9,12-32.6,17.9c-7.1,3.9-14.3,7.9-21.4,11.8c-42.3-41.8-92.1-80.2-140.6-117.4
      c-60.8-46.7-118.2-90.8-160-139.9c-43.6-51.1-62.6-99.2-59.8-151.2c0.9-17.4,3-38.8,11.7-65.6c10.6-33.1,29-67.1,54.8-101.1
      c33.9-44.8,81.1-90.3,140.1-135.2c71.4-54.4,161.4-108.7,267.5-161.5c83.9-41.8,167.8-73.4,249.5-94.1
      c73.2-18.5,143-27.9,207.5-27.9c133.5,0,212,40.6,230.5,80.9l0,0c9.6,21.1,12.5,46.1,8.7,74.2c-4.1,30-15.7,61.9-34.4,94.9
      c-38.7,68.3-104.7,134-185.7,184.9c-44.5,28-93.1,51.3-144.4,69.4c-55.2,19.4-113.5,32.7-173.2,39.4c-16.7,1.9-33,2.8-48.7,2.8
      c-45.2,0-85.7-7.6-120.2-22.7c-32.2-14.1-46.5-29.1-48-30.8l0,0l0,0c-7.9-8.7-14.4-15.5-20.3-20.4c-4.1-3.5-16.7-14.2-35-14.2
      c-11.3,0-19.8,4-25.3,7c-20.2,11-30.2,32.7-26.9,57.9c1.7,12.7,6.4,24.7,9,31.2c17.2,44.6,77.1,106.1,168.3,136.2
      c39.5,13,94.1,20.1,153.9,20.1c75.6,0,195.6-11.6,338.4-66.7c63.1-24.4,123.1-59.4,178.4-103.9c54-43.5,100.5-93.6,138.1-149
      c38.8-57.1,65.8-116.4,80.3-176.4c15.7-64.8,16.1-127.5,1.1-186.3c-21-82.4-79.7-150.2-169.6-195.9
      C1501.5,94.8,1397.1,72.9,1281.3,72.9L1281.3,72.9z M1149.9,1232.7c6.4-7.1,12.4-12.8,17.8-17.2c-3.7,14.5-9.1,33.8-17.3,59.2
      c-14.5,45.2-30.9,89.8-38,107l0,0l0,0c-4.5,10.9-9.5,24.2-15.4,39.5c-11,28.7-24.7,64.5-38.2,94.5c-2,4.5-4,8.7-5.8,12.5
      c-0.5-6.7-0.9-14.1-1-22.1c-0.4-42.8,7-89.3,20.7-131C1090.9,1320.1,1129.9,1255.1,1149.9,1232.7L1149.9,1232.7z M1802.9,1362.8
      c34.6-50.6,65.4-102.9,89.3-145.8c7.7,25.9,20.2,52.3,32.9,78c-49.8,45.5-84.4,93-105,132c-3.9-19.4-10-39.9-18.6-62.1
      C1802,1364.3,1802.4,1363.6,1802.9,1362.8L1802.9,1362.8z M826.7,1429.1l19.3-11.4l0,0l0,0c3-1.8,5.9-3.5,8.9-5.2
      c-4.4,24.9-7.6,51.9-10,81.9c-0.3,3.3-0.5,6.7-0.6,10.1c-0.9-7-2-14-3.3-20.9C837.4,1464.1,832.6,1445.7,826.7,1429.1L826.7,1429.1
      z M659.4,1518.2c3.1-1.9,6.8-4.1,10.9-6.6c3.2,32.1,1,63.2-6.7,92.9c-11.3,43.8-34.3,85-68.5,122.3l0,0l0,0
      c-22.6,24.7-49.8,45.3-78.7,59.6c-24.7,12.2-49.8,19.2-69.1,19.2c-11.6,0-16.8-2.5-18.1-3.3l-0.2-0.1l-0.1-0.1
      c-0.9-0.7-4.2-5.9-4.8-18.5c-0.8-18.4,4.9-42.5,15.8-66.1c12.9-28.2,32.4-55.1,56.5-77.7C546.2,1592.6,612.5,1547.7,659.4,1518.2
      L659.4,1518.2z" />
  </g>
</svg>