<svg version="1.1" id="Layer_1"
  xmlns="http://www.w3.org/2000/svg"
  xmlns:xlink="http://www.w3.org/1999/xlink" x="0px" y="0px" viewBox="0 0 2912.4 2924.1" style="enable-background: new 0 0 2912.4 2924.1" xml:space="preserve">
  <def>
    <style>
      .st0 { fill: #ffffff }
      .st1 { fill: url(#SVGID_1_vite) }
      .st2 { fill: url(#SVGID_2_vite) }
    </style>
  </def>
  <g>
    <path class="st0" d="M1467.6,2727.8c-37.3,0-70.7-19.4-89.2-51.8L202.7,614.1c-18.3-32.1-18.2-70.4,0.3-102.3
		c18.4-31.6,52.2-51.3,88.4-51.3c6.2,0,12.4,0.6,18.6,1.7l768.2,137.3l10.4-174.8c1.9-32.5,25.6-59.5,57.5-65.8l856.2-167.8l0.6,0
		c3.4-0.5,6.9-0.7,10.3-0.7c22.2,0,43.5,10.7,56.9,28.5c13.6,18,17.8,40.9,11.5,62.6l-84,291.3l604.8-110.2
		c6.3-1.1,12.6-1.7,18.9-1.7c36,0,69.7,19.5,88.2,50.9c18.6,31.7,18.9,69.8,1,101.9L1557.2,2675.2c-9.3,16.6-22.8,30.2-39.1,39.4
		C1502.8,2723.2,1485.4,2727.8,1467.6,2727.8C1467.6,2727.8,1467.6,2727.8,1467.6,2727.8z" />
    <path class="st0" d="M2013,230.3c20.2,0,35.9,19.6,30,40l-101.9,353.3l668.3-121.8c4-0.7,7.9-1.1,11.7-1.1
		c46.1,0,78.1,50.6,54.2,93.3L1522.3,2655.7c-12,21.4-33.3,32.1-54.7,32.1c-21.2,0-42.4-10.5-54.4-31.6L237.4,594.3
		c-24.4-42.7,7.6-93.7,53.9-93.7c3.8,0,7.6,0.3,11.5,1l812.5,145.2l13-219.7c0.8-14.3,11.2-26.1,25.3-28.9l853.2-167.2l0,0
		C2008.9,230.5,2011,230.3,2013,230.3 M2013,150.3L2013,150.3L2013,150.3c-4.8,0-9.6,0.3-14.3,0.9l-1.7,0.1l-5.6,1.1l-853.2,167.2
		c-49.8,9.8-86.7,52-89.7,102.7l-7.7,129.9L317,422.8c-8.5-1.5-17.1-2.3-25.6-2.3c-25.7,0-51,7-73,20.3c-20.6,12.4-37.8,30-50,50.9
		c-12.1,20.9-18.8,44.5-19.3,68.4c-0.6,25.6,5.9,51.1,18.9,73.8l1175.8,2061.9c13,22.7,31.7,41.4,54.3,54c21.2,11.8,45.2,18,69.6,18
		c24.6,0,48.8-6.3,70.1-18.3c22.7-12.8,41.5-31.7,54.4-54.7L2745.1,633.1c12.7-22.7,19-48.1,18.2-73.6c-0.7-23.8-7.5-47.3-19.6-68.1
		c-12.2-20.7-29.4-38.2-49.9-50.5c-21.9-13.2-47.1-20.1-72.7-20.1c-8.7,0-17.4,0.8-26.1,2.4l-541.3,98.7l66.1-229.2
		c4.9-17.1,5.7-35.2,2.3-52.5c-3.2-16.3-10.2-32-20.3-45.3c-10-13.3-23.2-24.4-38-32.1C2048.2,154.6,2030.6,150.3,2013,150.3
		L2013,150.3z" />
  </g>
  <linearGradient id="SVGID_1_vite" gradientUnits="userSpaceOnUse" x1="1158.0449" y1="1882.437" x2="1158.6295" y2="1881.7295" gradientTransform="matrix(2454.3228 0 0 -2187.2434 -2841426.75 4117588.25)">
    <stop offset="0" style="stop-color: #41d1ff" />
    <stop offset="1" style="stop-color: #bd34fe" />
  </linearGradient>
  <path class="st1" d="M2675.3,593.6L1522.4,2655.3c-23.8,42.6-85,42.8-109.1,0.5L237.5,593.8c-26.3-46.2,13.1-102.1,65.5-92.7
	l1154.2,206.3c7.4,1.3,14.9,1.3,22.3,0l1130-206C2661.5,491.9,2701.2,547.4,2675.3,593.6z" />
  <linearGradient id="SVGID_2_vite" gradientUnits="userSpaceOnUse" x1="1157.8304" y1="1882.3236" x2="1157.8998" y2="1881.4557" gradientTransform="matrix(1125.4194 0 0 -2051.6592 -1301441.75 3862156.5)">
    <stop offset="0" style="stop-color: #ffea83" />
    <stop offset="8.299999e-02" style="stop-color: #ffdd35" />
    <stop offset="1" style="stop-color: #ffa800" />
  </linearGradient>
  <path class="st2" d="M2006.9,230.5l-853.2,167.2c-14,2.7-24.4,14.6-25.3,28.9L1076,1313c-1,17.3,12.1,32.1,29.4,33.1
	c3,0.2,6-0.1,8.9-0.7l237.5-54.8c22.2-5.1,42.3,14.4,37.7,36.8L1319,1673c-4.7,23.3,17.1,43.1,39.8,36.2l146.7-44.6
	c22.7-6.9,44.6,13,39.8,36.3l-112.2,542.8c-7,34,38.1,52.5,57,23.4l12.6-19.4L2198,860.2c11.6-23.2-8.4-49.7-33.9-44.8l-244.5,47.2
	c-23,4.4-42.5-17-36-39.4L2043.1,270C2049.5,247.4,2029.9,226,2006.9,230.5L2006.9,230.5z" />
</svg>