<svg
  version="1.1"
  id="Layer_1"
  xmlns="http://www.w3.org/2000/svg"
  xmlns:xlink="http://www.w3.org/1999/xlink"
  x="0px"
  y="0px"
  viewBox="0 0 303.6 262.9"
  style="enable-background: new 0 0 303.6 262.9"
  xml:space="preserve"
>
  <def>
    <style>
      .st0 {
        fill: #34495e;
      }
      .st1 {
        fill: #ffffff;
      }
      .st2 {
        fill: #41b883;
      }
    </style>
  </def>
  <g>
    <polygon
      class="st0"
      points="14,14.1 123.9,14.1 151.8,62.5 179.7,14.1 289.6,14.1 151.8,252.8 	"
    />
    <path
      class="st1"
      d="M282.7,18.1L151.8,244.8L20.9,18.1h52.4h48.3l30.2,52.4L182,18.1h48.3H282.7 M296.5,10.1h-13.9h-52.4H182h-4.6
    l-2.3,4l-23.3,40.4l-23.3-40.4l-2.3-4h-4.6H73.3H20.9H7.1l6.9,12l130.9,226.7l6.9,12l6.9-12L289.6,22.1L296.5,10.1L296.5,10.1z"
    />
  </g>
  <g transform="matrix(1.3333 0 0 -1.3333 -76.311 313.34)">
    <g transform="translate(178.06 235.01)">
      <path
        class="st2"
        d="M15.7-13.6L-7-52.8l-22.7,39.3h-75.5l98.2-170l98.2,170H15.7z"
      />
    </g>
    <g transform="translate(178.06 235.01)">
      <path
        class="st0"
        d="M15.7-13.6L-7-52.8l-22.7,39.3h-36.2l58.9-102l58.9,102H15.7z"
      />
    </g>
  </g>
</svg>