<svg version="1.1" id="Layer_1"
  xmlns="http://www.w3.org/2000/svg"
  xmlns:xlink="http://www.w3.org/1999/xlink" x="0px" y="0px" viewBox="0 0 3101.1 3551.5" style="enable-background: new 0 0 3101.1 3551.5" xml:space="preserve">
  <def>
    <style>
      .st0 { fill:#1B73BA }
      .st1 { fill:#FFFFFF }
      .st2 { fill:#1C88C7 }
    </style>
  </def>
  <g>
    <polygon class="st0" points="604.3,2792.8 415.7,487.9 2685.7,492.5 2486.3,2792.6 1559,3061.2 	" />
    <path class="st1" d="M459.1,527.9l2183,4.5l-193.3,2229.4l-890,257.7l-916.9-257.7L459.1,527.9 M372.2,447.8l7.1,86.7l182.8,2233.9
l4.5,55.4l53.6,15.1l916.9,257.7l22,6.2l21.9-6.3l890-257.7l52.7-15.3l4.7-54.7l193.3-2229.4l7.5-86.7l-87.1-0.2l-2183-4.5
L372.2,447.8L372.2,447.8z" />
  </g>
  <path class="st2" d="M1558.8,2805.8V742.7l899,3l-160.3,1845.9L1558.8,2805.8z" />
  <path class="st1" d="M2234.5,1006.4H851.6l37.5,269.7h656.2l-645.7,277.2l37.4,260.7h951.4L1854,2178l-322.1,62.9l-292.2-74.9
l-22.5-206.8H949l35.9,430l575.3,160.3l551.4-175.3l70.4-840.5h-582.9l635.3-263.7L2234.5,1006.4z" />
</svg>