<svg
  version="1.1"
  id="Layer_1"
  xmlns="http://www.w3.org/2000/svg"
  xmlns:xlink="http://www.w3.org/1999/xlink"
  x="0px"
  y="0px"
  viewBox="0 0 2966.6 2966.6"
  style="enable-background: new 0 0 2966.6 2966.6"
  xml:space="preserve"
>
  <def>
    <style>
      .st0 { fill:#FFFFFF }
      .st1 { fill:#DE4C36 }
    </style>
  </def>
  <path
    class="st0"
    d="M2760.8,1365L1601.5,205.8c-66.7-66.8-175-66.8-241.8,0L205.8,1359.7c-66.8,66.8-66.8,175.1,0,241.9
  l1159.3,1159.2c66.7,66.8,175,66.8,241.8,0l1153.9-1153.8C2827.6,1540.1,2827.6,1431.8,2760.8,1365"
  />
  <path
    class="st1"
    d="M2686.2,1371.9L1594.6,280.5c-62.8-62.9-164.8-62.9-227.7,0L280.5,1366.9c-62.9,62.9-62.9,164.9,0,227.8
  L1372,2686.1c62.8,62.9,164.8,62.9,227.7,0l1086.4-1086.4C2749,1536.8,2749,1434.8,2686.2,1371.9"
  />
  <path
    class="st0"
    d="M1141.2,505.9l287.5,287.5c66.8-22.6,143.4-7.4,196.7,45.8c53.5,53.6,68.6,130.9,45.4,197.9l277.1,277.1
  c67-23.1,144.4-8.2,197.9,45.5c74.8,74.8,74.8,196,0,270.9c-74.9,74.9-196.1,74.9-271,0c-56.3-56.3-70.2-139-41.7-208.4
  l-258.4-258.4l0,680c18.7,9.3,35.8,21.5,50.7,36.2c74.8,74.8,74.8,196.1,0,271c-74.9,74.8-196.2,74.8-270.9,0
  c-74.8-74.9-74.8-196.2,0-271c17.9-17.9,39.2-32.2,62.7-41.8V1152c-23.5-9.6-44.8-23.8-62.7-41.8c-56.7-56.6-70.3-139.8-41.3-209.4
  l-283.4-283.5L1141.2,505.9z"
  />
</svg>