<svg version="1.1" id="svg4525"
  xmlns="http://www.w3.org/2000/svg"
  xmlns:xlink="http://www.w3.org/1999/xlink" x="0px" y="0px" viewBox="0 0 2468.7 2806.6" style="enable-background: new 0 0 2468.7 2806.6" xml:space="preserve">
  <def>
    <style>
              .st0 {
                fill: #d4b830;
                stroke: #ffffff;
                stroke-width: 80;
                stroke-miterlimit: 10;
              }
              .st1 {
                opacity: 0.986;
                fill: #ebebeb;
                fill-opacity: 0;
                enable-background: new;
              }
              .st2 {
                fill: #fdd83c;
              }
              .st3 {
                opacity: 0.986;
                fill: #ebebeb;
                fill-opacity: 0.9216;
                enable-background: new;
              }
              .st4 {
                fill: #ffffff;
              }
    </style>
  </def>
  <g id="g5193" transform="translate(4.988 -113.385)">
    <path id="path5113" class="st0" d="M333.8,2513.8l-204.1-2247l2199,0.9l-202.4,2244.4L1227.5,2766L333.8,2513.8z M1146.9,748.8
      M925.6,1900.6" />
    <path id="path5159" class="st1" d="M1074.8,2200.8c-28.3-8.6-168.1-46.3-310.5-84.9l-258.1-69.5v-129.5c0-126.9,0-129.5,12.9-125.2
      c6.9,2.6,101.2,28.3,209.3,58.3l196.4,54l1.7-574.6l1.7-574.6h214.4v730.7c0,580.6-1.7,730.7-7.7,730.7
      C1130.6,2215.4,1103.1,2208.5,1074.8,2200.8L1074.8,2200.8z" />
    <g>
      <path id="path5117" class="st2" d="M1230.9,465.8h900.5l-170.6,1924.5L1231,2588.4L1230.9,465.8L1230.9,465.8z M1914.5,2067.8
        l59.2-719.6l-437.4,48.9V1013l466.6-1.7l18.9-262.4l-704.1,3.4l9.4,955.4l425.4-72.9l-6,212.7l-428.8,114.1l4.3,260.7
        L1914.5,2067.8L1914.5,2067.8z" />
    </g>
    <path id="path5157" class="st3" d="M501.9,2048.1l-0.9-263.3c0,0,271,76.3,424.5,115.8l2.6-1150.9h218.7v1472.6L501.9,2048.1
      L501.9,2048.1z" />
    <path class="st4" d="M1317.7,752.3l704.1-3.4l-18.9,262.4l-466.6,1.7v384.1c0,0,434.7-48.9,437.4-48.9c5.1,0-59.2,719.6-59.2,719.6
      L1322,2222.3l-4.3-260.7l428.8-114.1l6-212.7l-425.4,72.9L1317.7,752.3z" />
  </g>
  <polygon class="st4" points="1322.5,638.8 2026.6,635.4 2007.8,897.9 1541.2,899.6 1541.2,1283.8 1978.6,1234.9 1919.4,1954.5 
            1326.8,2108.8 1322.5,1848.1 1751.3,1734 1757.4,1521.4 1332,1594.3 " />
</svg>