<svg version="1.1" id="Layer_1"
  xmlns="http://www.w3.org/2000/svg"
  xmlns:xlink="http://www.w3.org/1999/xlink" x="0px" y="0px" viewBox="0 0 173 173" style="enable-background: new 0 0 173 173" xml:space="preserve">
  <def>
    <style>
      .st0 { fill:#E01E5A }
      .st1 { fill:#FFFFFF }
      .st2 { fill:#36C5F0 }
      .st3 { fill:#2EB67D }
      .st4 { fill:#ECB22E }
    </style>
  </def>
  <g>
    <path class="st0" d="M69.6,150.7c-8.6,0-15.6-7-15.6-15.6v-32.7c0-8.6,7-15.6,15.6-15.6s15.6,7,15.6,15.6v32.7
		C85.2,143.7,78.2,150.7,69.6,150.7z M36.9,118c-8.6,0-15.6-7-15.6-15.6s7-15.6,15.6-15.6h15.6v15.6C52.5,111,45.5,118,36.9,118z" />
    <path class="st1" d="M69.6,89.3c7.2,0,13.1,5.9,13.1,13.1v32.7c0,7.2-5.9,13.1-13.1,13.1c-7.2,0-13.1-5.9-13.1-13.1v-32.7
		C56.5,95.1,62.4,89.3,69.6,89.3 M50,89.3v13.1c0,7.2-5.9,13.1-13.1,13.1c-7.2,0-13.1-5.9-13.1-13.1c0-7.2,5.9-13.1,13.1-13.1H50
		 M69.6,84.3c-6,0-11.4,2.9-14.6,7.5v-2.5v-5h-5H36.9c-10,0-18.1,8.1-18.1,18.1c0,10,8.1,18.1,18.1,18.1c6,0,11.4-2.9,14.6-7.5v22.1
		c0,10,8.1,18.1,18.1,18.1c10,0,18.1-8.1,18.1-18.1v-32.7C87.7,92.4,79.6,84.3,69.6,84.3L69.6,84.3z" />
  </g>
  <g>
    <path class="st2" d="M36.8,85.1c-8.6,0-15.6-7-15.6-15.6s7-15.6,15.6-15.6h32.8c8.6,0,15.6,7,15.6,15.6s-7,15.6-15.6,15.6H36.8z
		 M69.6,52.3c-8.6,0-15.6-7-15.6-15.6s7-15.6,15.6-15.6s15.6,7,15.6,15.6v15.6H69.6z" />
    <path class="st1" d="M69.6,23.6c7.2,0,13.1,5.9,13.1,13.1v13.1H69.6c-7.2,0-13.1-5.9-13.1-13.1C56.5,29.4,62.4,23.6,69.6,23.6
		 M69.6,56.4c7.2,0,13.1,5.9,13.1,13.1c0,7.2-5.9,13.1-13.1,13.1H36.8c-7.2,0-13.1-5.9-13.1-13.1c0-7.2,5.9-13.1,13.1-13.1H69.6
		 M69.6,18.6c-10,0-18.1,8.1-18.1,18.1c0,6.1,3,11.5,7.6,14.7H36.8c-10,0-18.1,8.1-18.1,18.1s8.1,18.1,18.1,18.1h32.8
		c10,0,18.1-8.1,18.1-18.1c0-6.1-3-11.5-7.6-14.7h2.6h5v-5V36.7C87.7,26.7,79.6,18.6,69.6,18.6L69.6,18.6z" />
  </g>
  <g>
    <path class="st3" d="M119.6,85.1V69.5c0-8.6,7-15.6,15.6-15.6c8.6,0,15.6,7,15.6,15.6s-7,15.6-15.6,15.6H119.6z M102.5,85.1
		c-8.6,0-15.6-7-15.6-15.6V36.7c0-8.6,7-15.6,15.6-15.6c8.6,0,15.6,7,15.6,15.6v32.8C118.1,78.1,111.1,85.1,102.5,85.1z" />
    <path class="st1" d="M102.5,23.6c7.2,0,13.1,5.9,13.1,13.1c0,0,0,32.8,0,32.8c0,7.2-5.9,13.1-13.1,13.1c-7.2,0-13.1-5.9-13.1-13.1
		V36.7C89.4,29.4,95.2,23.6,102.5,23.6 M135.2,56.4c7.2,0,13.1,5.9,13.1,13.1c0,7.2-5.9,13.1-13.1,13.1h-13.1V69.5
		C122.1,62.3,128,56.4,135.2,56.4 M102.5,18.6c-10,0-18.1,8.1-18.1,18.1v32.8c0,10,8.1,18.1,18.1,18.1c6,0,11.4-2.9,14.6-7.5v2.5v5
		h5h13.1c10,0,18.1-8.1,18.1-18.1s-8.1-18.1-18.1-18.1c-6,0-11.4,2.9-14.6,7.5c0-9.6,0-22.2,0-22.2
		C120.6,26.7,112.5,18.6,102.5,18.6L102.5,18.6z" />
  </g>
  <g>
    <path class="st4" d="M102.5,150.7c-8.6,0-15.6-7-15.6-15.6v-15.6h15.6c8.6,0,15.6,7,15.6,15.6S111.1,150.7,102.5,150.7z M102.5,118
		c-8.6,0-15.6-7-15.6-15.6s7-15.6,15.6-15.6h32.8c8.6,0,15.6,7,15.6,15.6s-7,15.6-15.6,15.6H102.5z" />
    <path class="st1" d="M135.3,89.3c7.2,0,13.1,5.9,13.1,13.1c0,7.2-5.9,13.1-13.1,13.1h-32.8c-7.2,0-13.1-5.9-13.1-13.1
		c0-7.2,5.9-13.1,13.1-13.1H135.3 M102.5,122c7.2,0,13.1,5.9,13.1,13.1c0,7.2-5.9,13.1-13.1,13.1s-13.1-5.9-13.1-13.1V122H102.5
		 M135.3,84.3h-32.8c-10,0-18.1,8.1-18.1,18.1c0,6,2.9,11.4,7.5,14.6h-2.5h-5v5v13.1c0,10,8.1,18.1,18.1,18.1s18.1-8.1,18.1-18.1
		c0-6-2.9-11.4-7.5-14.6h22.2c10,0,18.1-8.1,18.1-18.1C153.4,92.4,145.3,84.3,135.3,84.3L135.3,84.3z" />
  </g>
</svg>