<svg version="1.1" id="Layer_1"
  xmlns="http://www.w3.org/2000/svg"
  xmlns:xlink="http://www.w3.org/1999/xlink" x="0px" y="0px" viewBox="0 0 542 542" style="enable-background: new 0 0 542 542" xml:space="preserve">
  <def>
    <style>
      .st0 {
        fill: #3178c6
      }
      .st1 {
        fill: #ffffff
      }
      .st2 {
        fill-rule: evenodd;
        clip-rule: evenodd;
        fill: #ffffff;
      }
    </style>
  </def>
  <path class="st0" d="M65,15h412c27.6,0,50,22.4,50,50v412c0,27.6-22.4,50-50,50H65c-27.6,0-50-22.4-50-50V65C15,37.4,37.4,15,65,15z
    " />
  <g>
    <path class="st1" d="M52.9,0h436.1C518.3,0,542,23.7,542,52.9v436.1c0,29.2-23.7,52.9-52.9,52.9H52.9C23.7,542,0,518.3,0,489.1
      V52.9C0,23.7,23.7,0,52.9,0z" />
  </g>
  <g>
    <path class="st0" d="M65,15h412c27.6,0,50,22.4,50,50v412c0,27.6-22.4,50-50,50H65c-27.6,0-50-22.4-50-50V65C15,37.4,37.4,15,65,15
      z" />
  </g>
  <path class="st2" d="M331.9,422.4v50.1c8.1,4.2,17.8,7.3,28.9,9.4s22.8,3.1,35.1,3.1c12,0,23.4-1.1,34.2-3.4
    c10.8-2.3,20.3-6.1,28.4-11.3c8.1-5.3,14.6-12.1,19.3-20.6s7.1-19,7.1-31.5c0-9.1-1.4-17-4.1-23.9s-6.6-12.9-11.7-18.2
    c-5.1-5.3-11.2-10.1-18.4-14.3s-15.2-8.2-24.2-12c-6.6-2.7-12.5-5.3-17.7-7.9c-5.2-2.6-9.7-5.2-13.3-7.8c-3.7-2.7-6.5-5.5-8.5-8.4
    c-2-3-3-6.3-3-10.1c0-3.4,0.9-6.5,2.7-9.3s4.3-5.1,7.5-7.1c3.2-2,7.2-3.5,11.9-4.6c4.7-1.1,9.9-1.6,15.7-1.6c4.2,0,8.6,0.3,13.2,0.9
    c4.6,0.6,9.3,1.6,14,2.9c4.7,1.3,9.3,2.9,13.7,4.9c4.4,2,8.5,4.3,12.3,6.9v-46.8c-7.6-2.9-15.9-5.1-25-6.5c-9-1.4-19.4-2.1-31.1-2.1
    c-11.9,0-23.2,1.3-33.8,3.8c-10.6,2.6-20,6.5-28.1,12c-8.1,5.4-14.5,12.3-19.2,20.7c-4.7,8.4-7,18.4-7,30.1
    c0,14.9,4.3,27.6,12.9,38.2c8.6,10.5,21.7,19.5,39.2,26.8c6.9,2.8,13.3,5.6,19.2,8.3s11.1,5.5,15.4,8.4c4.3,2.9,7.7,6.1,10.3,9.5
    c2.5,3.4,3.8,7.4,3.8,11.7c0,3.2-0.8,6.2-2.3,9s-3.9,5.2-7.1,7.2s-7.1,3.6-11.9,4.8c-4.7,1.1-10.3,1.7-16.7,1.7
    c-10.9,0-21.6-1.9-32.2-5.7C350.9,435.7,341,430,331.9,422.4L331.9,422.4z M247.8,299.1H312V258H133v41.1h63.9V482h50.9V299.1z" />
</svg>
